NotoSansSinhala-Regular.ufo
<glyph name="exclam.sinh" format="2">
  <advance width="289"/>
  <unicode hex="0021"/>
  <outline>
    <contour>
      <point x="173" y="201" type="line"/>
      <point x="195" y="714" type="line"/>
      <point x="94" y="714" type="line"/>
      <point x="116" y="201" type="line"/>
    </contour>
    <contour>
      <point x="84" y="55" type="curve" smooth="yes"/>
      <point x="84" y="9"/>
      <point x="110" y="-10"/>
      <point x="144" y="-10" type="curve" smooth="yes"/>
      <point x="175" y="-10"/>
      <point x="203" y="9"/>
      <point x="203" y="55" type="curve" smooth="yes"/>
      <point x="203" y="102"/>
      <point x="175" y="119"/>
      <point x="144" y="119" type="curve" smooth="yes"/>
      <point x="110" y="119"/>
      <point x="84" y="102"/>
    </contour>
  </outline>
</glyph>
<glyph name="quotedbl.sinh" format="2">
  <advance width="414"/>
  <unicode hex="0022"/>
  <outline>
    <contour>
      <point x="166" y="799" type="line"/>
      <point x="65" y="799" type="line"/>
      <point x="85" y="542" type="line"/>
      <point x="146" y="542" type="line"/>
    </contour>
    <contour>
      <point x="349" y="799" type="line"/>
      <point x="248" y="799" type="line"/>
      <point x="268" y="542" type="line"/>
      <point x="329" y="542" type="line"/>
    </contour>
  </outline>
</glyph>
<glyph name="numbersign.sinh" format="2">
  <advance width="646"/>
  <unicode hex="0023"/>
  <outline>
    <contour>
      <point x="481" y="443" type="line"/>
      <point x="620" y="443" type="line"/>
      <point x="620" y="507" type="line"/>
      <point x="494" y="507" type="line"/>
      <point x="535" y="714" type="line"/>
      <point x="466" y="714" type="line"/>
      <point x="428" y="507" type="line"/>
      <point x="278" y="507" type="line"/>
      <point x="317" y="714" type="line"/>
      <point x="248" y="714" type="line"/>
      <point x="209" y="507" type="line"/>
      <point x="62" y="507" type="line"/>
      <point x="62" y="443" type="line"/>
      <point x="197" y="443" type="line"/>
      <point x="165" y="278" type="line"/>
      <point x="25" y="278" type="line"/>
      <point x="25" y="214" type="line"/>
      <point x="152" y="214" type="line"/>
      <point x="112" y="0" type="line"/>
      <point x="180" y="0" type="line"/>
      <point x="220" y="214" type="line"/>
      <point x="369" y="214" type="line"/>
      <point x="327" y="0" type="line"/>
      <point x="395" y="0" type="line"/>
      <point x="437" y="214" type="line"/>
      <point x="586" y="214" type="line"/>
      <point x="586" y="278" type="line"/>
      <point x="450" y="278" type="line"/>
    </contour>
    <contour>
      <point x="232" y="278" type="line"/>
      <point x="265" y="443" type="line"/>
      <point x="414" y="443" type="line"/>
      <point x="381" y="278" type="line"/>
    </contour>
  </outline>
</glyph>
<glyph name="percent.sinh" format="2">
  <advance width="831"/>
  <unicode hex="0025"/>
  <outline>
    <contour>
      <point x="49" y="501" type="curve" smooth="yes"/>
      <point x="49" y="360"/>
      <point x="100" y="276"/>
      <point x="195" y="276" type="curve" smooth="yes"/>
      <point x="298" y="276"/>
      <point x="345" y="360"/>
      <point x="345" y="501" type="curve" smooth="yes"/>
      <point x="345" y="642"/>
      <point x="293" y="724"/>
      <point x="195" y="724" type="curve" smooth="yes"/>
      <point x="94" y="724"/>
      <point x="49" y="642"/>
    </contour>
    <contour>
      <point x="119" y="501" type="curve" smooth="yes"/>
      <point x="119" y="608"/>
      <point x="142" y="661"/>
      <point x="195" y="661" type="curve" smooth="yes"/>
      <point x="249" y="661"/>
      <point x="275" y="608"/>
      <point x="275" y="501" type="curve" smooth="yes"/>
      <point x="275" y="393"/>
      <point x="249" y="339"/>
      <point x="195" y="339" type="curve" smooth="yes"/>
      <point x="142" y="339"/>
      <point x="119" y="394"/>
    </contour>
    <contour>
      <point x="652" y="714" type="line"/>
      <point x="575" y="714" type="line"/>
      <point x="179" y="0" type="line"/>
      <point x="256" y="0" type="line"/>
    </contour>
    <contour>
      <point x="486" y="215" type="curve" smooth="yes"/>
      <point x="486" y="74"/>
      <point x="537" y="-10"/>
      <point x="632" y="-10" type="curve" smooth="yes"/>
      <point x="735" y="-10"/>
      <point x="782" y="74"/>
      <point x="782" y="215" type="curve" smooth="yes"/>
      <point x="782" y="356"/>
      <point x="729" y="438"/>
      <point x="632" y="438" type="curve" smooth="yes"/>
      <point x="531" y="438"/>
      <point x="486" y="356"/>
    </contour>
    <contour>
      <point x="556" y="215" type="curve" smooth="yes"/>
      <point x="556" y="322"/>
      <point x="579" y="375"/>
      <point x="632" y="375" type="curve" smooth="yes"/>
      <point x="686" y="375"/>
      <point x="712" y="322"/>
      <point x="712" y="215" type="curve" smooth="yes"/>
      <point x="712" y="106"/>
      <point x="686" y="53"/>
      <point x="632" y="53" type="curve" smooth="yes"/>
      <point x="579" y="53"/>
      <point x="556" y="107"/>
    </contour>
  </outline>
</glyph>
<glyph name="quotesingle.sinh" format="2">
  <advance width="231"/>
  <unicode hex="0027"/>
  <outline>
    <contour>
      <point x="166" y="800" type="line"/>
      <point x="65" y="800" type="line"/>
      <point x="85" y="542" type="line"/>
      <point x="146" y="542" type="line"/>
    </contour>
  </outline>
</glyph>
<glyph name="parenright.sinh" format="2">
  <advance width="314"/>
  <unicode hex="0029"/>
  <outline>
    <contour>
      <point x="260" y="296" type="curve"/>
      <point x="260" y="470"/>
      <point x="213" y="663"/>
      <point x="110" y="799" type="curve"/>
      <point x="31" y="799" type="line"/>
      <point x="128" y="654"/>
      <point x="179" y="487"/>
      <point x="179" y="295" type="curve" smooth="yes"/>
      <point x="179" y="104"/>
      <point x="128" y="-71"/>
      <point x="30" y="-216" type="curve"/>
      <point x="110" y="-216" type="line"/>
      <point x="204" y="-85"/>
      <point x="260" y="106"/>
    </contour>
  </outline>
</glyph>
<glyph name="asterisk.sinh" format="2">
  <advance width="551"/>
  <unicode hex="002A"/>
  <outline>
    <contour>
      <point x="320" y="799" type="line"/>
      <point x="226" y="799" type="line"/>
      <point x="246" y="613" type="line"/>
      <point x="62" y="666" type="line"/>
      <point x="48" y="576" type="line"/>
      <point x="225" y="562" type="line"/>
      <point x="111" y="409" type="line"/>
      <point x="197" y="363" type="line"/>
      <point x="272" y="533" type="line"/>
      <point x="354" y="363" type="line"/>
      <point x="438" y="409" type="line"/>
      <point x="323" y="562" type="line"/>
      <point x="501" y="576" type="line"/>
      <point x="487" y="666" type="line"/>
      <point x="301" y="613" type="line"/>
    </contour>
  </outline>
</glyph>
<glyph name="plus.sinh" format="2">
  <advance width="572"/>
  <unicode hex="002B"/>
  <outline>
    <contour>
      <point x="249" y="317" type="line"/>
      <point x="249" y="111" type="line"/>
      <point x="321" y="111" type="line"/>
      <point x="321" y="317" type="line"/>
      <point x="520" y="317" type="line"/>
      <point x="520" y="388" type="line"/>
      <point x="321" y="388" type="line"/>
      <point x="321" y="595" type="line"/>
      <point x="249" y="595" type="line"/>
      <point x="249" y="388" type="line"/>
      <point x="50" y="388" type="line"/>
      <point x="50" y="317" type="line"/>
    </contour>
  </outline>
</glyph>
<glyph name="comma.sinh" format="2">
  <advance width="268"/>
  <unicode hex="002C"/>
  <outline>
    <contour>
      <point x="195" y="116" type="line"/>
      <point x="104" y="116" type="line"/>
      <point x="94" y="46"/>
      <point x="71" y="-53"/>
      <point x="51" y="-129" type="curve"/>
      <point x="116" y="-129" type="line"/>
      <point x="148" y="-57"/>
      <point x="184" y="34"/>
      <point x="202" y="105" type="curve"/>
    </contour>
  </outline>
</glyph>
<glyph name="hyphen.sinh" format="2">
  <advance width="322"/>
  <unicode hex="002D"/>
  <outline>
    <contour>
      <point x="40" y="279" type="line"/>
      <point x="282" y="279" type="line"/>
      <point x="282" y="353" type="line"/>
      <point x="40" y="353" type="line"/>
    </contour>
  </outline>
</glyph>
<glyph name="period.sinh" format="2">
  <advance width="268"/>
  <unicode hex="002E"/>
  <outline>
    <contour>
      <point x="75" y="55" type="curve" smooth="yes"/>
      <point x="75" y="9"/>
      <point x="101" y="-10"/>
      <point x="133" y="-10" type="curve" smooth="yes"/>
      <point x="166" y="-10"/>
      <point x="193" y="9"/>
      <point x="193" y="55" type="curve" smooth="yes"/>
      <point x="193" y="102"/>
      <point x="166" y="119"/>
      <point x="133" y="119" type="curve" smooth="yes"/>
      <point x="101" y="119"/>
      <point x="75" y="102"/>
    </contour>
  </outline>
</glyph>
<glyph name="slash.sinh" format="2">
  <advance width="424"/>
  <unicode hex="002F"/>
  <outline>
    <contour>
      <point x="388" y="799" type="line"/>
      <point x="311" y="799" type="line"/>
      <point x="36" y="-216" type="line"/>
      <point x="114" y="-216" type="line"/>
    </contour>
  </outline>
</glyph>
<glyph name="zero.sinh" format="2">
  <advance width="572"/>
  <unicode hex="0030"/>
  <outline>
    <contour>
      <point x="523" y="358" type="curve" smooth="yes"/>
      <point x="523" y="590"/>
      <point x="445" y="725"/>
      <point x="285" y="725" type="curve" smooth="yes"/>
      <point x="114" y="725"/>
      <point x="49" y="589"/>
      <point x="49" y="358" type="curve" smooth="yes"/>
      <point x="49" y="127"/>
      <point x="124" y="-10"/>
      <point x="285" y="-10" type="curve" smooth="yes"/>
      <point x="456" y="-10"/>
      <point x="523" y="127"/>
    </contour>
    <contour>
      <point x="132" y="358" type="curve" smooth="yes"/>
      <point x="132" y="557"/>
      <point x="172" y="656"/>
      <point x="285" y="656" type="curve" smooth="yes"/>
      <point x="396" y="656"/>
      <point x="440" y="557"/>
      <point x="440" y="358" type="curve" smooth="yes"/>
      <point x="440" y="157"/>
      <point x="396" y="59"/>
      <point x="285" y="59" type="curve" smooth="yes"/>
      <point x="172" y="59"/>
      <point x="132" y="158"/>
    </contour>
  </outline>
</glyph>
<glyph name="one.sinh" format="2">
  <advance width="572"/>
  <unicode hex="0031"/>
  <outline>
    <contour>
      <point x="353" y="0" type="line"/>
      <point x="353" y="714" type="line"/>
      <point x="286" y="714" type="line"/>
      <point x="92" y="564" type="line"/>
      <point x="138" y="507" type="line"/>
      <point x="214" y="569" type="line" smooth="yes"/>
      <point x="240" y="591"/>
      <point x="255" y="602"/>
      <point x="276" y="624" type="curve"/>
      <point x="273" y="586"/>
      <point x="272" y="558"/>
      <point x="272" y="501" type="curve" smooth="yes"/>
      <point x="272" y="0" type="line"/>
    </contour>
  </outline>
</glyph>
<glyph name="two.sinh" format="2">
  <advance width="572"/>
  <unicode hex="0032"/>
  <outline>
    <contour>
      <point x="520" y="0" type="line"/>
      <point x="520" y="74" type="line"/>
      <point x="159" y="74" type="line"/>
      <point x="159" y="78" type="line"/>
      <point x="308" y="227" type="line" smooth="yes"/>
      <point x="417" y="335"/>
      <point x="491" y="419"/>
      <point x="491" y="532" type="curve" smooth="yes"/>
      <point x="491" y="651"/>
      <point x="408" y="724"/>
      <point x="275" y="724" type="curve" smooth="yes"/>
      <point x="184" y="724"/>
      <point x="112" y="687"/>
      <point x="56" y="640" type="curve"/>
      <point x="99" y="587" type="line"/>
      <point x="155" y="630"/>
      <point x="205" y="655"/>
      <point x="277" y="655" type="curve" smooth="yes"/>
      <point x="354" y="655"/>
      <point x="407" y="612"/>
      <point x="407" y="532" type="curve" smooth="yes"/>
      <point x="407" y="434"/>
      <point x="347" y="371"/>
      <point x="238" y="261" type="curve" smooth="yes"/>
      <point x="48" y="68" type="line"/>
      <point x="48" y="0" type="line"/>
    </contour>
  </outline>
</glyph>
<glyph name="three.sinh" format="2">
  <advance width="572"/>
  <unicode hex="0033"/>
  <outline>
    <contour>
      <point x="493" y="547" type="curve" smooth="yes"/>
      <point x="493" y="649"/>
      <point x="421" y="724"/>
      <point x="272" y="724" type="curve" smooth="yes"/>
      <point x="176" y="724"/>
      <point x="100" y="690"/>
      <point x="49" y="650" type="curve"/>
      <point x="88" y="595" type="line"/>
      <point x="142" y="630"/>
      <point x="195" y="655"/>
      <point x="276" y="655" type="curve" smooth="yes"/>
      <point x="358" y="655"/>
      <point x="409" y="614"/>
      <point x="409" y="543" type="curve" smooth="yes"/>
      <point x="409" y="459"/>
      <point x="345" y="403"/>
      <point x="226" y="403" type="curve" smooth="yes"/>
      <point x="154" y="403" type="line"/>
      <point x="154" y="334" type="line"/>
      <point x="225" y="334" type="line" smooth="yes"/>
      <point x="354" y="334"/>
      <point x="429" y="296"/>
      <point x="429" y="204" type="curve" smooth="yes"/>
      <point x="429" y="114"/>
      <point x="375" y="60"/>
      <point x="245" y="60" type="curve" smooth="yes"/>
      <point x="180" y="60"/>
      <point x="106" y="77"/>
      <point x="45" y="106" type="curve"/>
      <point x="45" y="29" type="line"/>
      <point x="104" y="0"/>
      <point x="166" y="-10"/>
      <point x="241" y="-10" type="curve" smooth="yes"/>
      <point x="430" y="-10"/>
      <point x="515" y="78"/>
      <point x="515" y="203" type="curve" smooth="yes"/>
      <point x="515" y="297"/>
      <point x="459" y="358"/>
      <point x="345" y="372" type="curve"/>
      <point x="345" y="376" type="line"/>
      <point x="435" y="394"/>
      <point x="493" y="451"/>
    </contour>
  </outline>
</glyph>
<glyph name="four.sinh" format="2">
  <advance width="572"/>
  <unicode hex="0034"/>
  <outline>
    <contour>
      <point x="552" y="168" type="line"/>
      <point x="552" y="239" type="line"/>
      <point x="445" y="239" type="line"/>
      <point x="445" y="718" type="line"/>
      <point x="357" y="718" type="line"/>
      <point x="21" y="235" type="line"/>
      <point x="21" y="168" type="line"/>
      <point x="365" y="168" type="line"/>
      <point x="365" y="0" type="line"/>
      <point x="445" y="0" type="line"/>
      <point x="445" y="168" type="line"/>
    </contour>
    <contour>
      <point x="365" y="239" type="line"/>
      <point x="106" y="239" type="line"/>
      <point x="321" y="546" type="line" smooth="yes"/>
      <point x="335" y="566"/>
      <point x="355" y="604"/>
      <point x="366" y="629" type="curve"/>
      <point x="371" y="629" type="line"/>
      <point x="369" y="585"/>
      <point x="365" y="540"/>
      <point x="365" y="471" type="curve" smooth="yes"/>
    </contour>
  </outline>
</glyph>
<glyph name="five.sinh" format="2">
  <advance width="572"/>
  <unicode hex="0035"/>
  <outline>
    <contour>
      <point x="271" y="436" type="curve" smooth="yes"/>
      <point x="223" y="436"/>
      <point x="183" y="429"/>
      <point x="159" y="424" type="curve"/>
      <point x="178" y="642" type="line"/>
      <point x="465" y="642" type="line"/>
      <point x="465" y="714" type="line"/>
      <point x="107" y="714" type="line"/>
      <point x="80" y="379" type="line"/>
      <point x="124" y="352" type="line"/>
      <point x="153" y="358"/>
      <point x="209" y="366"/>
      <point x="249" y="366" type="curve" smooth="yes"/>
      <point x="375" y="366"/>
      <point x="431" y="313"/>
      <point x="431" y="218" type="curve" smooth="yes"/>
      <point x="431" y="110"/>
      <point x="359" y="60"/>
      <point x="252" y="60" type="curve" smooth="yes"/>
      <point x="188" y="60"/>
      <point x="112" y="78"/>
      <point x="63" y="107" type="curve"/>
      <point x="63" y="29" type="line"/>
      <point x="107" y="3"/>
      <point x="174" y="-10"/>
      <point x="248" y="-10" type="curve" smooth="yes"/>
      <point x="416" y="-10"/>
      <point x="515" y="80"/>
      <point x="515" y="227" type="curve" smooth="yes"/>
      <point x="515" y="359"/>
      <point x="419" y="436"/>
    </contour>
  </outline>
</glyph>
<glyph name="six.sinh" format="2">
  <advance width="572"/>
  <unicode hex="0036"/>
  <outline>
    <contour>
      <point x="55" y="305" type="curve" smooth="yes"/>
      <point x="55" y="91"/>
      <point x="162" y="-10"/>
      <point x="298" y="-10" type="curve" smooth="yes"/>
      <point x="437" y="-10"/>
      <point x="525" y="81"/>
      <point x="525" y="230" type="curve" smooth="yes"/>
      <point x="525" y="368"/>
      <point x="440" y="447"/>
      <point x="314" y="447" type="curve" smooth="yes"/>
      <point x="228" y="447"/>
      <point x="174" y="410"/>
      <point x="143" y="363" type="curve"/>
      <point x="137" y="363" type="line"/>
      <point x="144" y="521"/>
      <point x="194" y="655"/>
      <point x="382" y="655" type="curve" smooth="yes"/>
      <point x="413" y="655"/>
      <point x="445" y="651"/>
      <point x="470" y="643" type="curve"/>
      <point x="470" y="715" type="line"/>
      <point x="448" y="721"/>
      <point x="410" y="724"/>
      <point x="382" y="724" type="curve" smooth="yes"/>
      <point x="113" y="724"/>
      <point x="55" y="510"/>
    </contour>
    <contour>
      <point x="297" y="60" type="curve" smooth="yes"/>
      <point x="192" y="60"/>
      <point x="138" y="157"/>
      <point x="138" y="245" type="curve" smooth="yes"/>
      <point x="138" y="309"/>
      <point x="203" y="378"/>
      <point x="300" y="378" type="curve" smooth="yes"/>
      <point x="396" y="378"/>
      <point x="444" y="320"/>
      <point x="444" y="228" type="curve" smooth="yes"/>
      <point x="444" y="114"/>
      <point x="384" y="60"/>
    </contour>
  </outline>
</glyph>
<glyph name="seven.sinh" format="2">
  <advance width="572"/>
  <unicode hex="0037"/>
  <outline>
    <contour>
      <point x="136" y="0" type="line"/>
      <point x="227" y="0" type="line"/>
      <point x="523" y="649" type="line"/>
      <point x="523" y="714" type="line"/>
      <point x="44" y="714" type="line"/>
      <point x="44" y="640" type="line"/>
      <point x="436" y="640" type="line"/>
    </contour>
  </outline>
</glyph>
<glyph name="eight.sinh" format="2">
  <advance width="572"/>
  <unicode hex="0038"/>
  <outline>
    <contour>
      <point x="285" y="724" type="curve" smooth="yes"/>
      <point x="163" y="724"/>
      <point x="72" y="663"/>
      <point x="72" y="554" type="curve" smooth="yes"/>
      <point x="72" y="466"/>
      <point x="127" y="413"/>
      <point x="197" y="373" type="curve"/>
      <point x="118" y="337"/>
      <point x="49" y="279"/>
      <point x="49" y="182" type="curve" smooth="yes"/>
      <point x="49" y="61"/>
      <point x="134" y="-10"/>
      <point x="288" y="-10" type="curve" smooth="yes"/>
      <point x="430" y="-10"/>
      <point x="522" y="65"/>
      <point x="522" y="185" type="curve" smooth="yes"/>
      <point x="522" y="282"/>
      <point x="451" y="335"/>
      <point x="363" y="378" type="curve"/>
      <point x="437" y="416"/>
      <point x="499" y="467"/>
      <point x="499" y="553" type="curve" smooth="yes"/>
      <point x="499" y="664"/>
      <point x="410" y="724"/>
    </contour>
    <contour>
      <point x="131" y="181" type="curve" smooth="yes"/>
      <point x="131" y="254"/>
      <point x="180" y="300"/>
      <point x="270" y="338" type="curve"/>
      <point x="287" y="332" type="line" smooth="yes"/>
      <point x="382" y="296"/>
      <point x="439" y="250"/>
      <point x="439" y="184" type="curve" smooth="yes"/>
      <point x="439" y="109"/>
      <point x="385" y="58"/>
      <point x="286" y="58" type="curve" smooth="yes"/>
      <point x="181" y="58"/>
      <point x="131" y="110"/>
    </contour>
    <contour>
      <point x="284" y="655" type="curve" smooth="yes"/>
      <point x="363" y="655"/>
      <point x="416" y="618"/>
      <point x="416" y="550" type="curve" smooth="yes"/>
      <point x="416" y="478"/>
      <point x="360" y="440"/>
      <point x="289" y="411" type="curve"/>
      <point x="214" y="442"/>
      <point x="155" y="476"/>
      <point x="155" y="550" type="curve" smooth="yes"/>
      <point x="155" y="618"/>
      <point x="208" y="655"/>
    </contour>
  </outline>
</glyph>
<glyph name="nine.sinh" format="2">
  <advance width="572"/>
  <unicode hex="0039"/>
  <outline>
    <contour>
      <point x="520" y="409" type="curve" smooth="yes"/>
      <point x="520" y="622"/>
      <point x="414" y="724"/>
      <point x="278" y="724" type="curve" smooth="yes"/>
      <point x="140" y="724"/>
      <point x="50" y="632"/>
      <point x="50" y="483" type="curve" smooth="yes"/>
      <point x="50" y="345"/>
      <point x="133" y="268"/>
      <point x="258" y="268" type="curve" smooth="yes"/>
      <point x="346" y="268"/>
      <point x="400" y="304"/>
      <point x="431" y="350" type="curve"/>
      <point x="437" y="350" type="line"/>
      <point x="431" y="192"/>
      <point x="381" y="60"/>
      <point x="191" y="60" type="curve" smooth="yes"/>
      <point x="161" y="60"/>
      <point x="126" y="64"/>
      <point x="102" y="73" type="curve"/>
      <point x="102" y="0" type="line"/>
      <point x="124" y="-7"/>
      <point x="165" y="-10"/>
      <point x="192" y="-10" type="curve" smooth="yes"/>
      <point x="462" y="-10"/>
      <point x="520" y="204"/>
    </contour>
    <contour>
      <point x="277" y="655" type="curve" smooth="yes"/>
      <point x="384" y="655"/>
      <point x="437" y="557"/>
      <point x="437" y="469" type="curve" smooth="yes"/>
      <point x="437" y="404"/>
      <point x="374" y="336"/>
      <point x="273" y="336" type="curve" smooth="yes"/>
      <point x="177" y="336"/>
      <point x="131" y="394"/>
      <point x="131" y="486" type="curve" smooth="yes"/>
      <point x="131" y="600"/>
      <point x="191" y="655"/>
    </contour>
  </outline>
</glyph>
<glyph name="colon.sinh" format="2">
  <advance width="287"/>
  <unicode hex="003A"/>
  <outline>
    <contour>
      <point x="84" y="55" type="curve" smooth="yes"/>
      <point x="84" y="9"/>
      <point x="110" y="-10"/>
      <point x="143" y="-10" type="curve" smooth="yes"/>
      <point x="175" y="-10"/>
      <point x="203" y="9"/>
      <point x="203" y="55" type="curve" smooth="yes"/>
      <point x="203" y="102"/>
      <point x="175" y="119"/>
      <point x="143" y="119" type="curve" smooth="yes"/>
      <point x="110" y="119"/>
      <point x="84" y="102"/>
    </contour>
    <contour>
      <point x="84" y="469" type="curve" smooth="yes"/>
      <point x="84" y="423"/>
      <point x="110" y="404"/>
      <point x="143" y="404" type="curve" smooth="yes"/>
      <point x="175" y="404"/>
      <point x="203" y="423"/>
      <point x="203" y="469" type="curve" smooth="yes"/>
      <point x="203" y="517"/>
      <point x="175" y="534"/>
      <point x="143" y="534" type="curve" smooth="yes"/>
      <point x="110" y="534"/>
      <point x="84" y="517"/>
    </contour>
  </outline>
</glyph>
<glyph name="semicolon.sinh" format="2">
  <advance width="287"/>
  <unicode hex="003B"/>
  <outline>
    <contour>
      <point x="196" y="100" type="line"/>
      <point x="106" y="100" type="line"/>
      <point x="95" y="30"/>
      <point x="71" y="-70"/>
      <point x="51" y="-145" type="curve"/>
      <point x="117" y="-145" type="line"/>
      <point x="149" y="-74"/>
      <point x="185" y="19"/>
      <point x="203" y="89" type="curve"/>
    </contour>
    <contour>
      <point x="84" y="469" type="curve" smooth="yes"/>
      <point x="84" y="423"/>
      <point x="110" y="404"/>
      <point x="142" y="404" type="curve" smooth="yes"/>
      <point x="176" y="404"/>
      <point x="202" y="423"/>
      <point x="202" y="469" type="curve" smooth="yes"/>
      <point x="202" y="517"/>
      <point x="176" y="534"/>
      <point x="142" y="534" type="curve" smooth="yes"/>
      <point x="110" y="534"/>
      <point x="84" y="517"/>
    </contour>
  </outline>
</glyph>
<glyph name="less.sinh" format="2">
  <advance width="572"/>
  <unicode hex="003C"/>
  <outline>
    <contour>
      <point x="521" y="116" type="line"/>
      <point x="521" y="194" type="line"/>
      <point x="144" y="352" type="line"/>
      <point x="521" y="530" type="line"/>
      <point x="521" y="608" type="line"/>
      <point x="50" y="373" type="line"/>
      <point x="50" y="323" type="line"/>
    </contour>
  </outline>
</glyph>
<glyph name="question.sinh" format="2">
  <advance width="454"/>
  <unicode hex="003F"/>
  <outline>
    <contour>
      <point x="148" y="201" type="line"/>
      <point x="218" y="201" type="line"/>
      <point x="218" y="218" type="line" smooth="yes"/>
      <point x="218" y="275"/>
      <point x="231" y="301"/>
      <point x="298" y="358" type="curve" smooth="yes"/>
      <point x="370" y="418"/>
      <point x="417" y="459"/>
      <point x="417" y="549" type="curve" smooth="yes"/>
      <point x="417" y="657"/>
      <point x="344" y="724"/>
      <point x="217" y="724" type="curve" smooth="yes"/>
      <point x="137" y="724"/>
      <point x="73" y="703"/>
      <point x="21" y="675" type="curve"/>
      <point x="49" y="611" type="line"/>
      <point x="96" y="633"/>
      <point x="147" y="653"/>
      <point x="215" y="653" type="curve" smooth="yes"/>
      <point x="294" y="653"/>
      <point x="338" y="616"/>
      <point x="338" y="550" type="curve" smooth="yes"/>
      <point x="338" y="489"/>
      <point x="314" y="464"/>
      <point x="235" y="398" type="curve" smooth="yes"/>
      <point x="168" y="342"/>
      <point x="148" y="303"/>
      <point x="148" y="228" type="curve" smooth="yes"/>
    </contour>
    <contour>
      <point x="128" y="55" type="curve" smooth="yes"/>
      <point x="128" y="9"/>
      <point x="153" y="-10"/>
      <point x="187" y="-10" type="curve" smooth="yes"/>
      <point x="219" y="-10"/>
      <point x="246" y="9"/>
      <point x="246" y="55" type="curve" smooth="yes"/>
      <point x="246" y="102"/>
      <point x="219" y="119"/>
      <point x="187" y="119" type="curve" smooth="yes"/>
      <point x="153" y="119"/>
      <point x="128" y="102"/>
    </contour>
  </outline>
</glyph>
<glyph name="bracketleft.sinh" format="2">
  <advance width="349"/>
  <unicode hex="005B"/>
  <outline>
    <contour>
      <point x="304" y="-216" type="line"/>
      <point x="304" y="-150" type="line"/>
      <point x="156" y="-150" type="line"/>
      <point x="156" y="733" type="line"/>
      <point x="304" y="733" type="line"/>
      <point x="304" y="799" type="line"/>
      <point x="80" y="799" type="line"/>
      <point x="80" y="-216" type="line"/>
    </contour>
  </outline>
</glyph>
<glyph name="backslash.sinh" format="2">
  <advance width="424"/>
  <unicode hex="005C"/>
  <outline>
    <contour>
      <point x="114" y="799" type="line"/>
      <point x="36" y="799" type="line"/>
      <point x="310" y="-216" type="line"/>
      <point x="388" y="-216" type="line"/>
    </contour>
  </outline>
</glyph>
<glyph name="bracketright.sinh" format="2">
  <advance width="349"/>
  <unicode hex="005D"/>
  <outline>
    <contour>
      <point x="44" y="-150" type="line"/>
      <point x="44" y="-217" type="line"/>
      <point x="269" y="-217" type="line"/>
      <point x="269" y="800" type="line"/>
      <point x="44" y="800" type="line"/>
      <point x="44" y="734" type="line"/>
      <point x="192" y="734" type="line"/>
      <point x="192" y="-150" type="line"/>
    </contour>
  </outline>
</glyph>
<glyph name="braceleft.sinh" format="2">
  <advance width="390"/>
  <unicode hex="007B"/>
  <outline>
    <contour>
      <point x="345" y="-216" type="curve"/>
      <point x="345" y="-150" type="line"/>
      <point x="270" y="-149"/>
      <point x="228" y="-122"/>
      <point x="228" y="-57" type="curve" smooth="yes"/>
      <point x="228" y="167" type="line" smooth="yes"/>
      <point x="228" y="235"/>
      <point x="195" y="276"/>
      <point x="125" y="289" type="curve"/>
      <point x="125" y="295" type="line"/>
      <point x="194" y="308"/>
      <point x="228" y="349"/>
      <point x="228" y="417" type="curve" smooth="yes"/>
      <point x="228" y="639" type="line" smooth="yes"/>
      <point x="228" y="704"/>
      <point x="272" y="731"/>
      <point x="345" y="733" type="curve"/>
      <point x="345" y="799" type="line"/>
      <point x="229" y="799"/>
      <point x="149" y="748"/>
      <point x="149" y="642" type="curve" smooth="yes"/>
      <point x="149" y="418" type="line" smooth="yes"/>
      <point x="149" y="351"/>
      <point x="105" y="326"/>
      <point x="25" y="325" type="curve"/>
      <point x="25" y="258" type="line"/>
      <point x="105" y="258"/>
      <point x="149" y="232"/>
      <point x="149" y="164" type="curve" smooth="yes"/>
      <point x="149" y="-57" type="line" smooth="yes"/>
      <point x="149" y="-164"/>
      <point x="224" y="-215"/>
    </contour>
  </outline>
</glyph>
<glyph name="braceright.sinh" format="2">
  <advance width="390"/>
  <unicode hex="007D"/>
  <outline>
    <contour>
      <point x="44" y="799" type="curve"/>
      <point x="44" y="733" type="line"/>
      <point x="120" y="732"/>
      <point x="162" y="705"/>
      <point x="162" y="640" type="curve" smooth="yes"/>
      <point x="162" y="416" type="line" smooth="yes"/>
      <point x="162" y="348"/>
      <point x="194" y="307"/>
      <point x="265" y="294" type="curve"/>
      <point x="265" y="288" type="line"/>
      <point x="195" y="275"/>
      <point x="162" y="234"/>
      <point x="162" y="166" type="curve" smooth="yes"/>
      <point x="162" y="-56" type="line" smooth="yes"/>
      <point x="162" y="-121"/>
      <point x="117" y="-148"/>
      <point x="44" y="-150" type="curve"/>
      <point x="44" y="-216" type="line"/>
      <point x="160" y="-216"/>
      <point x="240" y="-165"/>
      <point x="240" y="-59" type="curve" smooth="yes"/>
      <point x="240" y="165" type="line" smooth="yes"/>
      <point x="240" y="232"/>
      <point x="284" y="257"/>
      <point x="365" y="258" type="curve"/>
      <point x="365" y="325" type="line"/>
      <point x="284" y="325"/>
      <point x="240" y="351"/>
      <point x="240" y="419" type="curve" smooth="yes"/>
      <point x="240" y="640" type="line" smooth="yes"/>
      <point x="240" y="747"/>
      <point x="166" y="798"/>
    </contour>
  </outline>
</glyph>
<glyph name="danda.sinh" format="2">
  <advance width="337"/>
  <unicode hex="0964"/>
  <outline>
    <contour>
      <point x="156" y="662" type="line"/>
      <point x="156" y="-50" type="line"/>
      <point x="230" y="-50" type="line"/>
      <point x="230" y="662" type="line"/>
    </contour>
  </outline>
</glyph>
<glyph name="dbldanda.sinh" format="2">
  <advance width="529"/>
  <unicode hex="0965"/>
  <outline>
    <contour>
      <point x="156" y="662" type="line"/>
      <point x="156" y="-50" type="line"/>
      <point x="230" y="-50" type="line"/>
      <point x="230" y="662" type="line"/>
    </contour>
    <contour>
      <point x="348" y="662" type="line"/>
      <point x="348" y="-50" type="line"/>
      <point x="423" y="-50" type="line"/>
      <point x="423" y="662" type="line"/>
    </contour>
  </outline>
</glyph>
<glyph name="anusvarasinh" format="2">
  <advance width="470"/>
  <unicode hex="0D82"/>
  <outline>
    <contour>
      <point x="34" y="266" type="curve" smooth="yes"/>
      <point x="34" y="150"/>
      <point x="112" y="66"/>
      <point x="234" y="66" type="curve" smooth="yes"/>
      <point x="357" y="66"/>
      <point x="436" y="150"/>
      <point x="436" y="266" type="curve" smooth="yes"/>
      <point x="436" y="379"/>
      <point x="359" y="466"/>
      <point x="237" y="466" type="curve" smooth="yes"/>
      <point x="114" y="466"/>
      <point x="34" y="380"/>
    </contour>
    <contour>
      <point x="107" y="268" type="curve" smooth="yes"/>
      <point x="107" y="343"/>
      <point x="153" y="397"/>
      <point x="234" y="397" type="curve" smooth="yes"/>
      <point x="316" y="397"/>
      <point x="363" y="345"/>
      <point x="363" y="269" type="curve" smooth="yes"/>
      <point x="363" y="190"/>
      <point x="319" y="135"/>
      <point x="234" y="135" type="curve" smooth="yes"/>
      <point x="150" y="135"/>
      <point x="107" y="191"/>
    </contour>
  </outline>
</glyph>
<glyph name="visargasinh" format="2">
  <advance width="318"/>
  <unicode hex="0D83"/>
  <outline>
    <contour>
      <point x="288" y="424" type="curve" smooth="yes"/>
      <point x="288" y="497"/>
      <point x="237" y="544"/>
      <point x="158" y="544" type="curve" smooth="yes"/>
      <point x="80" y="544"/>
      <point x="30" y="491"/>
      <point x="30" y="421" type="curve" smooth="yes"/>
      <point x="30" y="354"/>
      <point x="74" y="300"/>
      <point x="160" y="300" type="curve" smooth="yes"/>
      <point x="237" y="300"/>
      <point x="288" y="348"/>
    </contour>
    <contour>
      <point x="224" y="423" type="curve" smooth="yes"/>
      <point x="224" y="382"/>
      <point x="196" y="360"/>
      <point x="157" y="360" type="curve" smooth="yes"/>
      <point x="113" y="360"/>
      <point x="94" y="391"/>
      <point x="94" y="420" type="curve" smooth="yes"/>
      <point x="94" y="461"/>
      <point x="120" y="484"/>
      <point x="159" y="484" type="curve" smooth="yes"/>
      <point x="202" y="484"/>
      <point x="224" y="457"/>
    </contour>
    <contour>
      <point x="288" y="124" type="curve" smooth="yes"/>
      <point x="288" y="196"/>
      <point x="237" y="244"/>
      <point x="158" y="244" type="curve" smooth="yes"/>
      <point x="80" y="244"/>
      <point x="30" y="191"/>
      <point x="30" y="121" type="curve" smooth="yes"/>
      <point x="30" y="53"/>
      <point x="74" y="0"/>
      <point x="160" y="0" type="curve" smooth="yes"/>
      <point x="237" y="0"/>
      <point x="288" y="48"/>
    </contour>
    <contour>
      <point x="224" y="124" type="curve" smooth="yes"/>
      <point x="224" y="82"/>
      <point x="196" y="60"/>
      <point x="157" y="60" type="curve" smooth="yes"/>
      <point x="113" y="60"/>
      <point x="94" y="91"/>
      <point x="94" y="120" type="curve" smooth="yes"/>
      <point x="94" y="161"/>
      <point x="120" y="184"/>
      <point x="159" y="184" type="curve" smooth="yes"/>
      <point x="202" y="184"/>
      <point x="224" y="157"/>
    </contour>
  </outline>
</glyph>
<glyph name="asinh" format="2">
  <advance width="708"/>
  <unicode hex="0D85"/>
  <outline>
    <contour>
      <point x="344" y="-11" type="curve" smooth="yes"/>
      <point x="430" y="-11"/>
      <point x="531" y="-1"/>
      <point x="624" y="42" type="curve"/>
      <point x="598" y="109" type="line"/>
      <point x="565" y="91"/>
      <point x="535" y="78"/>
      <point x="502" y="72" type="curve"/>
      <point x="482" y="70" type="line"/>
      <point x="440" y="61"/>
      <point x="398" y="60"/>
      <point x="352" y="60" type="curve" smooth="yes"/>
      <point x="174" y="60"/>
      <point x="112" y="141"/>
      <point x="112" y="229" type="curve" smooth="yes"/>
      <point x="112" y="287"/>
      <point x="133" y="328"/>
      <point x="172" y="352" type="curve" smooth="yes"/>
      <point x="213" y="377"/>
      <point x="256" y="389"/>
      <point x="396" y="389" type="curve" smooth="yes"/>
      <point x="517" y="389" type="line"/>
      <point x="517" y="430" type="line" smooth="yes"/>
      <point x="517" y="546"/>
      <point x="456" y="612"/>
      <point x="354" y="612" type="curve" smooth="yes"/>
      <point x="263" y="612"/>
      <point x="208" y="572"/>
      <point x="208" y="499" type="curve" smooth="yes"/>
      <point x="208" y="491"/>
      <point x="208" y="480"/>
      <point x="210" y="468" type="curve"/>
      <point x="281" y="477" type="line"/>
      <point x="281" y="481"/>
      <point x="280" y="487"/>
      <point x="280" y="492" type="curve" smooth="yes"/>
      <point x="280" y="525"/>
      <point x="307" y="546"/>
      <point x="359" y="546" type="curve" smooth="yes"/>
      <point x="413" y="546"/>
      <point x="452" y="517"/>
      <point x="456" y="455" type="curve"/>
      <point x="389" y="455" type="line" smooth="yes"/>
      <point x="262" y="455"/>
      <point x="200" y="445"/>
      <point x="143" y="415" type="curve" smooth="yes"/>
      <point x="79" y="381"/>
      <point x="36" y="322"/>
      <point x="36" y="233" type="curve" smooth="yes"/>
      <point x="36" y="72"/>
      <point x="159" y="-11"/>
    </contour>
    <contour>
      <point x="456" y="-202" type="line"/>
      <point x="526" y="-202" type="line"/>
      <point x="526" y="389" type="line" smooth="yes"/>
      <point x="526" y="440"/>
      <point x="534" y="480"/>
      <point x="578" y="526" type="curve" smooth="yes"/>
      <point x="591" y="539"/>
      <point x="607" y="554"/>
      <point x="626" y="569" type="curve"/>
      <point x="571" y="613" type="line"/>
      <point x="502" y="555"/>
      <point x="465" y="484"/>
      <point x="456" y="393" type="curve"/>
    </contour>
    <contour>
      <point x="566" y="275" type="curve" smooth="yes"/>
      <point x="661" y="275"/>
      <point x="693" y="319"/>
      <point x="693" y="376" type="curve" smooth="yes"/>
      <point x="693" y="412"/>
      <point x="677" y="443"/>
      <point x="653" y="479" type="curve" smooth="yes"/>
      <point x="627" y="519"/>
      <point x="620" y="533"/>
      <point x="620" y="548" type="curve" smooth="yes"/>
      <point x="620" y="558"/>
      <point x="622" y="562"/>
      <point x="626" y="569" type="curve"/>
      <point x="562" y="536" type="line"/>
      <point x="562" y="508"/>
      <point x="571" y="488"/>
      <point x="592" y="456" type="curve" smooth="yes"/>
      <point x="611" y="427"/>
      <point x="621" y="409"/>
      <point x="621" y="384" type="curve" smooth="yes"/>
      <point x="621" y="356"/>
      <point x="606" y="341"/>
      <point x="562" y="341" type="curve" smooth="yes"/>
      <point x="538" y="341"/>
      <point x="512" y="345"/>
      <point x="478" y="366" type="curve"/>
      <point x="463" y="310" type="line"/>
      <point x="491" y="284"/>
      <point x="537" y="275"/>
    </contour>
  </outline>
</glyph>
<glyph name="isinh" format="2">
  <advance width="763"/>
  <unicode hex="0D89"/>
  <outline>
    <contour>
      <point x="275" y="73" type="curve" smooth="yes"/>
      <point x="405" y="73"/>
      <point x="503" y="139"/>
      <point x="503" y="272" type="curve" smooth="yes"/>
      <point x="503" y="394"/>
      <point x="425" y="431"/>
      <point x="359" y="431" type="curve" smooth="yes"/>
      <point x="266" y="431"/>
      <point x="226" y="376"/>
      <point x="226" y="319" type="curve" smooth="yes"/>
      <point x="226" y="253"/>
      <point x="265" y="206"/>
      <point x="343" y="206" type="curve" smooth="yes"/>
      <point x="387" y="206"/>
      <point x="431" y="225"/>
      <point x="454" y="250" type="curve"/>
      <point x="458" y="308" type="line"/>
      <point x="422" y="280"/>
      <point x="395" y="269"/>
      <point x="353" y="269" type="curve" smooth="yes"/>
      <point x="322" y="269"/>
      <point x="297" y="287"/>
      <point x="297" y="317" type="curve" smooth="yes"/>
      <point x="297" y="354"/>
      <point x="326" y="365"/>
      <point x="357" y="365" type="curve" smooth="yes"/>
      <point x="405" y="365"/>
      <point x="434" y="331"/>
      <point x="434" y="271" type="curve"/>
      <point x="433" y="261" type="line" smooth="yes"/>
      <point x="421" y="158"/>
      <point x="345" y="140"/>
      <point x="282" y="140" type="curve" smooth="yes"/>
      <point x="181" y="140"/>
      <point x="107" y="188"/>
      <point x="107" y="316" type="curve" smooth="yes"/>
      <point x="107" y="481"/>
      <point x="238" y="544"/>
      <point x="381" y="544" type="curve" smooth="yes"/>
      <point x="577" y="544"/>
      <point x="653" y="428"/>
      <point x="653" y="299" type="curve" smooth="yes"/>
      <point x="653" y="152"/>
      <point x="568" y="68"/>
      <point x="399" y="68" type="curve"/>
      <point x="398" y="0" type="line"/>
      <point x="628" y="0"/>
      <point x="727" y="125"/>
      <point x="727" y="301" type="curve" smooth="yes"/>
      <point x="727" y="484"/>
      <point x="615" y="612"/>
      <point x="381" y="612" type="curve" smooth="yes"/>
      <point x="192" y="612"/>
      <point x="34" y="515"/>
      <point x="34" y="319" type="curve" smooth="yes"/>
      <point x="34" y="155"/>
      <point x="137" y="73"/>
    </contour>
    <contour>
      <point x="378" y="-217" type="curve" smooth="yes"/>
      <point x="529" y="-217"/>
      <point x="579" y="-139"/>
      <point x="579" y="-53" type="curve" smooth="yes"/>
      <point x="579" y="-4"/>
      <point x="569" y="37"/>
      <point x="554" y="65" type="curve"/>
      <point x="497" y="62" type="line"/>
      <point x="483" y="43" type="line"/>
      <point x="499" y="16"/>
      <point x="506" y="-15"/>
      <point x="506" y="-51" type="curve" smooth="yes"/>
      <point x="506" y="-108"/>
      <point x="468" y="-148"/>
      <point x="379" y="-148" type="curve" smooth="yes"/>
      <point x="270" y="-148"/>
      <point x="257" y="-90"/>
      <point x="257" y="-40" type="curve" smooth="yes"/>
      <point x="257" y="-31"/>
      <point x="258" y="-18"/>
      <point x="259" y="-5" type="curve"/>
      <point x="189" y="0" type="line"/>
      <point x="187" y="-12"/>
      <point x="185" y="-26"/>
      <point x="185" y="-43" type="curve" smooth="yes"/>
      <point x="185" y="-129"/>
      <point x="229" y="-217"/>
    </contour>
  </outline>
</glyph>
<glyph name="iisinh" format="2">
  <advance width="702"/>
  <unicode hex="0D8A"/>
  <outline>
    <contour>
      <point x="341" y="-11" type="curve" smooth="yes"/>
      <point x="540" y="-11"/>
      <point x="666" y="96"/>
      <point x="666" y="283" type="curve" smooth="yes"/>
      <point x="666" y="469"/>
      <point x="542" y="566"/>
      <point x="373" y="566" type="curve" smooth="yes"/>
      <point x="333" y="566"/>
      <point x="311" y="564"/>
      <point x="289" y="555" type="curve"/>
      <point x="214" y="485" type="line"/>
      <point x="255" y="499"/>
      <point x="308" y="506"/>
      <point x="349" y="506" type="curve" smooth="yes"/>
      <point x="499" y="506"/>
      <point x="593" y="423"/>
      <point x="593" y="281" type="curve" smooth="yes"/>
      <point x="593" y="155"/>
      <point x="516" y="60"/>
      <point x="343" y="60" type="curve" smooth="yes"/>
      <point x="181" y="60"/>
      <point x="109" y="151"/>
      <point x="109" y="279" type="curve" smooth="yes"/>
      <point x="109" y="377"/>
      <point x="149" y="465"/>
      <point x="320" y="521" type="curve"/>
      <point x="348" y="543" type="line"/>
      <point x="426" y="588"/>
      <point x="481" y="634"/>
      <point x="578" y="766" type="curve"/>
      <point x="518" y="805" type="line"/>
      <point x="425" y="683"/>
      <point x="368" y="624"/>
      <point x="289" y="579" type="curve"/>
      <point x="140" y="524"/>
      <point x="36" y="442"/>
      <point x="36" y="277" type="curve" smooth="yes"/>
      <point x="36" y="94"/>
      <point x="149" y="-11"/>
    </contour>
    <contour>
      <point x="375" y="717" type="curve" smooth="yes"/>
      <point x="375" y="771"/>
      <point x="338" y="805"/>
      <point x="281" y="805" type="curve" smooth="yes"/>
      <point x="224" y="805"/>
      <point x="187" y="766"/>
      <point x="187" y="715" type="curve" smooth="yes"/>
      <point x="187" y="665"/>
      <point x="219" y="626"/>
      <point x="282" y="626" type="curve" smooth="yes"/>
      <point x="338" y="626"/>
      <point x="375" y="661"/>
    </contour>
    <contour>
      <point x="323" y="716" type="curve" smooth="yes"/>
      <point x="323" y="690"/>
      <point x="306" y="676"/>
      <point x="281" y="676" type="curve" smooth="yes"/>
      <point x="251" y="676"/>
      <point x="240" y="696"/>
      <point x="240" y="714" type="curve" smooth="yes"/>
      <point x="240" y="740"/>
      <point x="257" y="756"/>
      <point x="282" y="756" type="curve" smooth="yes"/>
      <point x="309" y="756"/>
      <point x="323" y="738"/>
    </contour>
    <contour>
      <point x="710" y="622" type="curve" smooth="yes"/>
      <point x="710" y="675"/>
      <point x="673" y="710"/>
      <point x="616" y="710" type="curve" smooth="yes"/>
      <point x="559" y="710"/>
      <point x="522" y="671"/>
      <point x="522" y="620" type="curve" smooth="yes"/>
      <point x="522" y="570"/>
      <point x="554" y="531"/>
      <point x="617" y="531" type="curve" smooth="yes"/>
      <point x="673" y="531"/>
      <point x="710" y="566"/>
    </contour>
    <contour>
      <point x="658" y="622" type="curve" smooth="yes"/>
      <point x="658" y="596"/>
      <point x="640" y="581"/>
      <point x="615" y="581" type="curve" smooth="yes"/>
      <point x="586" y="581"/>
      <point x="575" y="601"/>
      <point x="575" y="619" type="curve" smooth="yes"/>
      <point x="575" y="646"/>
      <point x="592" y="661"/>
      <point x="617" y="661" type="curve" smooth="yes"/>
      <point x="644" y="661"/>
      <point x="658" y="643"/>
    </contour>
  </outline>
</glyph>
<glyph name="usinh" format="2">
  <advance width="706"/>
  <unicode hex="0D8B"/>
  <outline>
    <contour>
      <point x="384" y="-211" type="curve" smooth="yes"/>
      <point x="559" y="-211"/>
      <point x="706" y="-124"/>
      <point x="706" y="46" type="curve" smooth="yes"/>
      <point x="706" y="60"/>
      <point x="705" y="73"/>
      <point x="704" y="81" type="curve"/>
      <point x="631" y="77" type="line"/>
      <point x="632" y="68"/>
      <point x="632" y="57"/>
      <point x="632" y="51" type="curve" smooth="yes"/>
      <point x="632" y="-83"/>
      <point x="517" y="-140"/>
      <point x="382" y="-140" type="curve" smooth="yes"/>
      <point x="198" y="-140"/>
      <point x="106" y="-39"/>
      <point x="106" y="111" type="curve" smooth="yes"/>
      <point x="106" y="198"/>
      <point x="130" y="258"/>
      <point x="175" y="301" type="curve" smooth="yes"/>
      <point x="243" y="366"/>
      <point x="351" y="389"/>
      <point x="542" y="389" type="curve" smooth="yes"/>
      <point x="655" y="389" type="line"/>
      <point x="655" y="430" type="line" smooth="yes"/>
      <point x="655" y="549"/>
      <point x="594" y="612"/>
      <point x="475" y="612" type="curve" smooth="yes"/>
      <point x="382" y="612"/>
      <point x="328" y="572"/>
      <point x="328" y="499" type="curve" smooth="yes"/>
      <point x="328" y="491"/>
      <point x="328" y="480"/>
      <point x="330" y="468" type="curve"/>
      <point x="401" y="477" type="line"/>
      <point x="401" y="481"/>
      <point x="400" y="487"/>
      <point x="400" y="492" type="curve" smooth="yes"/>
      <point x="400" y="525"/>
      <point x="419" y="546"/>
      <point x="479" y="546" type="curve" smooth="yes"/>
      <point x="543" y="546"/>
      <point x="580" y="517"/>
      <point x="584" y="455" type="curve"/>
      <point x="506" y="455" type="line" smooth="yes"/>
      <point x="328" y="455"/>
      <point x="216" y="428"/>
      <point x="133" y="360" type="curve" smooth="yes"/>
      <point x="69" y="307"/>
      <point x="31" y="228"/>
      <point x="31" y="114" type="curve" smooth="yes"/>
      <point x="31" y="-58"/>
      <point x="123" y="-211"/>
    </contour>
  </outline>
</glyph>
<glyph name="lvocalicsinh" format="2">
  <advance width="1058"/>
  <unicode hex="0D8F"/>
  <outline>
    <contour>
      <point x="528" y="-11" type="curve" smooth="yes"/>
      <point x="771" y="-11"/>
      <point x="888" y="87"/>
      <point x="888" y="251" type="curve" smooth="yes"/>
      <point x="888" y="382"/>
      <point x="808" y="455"/>
      <point x="632" y="455" type="curve" smooth="yes"/>
      <point x="612" y="455" type="line"/>
      <point x="616" y="452" type="line"/>
      <point x="618" y="517"/>
      <point x="658" y="546"/>
      <point x="709" y="546" type="curve" smooth="yes"/>
      <point x="760" y="546"/>
      <point x="785" y="526"/>
      <point x="785" y="487" type="curve" smooth="yes"/>
      <point x="785" y="480"/>
      <point x="783" y="465"/>
      <point x="781" y="458" type="curve"/>
      <point x="852" y="446" type="line"/>
      <point x="855" y="462"/>
      <point x="856" y="479"/>
      <point x="856" y="495" type="curve" smooth="yes"/>
      <point x="856" y="557"/>
      <point x="803" y="612"/>
      <point x="714" y="612" type="curve" smooth="yes"/>
      <point x="606" y="612"/>
      <point x="545" y="549"/>
      <point x="545" y="430" type="curve" smooth="yes"/>
      <point x="545" y="389" type="line"/>
      <point x="609" y="389" type="line" smooth="yes"/>
      <point x="700" y="389"/>
      <point x="745" y="378"/>
      <point x="776" y="351" type="curve" smooth="yes"/>
      <point x="801" y="329"/>
      <point x="815" y="296"/>
      <point x="815" y="249" type="curve" smooth="yes"/>
      <point x="815" y="141"/>
      <point x="731" y="60"/>
      <point x="529" y="60" type="curve" smooth="yes"/>
      <point x="326" y="60"/>
      <point x="243" y="142"/>
      <point x="243" y="249" type="curve" smooth="yes"/>
      <point x="243" y="296"/>
      <point x="257" y="329"/>
      <point x="282" y="351" type="curve" smooth="yes"/>
      <point x="313" y="378"/>
      <point x="358" y="389"/>
      <point x="448" y="389" type="curve" smooth="yes"/>
      <point x="513" y="389" type="line"/>
      <point x="513" y="430" type="line" smooth="yes"/>
      <point x="513" y="549"/>
      <point x="452" y="612"/>
      <point x="344" y="612" type="curve" smooth="yes"/>
      <point x="254" y="612"/>
      <point x="202" y="558"/>
      <point x="202" y="495" type="curve" smooth="yes"/>
      <point x="202" y="479"/>
      <point x="203" y="462"/>
      <point x="207" y="446" type="curve"/>
      <point x="277" y="458" type="line"/>
      <point x="275" y="465"/>
      <point x="273" y="480"/>
      <point x="273" y="487" type="curve" smooth="yes"/>
      <point x="273" y="526"/>
      <point x="299" y="546"/>
      <point x="350" y="546" type="curve" smooth="yes"/>
      <point x="401" y="546"/>
      <point x="440" y="517"/>
      <point x="442" y="452" type="curve"/>
      <point x="449" y="455" type="line"/>
      <point x="427" y="455" type="line" smooth="yes"/>
      <point x="253" y="455"/>
      <point x="170" y="383"/>
      <point x="170" y="251" type="curve" smooth="yes"/>
      <point x="170" y="89"/>
      <point x="287" y="-11"/>
    </contour>
    <contour>
      <point x="36" y="315" type="curve" smooth="yes"/>
      <point x="36" y="221"/>
      <point x="64" y="140"/>
      <point x="99" y="83" type="curve"/>
      <point x="165" y="119" type="line"/>
      <point x="126" y="173"/>
      <point x="109" y="240"/>
      <point x="109" y="312" type="curve" smooth="yes"/>
      <point x="109" y="440"/>
      <point x="165" y="517"/>
      <point x="265" y="545" type="curve" smooth="yes"/>
      <point x="272" y="547"/>
      <point x="298" y="549"/>
      <point x="331" y="549" type="curve" smooth="yes"/>
      <point x="335" y="549"/>
      <point x="350" y="547"/>
      <point x="357" y="547" type="curve"/>
      <point x="417" y="592" type="line"/>
      <point x="385" y="605"/>
      <point x="352" y="612"/>
      <point x="332" y="612" type="curve" smooth="yes"/>
      <point x="165" y="612"/>
      <point x="36" y="513"/>
    </contour>
    <contour>
      <point x="1022" y="315" type="curve" smooth="yes"/>
      <point x="1022" y="513"/>
      <point x="893" y="612"/>
      <point x="727" y="612" type="curve" smooth="yes"/>
      <point x="707" y="612"/>
      <point x="673" y="605"/>
      <point x="642" y="592" type="curve"/>
      <point x="701" y="547" type="line"/>
      <point x="708" y="547"/>
      <point x="723" y="549"/>
      <point x="727" y="549" type="curve" smooth="yes"/>
      <point x="760" y="549"/>
      <point x="786" y="547"/>
      <point x="793" y="545" type="curve" smooth="yes"/>
      <point x="894" y="517"/>
      <point x="949" y="440"/>
      <point x="949" y="312" type="curve" smooth="yes"/>
      <point x="949" y="240"/>
      <point x="932" y="173"/>
      <point x="894" y="119" type="curve"/>
      <point x="959" y="83" type="line"/>
      <point x="994" y="140"/>
      <point x="1022" y="221"/>
    </contour>
  </outline>
</glyph>
<glyph name="esinh" format="2">
  <advance width="814"/>
  <unicode hex="0D91"/>
  <outline>
    <contour>
      <point x="358" y="-11" type="curve" smooth="yes"/>
      <point x="658" y="-11"/>
      <point x="779" y="176"/>
      <point x="779" y="399" type="curve" smooth="yes"/>
      <point x="779" y="592"/>
      <point x="670" y="758"/>
      <point x="423" y="836" type="curve"/>
      <point x="398" y="776" type="line"/>
      <point x="421" y="768"/>
      <point x="443" y="759"/>
      <point x="463" y="750" type="curve"/>
      <point x="618" y="680"/>
      <point x="704" y="570"/>
      <point x="704" y="404" type="curve" smooth="yes"/>
      <point x="704" y="242"/>
      <point x="625" y="60"/>
      <point x="361" y="60" type="curve" smooth="yes"/>
      <point x="197" y="60"/>
      <point x="122" y="132"/>
      <point x="122" y="232" type="curve" smooth="yes"/>
      <point x="122" y="284"/>
      <point x="138" y="320"/>
      <point x="167" y="344" type="curve" smooth="yes"/>
      <point x="208" y="378"/>
      <point x="257" y="389"/>
      <point x="362" y="389" type="curve" smooth="yes"/>
      <point x="442" y="389" type="line"/>
      <point x="442" y="430" type="line" smooth="yes"/>
      <point x="442" y="549"/>
      <point x="381" y="612"/>
      <point x="273" y="612" type="curve" smooth="yes"/>
      <point x="184" y="612"/>
      <point x="129" y="572"/>
      <point x="129" y="496" type="curve" smooth="yes"/>
      <point x="129" y="490"/>
      <point x="130" y="481"/>
      <point x="131" y="474" type="curve"/>
      <point x="203" y="478" type="line"/>
      <point x="202" y="482"/>
      <point x="202" y="487"/>
      <point x="202" y="491" type="curve" smooth="yes"/>
      <point x="202" y="526"/>
      <point x="228" y="546"/>
      <point x="279" y="546" type="curve" smooth="yes"/>
      <point x="330" y="546"/>
      <point x="368" y="517"/>
      <point x="372" y="455" type="curve"/>
      <point x="30" y="455" type="line"/>
      <point x="30" y="389" type="line"/>
      <point x="55" y="389" type="line" smooth="yes"/>
      <point x="83" y="389"/>
      <point x="139" y="391"/>
      <point x="179" y="398" type="curve"/>
      <point x="224" y="420" type="line"/>
      <point x="106" y="398"/>
      <point x="49" y="325"/>
      <point x="49" y="227" type="curve" smooth="yes"/>
      <point x="49" y="90"/>
      <point x="155" y="-11"/>
    </contour>
    <contour>
      <point x="547" y="523" type="curve" smooth="yes"/>
      <point x="614" y="523"/>
      <point x="660" y="569"/>
      <point x="678" y="611" type="curve"/>
      <point x="637" y="661" type="line"/>
      <point x="614" y="609"/>
      <point x="589" y="589"/>
      <point x="552" y="589" type="curve" smooth="yes"/>
      <point x="510" y="589"/>
      <point x="500" y="614"/>
      <point x="498" y="662" type="curve" smooth="yes"/>
      <point x="495" y="734"/>
      <point x="481" y="767"/>
      <point x="432" y="800" type="curve"/>
      <point x="400" y="775" type="line"/>
      <point x="424" y="761"/>
      <point x="429" y="747"/>
      <point x="429" y="664" type="curve" smooth="yes"/>
      <point x="429" y="570"/>
      <point x="470" y="523"/>
    </contour>
  </outline>
</glyph>
<glyph name="eesinh" format="2">
  <advance width="814"/>
  <unicode hex="0D92"/>
  <outline>
    <contour>
      <point x="674" y="664" type="line"/>
      <point x="674" y="853" type="line"/>
      <point x="651" y="914" type="line"/>
      <point x="642" y="943"/>
      <point x="623" y="961"/>
      <point x="582" y="973" type="curve"/>
      <point x="556" y="912" type="line"/>
      <point x="578" y="904"/>
      <point x="590" y="893"/>
      <point x="597" y="878" type="curve" smooth="yes"/>
      <point x="603" y="866"/>
      <point x="606" y="847"/>
      <point x="606" y="816" type="curve" smooth="yes"/>
      <point x="606" y="801" type="line" smooth="yes"/>
      <point x="606" y="764"/>
      <point x="609" y="723"/>
      <point x="611" y="689" type="curve"/>
    </contour>
    <contour>
      <point x="707" y="781" type="curve" smooth="yes"/>
      <point x="780" y="781"/>
      <point x="814" y="821"/>
      <point x="814" y="880" type="curve" smooth="yes"/>
      <point x="814" y="942"/>
      <point x="776" y="973"/>
      <point x="725" y="973" type="curve" smooth="yes"/>
      <point x="676" y="973"/>
      <point x="648" y="941"/>
      <point x="639" y="904" type="curve"/>
      <point x="674" y="844" type="line"/>
      <point x="674" y="857" type="line" smooth="yes"/>
      <point x="674" y="894"/>
      <point x="683" y="917"/>
      <point x="720" y="917" type="curve" smooth="yes"/>
      <point x="741" y="917"/>
      <point x="756" y="904"/>
      <point x="756" y="879" type="curve" smooth="yes"/>
      <point x="756" y="851"/>
      <point x="739" y="837"/>
      <point x="702" y="837" type="curve" smooth="yes"/>
      <point x="675" y="837"/>
      <point x="648" y="845"/>
      <point x="631" y="852" type="curve"/>
      <point x="616" y="801" type="line"/>
      <point x="633" y="792"/>
      <point x="661" y="781"/>
    </contour>
    <component base="esinh"/>
  </outline>
</glyph>
<glyph name="osinh" format="2">
  <advance width="877"/>
  <unicode hex="0D94"/>
  <outline>
    <contour>
      <point x="589" y="-11" type="curve" smooth="yes"/>
      <point x="732" y="-11"/>
      <point x="836" y="81"/>
      <point x="836" y="348" type="curve" smooth="yes"/>
      <point x="836" y="679"/>
      <point x="674" y="836"/>
      <point x="407" y="836" type="curve" smooth="yes"/>
      <point x="265" y="836"/>
      <point x="158" y="806"/>
      <point x="61" y="751" type="curve"/>
      <point x="93" y="686" type="line"/>
      <point x="180" y="735"/>
      <point x="271" y="766"/>
      <point x="401" y="766" type="curve" smooth="yes"/>
      <point x="645" y="766"/>
      <point x="761" y="616"/>
      <point x="761" y="346" type="curve" smooth="yes"/>
      <point x="761" y="125"/>
      <point x="684" y="60"/>
      <point x="588" y="60" type="curve" smooth="yes"/>
      <point x="485" y="60"/>
      <point x="459" y="120"/>
      <point x="455" y="191" type="curve"/>
      <point x="388" y="191" type="line"/>
      <point x="382" y="116"/>
      <point x="353" y="60"/>
      <point x="261" y="60" type="curve" smooth="yes"/>
      <point x="167" y="60"/>
      <point x="114" y="118"/>
      <point x="114" y="272" type="curve" smooth="yes"/>
      <point x="114" y="417"/>
      <point x="172" y="510"/>
      <point x="222" y="510" type="curve" smooth="yes"/>
      <point x="248" y="510"/>
      <point x="251" y="493"/>
      <point x="251" y="475" type="curve" smooth="yes"/>
      <point x="251" y="453"/>
      <point x="242" y="421"/>
      <point x="242" y="382" type="curve" smooth="yes"/>
      <point x="242" y="301"/>
      <point x="289" y="229"/>
      <point x="425" y="229" type="curve" smooth="yes"/>
      <point x="547" y="229"/>
      <point x="624" y="301"/>
      <point x="624" y="413" type="curve" smooth="yes"/>
      <point x="624" y="534"/>
      <point x="548" y="576"/>
      <point x="479" y="576" type="curve" smooth="yes"/>
      <point x="387" y="576"/>
      <point x="349" y="521"/>
      <point x="349" y="464" type="curve" smooth="yes"/>
      <point x="349" y="398"/>
      <point x="391" y="354"/>
      <point x="463" y="354" type="curve" smooth="yes"/>
      <point x="528" y="354"/>
      <point x="560" y="381"/>
      <point x="592" y="410" type="curve"/>
      <point x="580" y="455" type="line"/>
      <point x="543" y="427"/>
      <point x="516" y="416"/>
      <point x="474" y="416" type="curve" smooth="yes"/>
      <point x="440" y="416"/>
      <point x="419" y="434"/>
      <point x="419" y="464" type="curve" smooth="yes"/>
      <point x="419" y="496"/>
      <point x="441" y="512"/>
      <point x="478" y="512" type="curve" smooth="yes"/>
      <point x="525" y="512"/>
      <point x="556" y="475"/>
      <point x="556" y="414" type="curve" smooth="yes"/>
      <point x="556" y="330"/>
      <point x="502" y="294"/>
      <point x="425" y="294" type="curve" smooth="yes"/>
      <point x="341" y="294"/>
      <point x="312" y="333"/>
      <point x="312" y="385" type="curve" smooth="yes"/>
      <point x="312" y="431"/>
      <point x="322" y="460"/>
      <point x="322" y="497" type="curve" smooth="yes"/>
      <point x="322" y="530"/>
      <point x="305" y="576"/>
      <point x="238" y="576" type="curve" smooth="yes"/>
      <point x="107" y="576"/>
      <point x="41" y="432"/>
      <point x="41" y="271" type="curve" smooth="yes"/>
      <point x="41" y="75"/>
      <point x="136" y="-11"/>
      <point x="249" y="-11" type="curve" smooth="yes"/>
      <point x="340" y="-11"/>
      <point x="380" y="22"/>
      <point x="420" y="77" type="curve"/>
      <point x="456" y="29"/>
      <point x="503" y="-11"/>
    </contour>
  </outline>
</glyph>
<glyph name="oosinh" format="2">
  <advance width="877"/>
  <unicode hex="0D95"/>
  <outline>
    <contour>
      <point x="595" y="-11" type="curve" smooth="yes"/>
      <point x="732" y="-11"/>
      <point x="836" y="75"/>
      <point x="836" y="322" type="curve" smooth="yes"/>
      <point x="836" y="615"/>
      <point x="678" y="758"/>
      <point x="391" y="758" type="curve" smooth="yes"/>
      <point x="265" y="758"/>
      <point x="150" y="736"/>
      <point x="58" y="706" type="curve"/>
      <point x="78" y="640" type="line"/>
      <point x="166" y="668"/>
      <point x="258" y="688"/>
      <point x="395" y="688" type="curve" smooth="yes"/>
      <point x="645" y="688"/>
      <point x="761" y="551"/>
      <point x="761" y="322" type="curve" smooth="yes"/>
      <point x="761" y="124"/>
      <point x="686" y="61"/>
      <point x="591" y="61" type="curve" smooth="yes"/>
      <point x="485" y="61"/>
      <point x="459" y="120"/>
      <point x="455" y="191" type="curve"/>
      <point x="388" y="191" type="line"/>
      <point x="382" y="116"/>
      <point x="353" y="61"/>
      <point x="261" y="61" type="curve" smooth="yes"/>
      <point x="167" y="61"/>
      <point x="114" y="119"/>
      <point x="114" y="272" type="curve" smooth="yes"/>
      <point x="114" y="417"/>
      <point x="172" y="510"/>
      <point x="222" y="510" type="curve" smooth="yes"/>
      <point x="248" y="510"/>
      <point x="251" y="493"/>
      <point x="251" y="475" type="curve" smooth="yes"/>
      <point x="251" y="453"/>
      <point x="242" y="421"/>
      <point x="242" y="382" type="curve" smooth="yes"/>
      <point x="242" y="301"/>
      <point x="289" y="229"/>
      <point x="425" y="229" type="curve" smooth="yes"/>
      <point x="547" y="229"/>
      <point x="624" y="301"/>
      <point x="624" y="413" type="curve" smooth="yes"/>
      <point x="624" y="534"/>
      <point x="548" y="576"/>
      <point x="479" y="576" type="curve" smooth="yes"/>
      <point x="387" y="576"/>
      <point x="349" y="521"/>
      <point x="349" y="464" type="curve" smooth="yes"/>
      <point x="349" y="398"/>
      <point x="391" y="354"/>
      <point x="463" y="354" type="curve" smooth="yes"/>
      <point x="528" y="354"/>
      <point x="560" y="381"/>
      <point x="592" y="410" type="curve"/>
      <point x="580" y="455" type="line"/>
      <point x="543" y="427"/>
      <point x="516" y="416"/>
      <point x="474" y="416" type="curve" smooth="yes"/>
      <point x="440" y="416"/>
      <point x="419" y="434"/>
      <point x="419" y="464" type="curve" smooth="yes"/>
      <point x="419" y="496"/>
      <point x="441" y="512"/>
      <point x="478" y="512" type="curve" smooth="yes"/>
      <point x="525" y="512"/>
      <point x="556" y="475"/>
      <point x="556" y="414" type="curve" smooth="yes"/>
      <point x="556" y="330"/>
      <point x="502" y="294"/>
      <point x="425" y="294" type="curve" smooth="yes"/>
      <point x="341" y="294"/>
      <point x="312" y="333"/>
      <point x="312" y="385" type="curve" smooth="yes"/>
      <point x="312" y="431"/>
      <point x="322" y="460"/>
      <point x="322" y="497" type="curve" smooth="yes"/>
      <point x="322" y="530"/>
      <point x="305" y="576"/>
      <point x="238" y="576" type="curve" smooth="yes"/>
      <point x="107" y="576"/>
      <point x="41" y="432"/>
      <point x="41" y="274" type="curve" smooth="yes"/>
      <point x="41" y="74"/>
      <point x="136" y="-11"/>
      <point x="249" y="-11" type="curve" smooth="yes"/>
      <point x="340" y="-11"/>
      <point x="380" y="22"/>
      <point x="420" y="77" type="curve"/>
      <point x="456" y="29"/>
      <point x="503" y="-11"/>
    </contour>
    <contour>
      <point x="424" y="957" type="curve" smooth="yes"/>
      <point x="153" y="957"/>
      <point x="108" y="854"/>
      <point x="108" y="772" type="curve" smooth="yes"/>
      <point x="108" y="741"/>
      <point x="115" y="720"/>
      <point x="122" y="701" type="curve"/>
      <point x="189" y="712" type="line"/>
      <point x="183" y="731"/>
      <point x="180" y="753"/>
      <point x="180" y="770" type="curve" smooth="yes"/>
      <point x="180" y="820"/>
      <point x="203" y="887"/>
      <point x="425" y="887" type="curve" smooth="yes"/>
      <point x="646" y="887"/>
      <point x="698" y="832"/>
      <point x="698" y="769" type="curve" smooth="yes"/>
      <point x="698" y="737"/>
      <point x="693" y="719"/>
      <point x="684" y="698" type="curve"/>
      <point x="750" y="677" type="line"/>
      <point x="762" y="708"/>
      <point x="770" y="733"/>
      <point x="770" y="770" type="curve" smooth="yes"/>
      <point x="770" y="860"/>
      <point x="713" y="957"/>
    </contour>
  </outline>
</glyph>
<glyph name="khasinh" format="2">
  <advance width="878"/>
  <unicode hex="0D9B"/>
  <outline>
    <contour>
      <point x="250" y="-11" type="curve" smooth="yes"/>
      <point x="348" y="-11"/>
      <point x="395" y="39"/>
      <point x="395" y="116" type="curve" smooth="yes"/>
      <point x="395" y="176"/>
      <point x="354" y="234"/>
      <point x="267" y="234" type="curve" smooth="yes"/>
      <point x="201" y="234"/>
      <point x="150" y="196"/>
      <point x="114" y="152" type="curve"/>
      <point x="147" y="99" type="line"/>
      <point x="184" y="146"/>
      <point x="220" y="167"/>
      <point x="261" y="167" type="curve" smooth="yes"/>
      <point x="303" y="167"/>
      <point x="323" y="143"/>
      <point x="323" y="114" type="curve" smooth="yes"/>
      <point x="323" y="79"/>
      <point x="304" y="57"/>
      <point x="249" y="57" type="curve" smooth="yes"/>
      <point x="189" y="57"/>
      <point x="153" y="86"/>
      <point x="132" y="129" type="curve"/>
      <point x="114" y="163"/>
      <point x="109" y="204"/>
      <point x="109" y="247" type="curve" smooth="yes"/>
      <point x="109" y="395"/>
      <point x="198" y="486"/>
      <point x="332" y="486" type="curve" smooth="yes"/>
      <point x="457" y="486"/>
      <point x="514" y="408"/>
      <point x="514" y="308" type="curve" smooth="yes"/>
      <point x="514" y="203"/>
      <point x="469" y="122"/>
      <point x="390" y="36" type="curve"/>
      <point x="443" y="-11" type="line"/>
      <point x="524" y="87"/>
      <point x="586" y="185"/>
      <point x="586" y="313" type="curve" smooth="yes"/>
      <point x="586" y="444"/>
      <point x="513" y="555"/>
      <point x="333" y="555" type="curve" smooth="yes"/>
      <point x="154" y="555"/>
      <point x="36" y="431"/>
      <point x="36" y="246" type="curve" smooth="yes"/>
      <point x="36" y="104"/>
      <point x="116" y="-11"/>
    </contour>
    <contour>
      <point x="627" y="-11" type="curve" smooth="yes"/>
      <point x="733" y="-11"/>
      <point x="838" y="68"/>
      <point x="838" y="348" type="curve" smooth="yes"/>
      <point x="838" y="671"/>
      <point x="680" y="836"/>
      <point x="396" y="836" type="curve" smooth="yes"/>
      <point x="257" y="836"/>
      <point x="161" y="808"/>
      <point x="47" y="751" type="curve"/>
      <point x="81" y="686" type="line"/>
      <point x="177" y="741"/>
      <point x="274" y="766"/>
      <point x="394" y="766" type="curve" smooth="yes"/>
      <point x="652" y="766"/>
      <point x="762" y="607"/>
      <point x="762" y="345" type="curve" smooth="yes"/>
      <point x="762" y="115"/>
      <point x="688" y="59"/>
      <point x="630" y="59" type="curve" smooth="yes"/>
      <point x="589" y="59"/>
      <point x="567" y="79"/>
      <point x="563" y="138" type="curve"/>
      <point x="509" y="138" type="line"/>
      <point x="498" y="129" type="line"/>
      <point x="500" y="61"/>
      <point x="524" y="-11"/>
    </contour>
  </outline>
</glyph>
<glyph name="gasinh" format="2">
  <advance width="907"/>
  <unicode hex="0D9C"/>
  <outline>
    <contour>
      <point x="317" y="-11" type="curve" smooth="yes"/>
      <point x="479" y="-11"/>
      <point x="572" y="89"/>
      <point x="572" y="223" type="curve" smooth="yes"/>
      <point x="572" y="310"/>
      <point x="527" y="358"/>
      <point x="456" y="358" type="curve" smooth="yes"/>
      <point x="437" y="358"/>
      <point x="412" y="352"/>
      <point x="397" y="342" type="curve"/>
      <point x="407" y="341" type="line"/>
      <point x="449" y="498"/>
      <point x="526" y="541"/>
      <point x="611" y="541" type="curve" smooth="yes"/>
      <point x="730" y="541"/>
      <point x="794" y="442"/>
      <point x="794" y="309" type="curve" smooth="yes"/>
      <point x="794" y="161"/>
      <point x="728" y="66"/>
      <point x="579" y="66" type="curve" smooth="yes"/>
      <point x="562" y="66"/>
      <point x="545" y="67"/>
      <point x="536" y="68" type="curve"/>
      <point x="533" y="0" type="line"/>
      <point x="550" y="-2"/>
      <point x="568" y="-3"/>
      <point x="587" y="-3" type="curve" smooth="yes"/>
      <point x="753" y="-3"/>
      <point x="869" y="104"/>
      <point x="869" y="309" type="curve" smooth="yes"/>
      <point x="869" y="483"/>
      <point x="786" y="612"/>
      <point x="614" y="612" type="curve" smooth="yes"/>
      <point x="512" y="612"/>
      <point x="370" y="556"/>
      <point x="330" y="296" type="curve"/>
      <point x="401" y="274" type="line"/>
      <point x="417" y="287"/>
      <point x="433" y="292"/>
      <point x="450" y="292" type="curve" smooth="yes"/>
      <point x="479" y="292"/>
      <point x="499" y="274"/>
      <point x="499" y="224" type="curve" smooth="yes"/>
      <point x="499" y="128"/>
      <point x="436" y="60"/>
      <point x="317" y="60" type="curve" smooth="yes"/>
      <point x="177" y="60"/>
      <point x="113" y="156"/>
      <point x="113" y="291" type="curve" smooth="yes"/>
      <point x="113" y="451"/>
      <point x="181" y="543"/>
      <point x="337" y="543" type="curve" smooth="yes"/>
      <point x="352" y="543"/>
      <point x="367" y="542"/>
      <point x="380" y="541" type="curve"/>
      <point x="384" y="609" type="line"/>
      <point x="369" y="611"/>
      <point x="345" y="612"/>
      <point x="334" y="612" type="curve" smooth="yes"/>
      <point x="160" y="612"/>
      <point x="38" y="499"/>
      <point x="38" y="296" type="curve" smooth="yes"/>
      <point x="38" y="106"/>
      <point x="137" y="-11"/>
    </contour>
  </outline>
</glyph>
<glyph name="ghasinh" format="2">
  <advance width="824"/>
  <unicode hex="0D9D"/>
  <outline>
    <contour>
      <point x="250" y="-11" type="curve" smooth="yes"/>
      <point x="306" y="-11"/>
      <point x="346" y="-1"/>
      <point x="374" y="8" type="curve"/>
      <point x="356" y="72" type="line"/>
      <point x="319" y="60"/>
      <point x="298" y="56"/>
      <point x="256" y="56" type="curve" smooth="yes"/>
      <point x="170" y="56"/>
      <point x="116" y="103"/>
      <point x="116" y="204" type="curve" smooth="yes"/>
      <point x="116" y="268"/>
      <point x="138" y="311"/>
      <point x="173" y="340" type="curve" smooth="yes"/>
      <point x="232" y="389"/>
      <point x="312" y="389"/>
      <point x="382" y="389" type="curve" smooth="yes"/>
      <point x="402" y="389" type="line"/>
      <point x="402" y="430" type="line" smooth="yes"/>
      <point x="402" y="549"/>
      <point x="341" y="612"/>
      <point x="232" y="612" type="curve" smooth="yes"/>
      <point x="143" y="612"/>
      <point x="89" y="572"/>
      <point x="89" y="496" type="curve" smooth="yes"/>
      <point x="89" y="490"/>
      <point x="89" y="481"/>
      <point x="90" y="474" type="curve"/>
      <point x="163" y="478" type="line"/>
      <point x="162" y="482"/>
      <point x="162" y="486"/>
      <point x="162" y="489" type="curve" smooth="yes"/>
      <point x="162" y="525"/>
      <point x="187" y="546"/>
      <point x="238" y="546" type="curve" smooth="yes"/>
      <point x="290" y="546"/>
      <point x="328" y="517"/>
      <point x="331" y="455" type="curve"/>
      <point x="30" y="455" type="line"/>
      <point x="30" y="389" type="line"/>
      <point x="50" y="389" type="line" smooth="yes"/>
      <point x="89" y="389"/>
      <point x="141" y="389"/>
      <point x="187" y="397" type="curve"/>
      <point x="185" y="406" type="line"/>
      <point x="80" y="365"/>
      <point x="43" y="287"/>
      <point x="43" y="203" type="curve" smooth="yes"/>
      <point x="43" y="63"/>
      <point x="129" y="-11"/>
    </contour>
    <contour>
      <point x="583" y="-11" type="curve" smooth="yes"/>
      <point x="707" y="-11"/>
      <point x="788" y="63"/>
      <point x="788" y="208" type="curve" smooth="yes"/>
      <point x="788" y="402"/>
      <point x="648" y="455"/>
      <point x="498" y="455" type="curve" smooth="yes"/>
      <point x="489" y="455" type="line"/>
      <point x="505" y="452" type="line"/>
      <point x="507" y="517"/>
      <point x="546" y="546"/>
      <point x="598" y="546" type="curve" smooth="yes"/>
      <point x="648" y="546"/>
      <point x="674" y="526"/>
      <point x="674" y="487" type="curve" smooth="yes"/>
      <point x="674" y="480"/>
      <point x="672" y="465"/>
      <point x="670" y="458" type="curve"/>
      <point x="740" y="446" type="line"/>
      <point x="744" y="462"/>
      <point x="747" y="479"/>
      <point x="747" y="496" type="curve" smooth="yes"/>
      <point x="747" y="572"/>
      <point x="692" y="612"/>
      <point x="603" y="612" type="curve" smooth="yes"/>
      <point x="495" y="612"/>
      <point x="434" y="549"/>
      <point x="434" y="430" type="curve" smooth="yes"/>
      <point x="434" y="389" type="line"/>
      <point x="460" y="389" type="line" smooth="yes"/>
      <point x="550" y="389"/>
      <point x="609" y="376"/>
      <point x="649" y="351" type="curve" smooth="yes"/>
      <point x="697" y="321"/>
      <point x="714" y="273"/>
      <point x="714" y="208" type="curve" smooth="yes"/>
      <point x="714" y="114"/>
      <point x="674" y="56"/>
      <point x="575" y="56" type="curve" smooth="yes"/>
      <point x="532" y="56"/>
      <point x="507" y="62"/>
      <point x="477" y="71" type="curve"/>
      <point x="457" y="8" type="line"/>
      <point x="484" y="-1"/>
      <point x="524" y="-11"/>
    </contour>
    <contour>
      <point x="416" y="173" type="curve" smooth="yes"/>
      <point x="471" y="173"/>
      <point x="493" y="152"/>
      <point x="493" y="122" type="curve" smooth="yes"/>
      <point x="493" y="94"/>
      <point x="475" y="81"/>
      <point x="449" y="74" type="curve"/>
      <point x="457" y="8" type="line"/>
      <point x="494" y="43" type="line"/>
      <point x="540" y="63"/>
      <point x="563" y="94"/>
      <point x="563" y="133" type="curve" smooth="yes"/>
      <point x="563" y="203"/>
      <point x="506" y="242"/>
      <point x="419" y="242" type="curve" smooth="yes"/>
      <point x="412" y="242" type="line" smooth="yes"/>
      <point x="323" y="242"/>
      <point x="267" y="202"/>
      <point x="267" y="135" type="curve" smooth="yes"/>
      <point x="267" y="94"/>
      <point x="292" y="61"/>
      <point x="337" y="43" type="curve"/>
      <point x="374" y="8" type="line"/>
      <point x="381" y="74" type="line"/>
      <point x="356" y="81"/>
      <point x="337" y="94"/>
      <point x="337" y="122" type="curve" smooth="yes"/>
      <point x="337" y="152"/>
      <point x="360" y="173"/>
    </contour>
  </outline>
</glyph>
<glyph name="ngasinh" format="2">
  <advance width="891"/>
  <unicode hex="0D9E"/>
  <outline>
    <contour>
      <point x="606" y="-11" type="curve" smooth="yes"/>
      <point x="748" y="-11"/>
      <point x="850" y="83"/>
      <point x="850" y="348" type="curve" smooth="yes"/>
      <point x="850" y="684"/>
      <point x="687" y="836"/>
      <point x="425" y="836" type="curve" smooth="yes"/>
      <point x="283" y="836"/>
      <point x="183" y="804"/>
      <point x="84" y="751" type="curve"/>
      <point x="117" y="686" type="line"/>
      <point x="203" y="736"/>
      <point x="297" y="766"/>
      <point x="420" y="766" type="curve" smooth="yes"/>
      <point x="657" y="766"/>
      <point x="775" y="620"/>
      <point x="775" y="345" type="curve" smooth="yes"/>
      <point x="775" y="131"/>
      <point x="702" y="60"/>
      <point x="605" y="60" type="curve" smooth="yes"/>
      <point x="509" y="60"/>
      <point x="479" y="122"/>
      <point x="479" y="208" type="curve" smooth="yes"/>
      <point x="479" y="214" type="line"/>
      <point x="411" y="214" type="line"/>
      <point x="411" y="208" type="line" smooth="yes"/>
      <point x="411" y="119"/>
      <point x="381" y="60"/>
      <point x="277" y="60" type="curve" smooth="yes"/>
      <point x="195" y="60"/>
      <point x="148" y="101"/>
      <point x="148" y="183" type="curve" smooth="yes"/>
      <point x="148" y="267"/>
      <point x="211" y="307"/>
      <point x="288" y="330" type="curve"/>
      <point x="340" y="345" type="line" smooth="yes"/>
      <point x="467" y="382"/>
      <point x="493" y="414"/>
      <point x="493" y="478" type="curve" smooth="yes"/>
      <point x="493" y="576"/>
      <point x="396" y="612"/>
      <point x="256" y="612" type="curve" smooth="yes"/>
      <point x="97" y="612"/>
      <point x="25" y="553"/>
      <point x="25" y="471" type="curve" smooth="yes"/>
      <point x="25" y="401"/>
      <point x="74" y="362"/>
      <point x="144" y="362" type="curve" smooth="yes"/>
      <point x="199" y="362"/>
      <point x="267" y="389"/>
      <point x="267" y="474" type="curve" smooth="yes"/>
      <point x="267" y="495"/>
      <point x="260" y="531"/>
      <point x="239" y="555" type="curve"/>
      <point x="172" y="549" type="line"/>
      <point x="194" y="529"/>
      <point x="199" y="496"/>
      <point x="199" y="478" type="curve" smooth="yes"/>
      <point x="199" y="446"/>
      <point x="182" y="427"/>
      <point x="147" y="427" type="curve" smooth="yes"/>
      <point x="109" y="427"/>
      <point x="96" y="450"/>
      <point x="96" y="477" type="curve" smooth="yes"/>
      <point x="96" y="506"/>
      <point x="121" y="541"/>
      <point x="207" y="544" type="curve"/>
      <point x="219" y="546"/>
      <point x="232" y="546"/>
      <point x="255" y="546" type="curve" smooth="yes"/>
      <point x="346" y="546"/>
      <point x="420" y="532"/>
      <point x="420" y="479" type="curve" smooth="yes"/>
      <point x="420" y="438"/>
      <point x="393" y="427"/>
      <point x="321" y="406" type="curve" smooth="yes"/>
      <point x="290" y="397" type="line" smooth="yes"/>
      <point x="229" y="379"/>
      <point x="164" y="352"/>
      <point x="127" y="316" type="curve" smooth="yes"/>
      <point x="94" y="284"/>
      <point x="75" y="242"/>
      <point x="75" y="183" type="curve" smooth="yes"/>
      <point x="75" y="58"/>
      <point x="157" y="-11"/>
      <point x="275" y="-11" type="curve" smooth="yes"/>
      <point x="366" y="-11"/>
      <point x="410" y="28"/>
      <point x="444" y="77" type="curve"/>
      <point x="479" y="29"/>
      <point x="525" y="-11"/>
    </contour>
  </outline>
</glyph>
<glyph name="casinh" format="2">
  <advance width="814"/>
  <unicode hex="0DA0"/>
  <outline>
    <contour>
      <point x="361" y="-11" type="curve" smooth="yes"/>
      <point x="656" y="-11"/>
      <point x="779" y="183"/>
      <point x="779" y="418" type="curve" smooth="yes"/>
      <point x="779" y="716"/>
      <point x="585" y="836"/>
      <point x="374" y="836" type="curve" smooth="yes"/>
      <point x="249" y="836"/>
      <point x="137" y="802"/>
      <point x="48" y="751" type="curve"/>
      <point x="81" y="686" type="line"/>
      <point x="167" y="737"/>
      <point x="253" y="766"/>
      <point x="374" y="766" type="curve" smooth="yes"/>
      <point x="522" y="766"/>
      <point x="704" y="687"/>
      <point x="704" y="418" type="curve" smooth="yes"/>
      <point x="704" y="248"/>
      <point x="625" y="60"/>
      <point x="361" y="60" type="curve" smooth="yes"/>
      <point x="197" y="60"/>
      <point x="122" y="131"/>
      <point x="122" y="232" type="curve" smooth="yes"/>
      <point x="122" y="284"/>
      <point x="138" y="320"/>
      <point x="167" y="344" type="curve" smooth="yes"/>
      <point x="208" y="378"/>
      <point x="257" y="389"/>
      <point x="362" y="389" type="curve" smooth="yes"/>
      <point x="462" y="389" type="line"/>
      <point x="462" y="430" type="line" smooth="yes"/>
      <point x="462" y="549"/>
      <point x="401" y="612"/>
      <point x="293" y="612" type="curve" smooth="yes"/>
      <point x="204" y="612"/>
      <point x="149" y="572"/>
      <point x="149" y="496" type="curve" smooth="yes"/>
      <point x="149" y="490"/>
      <point x="150" y="481"/>
      <point x="151" y="474" type="curve"/>
      <point x="223" y="478" type="line"/>
      <point x="222" y="482"/>
      <point x="222" y="487"/>
      <point x="222" y="491" type="curve" smooth="yes"/>
      <point x="222" y="526"/>
      <point x="248" y="546"/>
      <point x="299" y="546" type="curve" smooth="yes"/>
      <point x="350" y="546"/>
      <point x="388" y="517"/>
      <point x="392" y="455" type="curve"/>
      <point x="30" y="455" type="line"/>
      <point x="30" y="389" type="line"/>
      <point x="55" y="389" type="line" smooth="yes"/>
      <point x="83" y="389"/>
      <point x="139" y="390"/>
      <point x="179" y="398" type="curve"/>
      <point x="224" y="420" type="line"/>
      <point x="106" y="398"/>
      <point x="49" y="325"/>
      <point x="49" y="227" type="curve" smooth="yes"/>
      <point x="49" y="90"/>
      <point x="153" y="-11"/>
    </contour>
  </outline>
</glyph>
<glyph name="chasinh" format="2">
  <advance width="800"/>
  <unicode hex="0DA1"/>
  <outline>
    <contour>
      <point x="394" y="-11" type="curve" smooth="yes"/>
      <point x="649" y="-11"/>
      <point x="764" y="89"/>
      <point x="764" y="251" type="curve" smooth="yes"/>
      <point x="764" y="381"/>
      <point x="679" y="455"/>
      <point x="506" y="455" type="curve" smooth="yes"/>
      <point x="468" y="455" type="line"/>
      <point x="477" y="447" type="line"/>
      <point x="482" y="509"/>
      <point x="516" y="551"/>
      <point x="572" y="551" type="curve" smooth="yes"/>
      <point x="625" y="551"/>
      <point x="653" y="516"/>
      <point x="653" y="447" type="curve" smooth="yes"/>
      <point x="653" y="357"/>
      <point x="629" y="302"/>
      <point x="559" y="302" type="curve" smooth="yes"/>
      <point x="515" y="302"/>
      <point x="478" y="322"/>
      <point x="478" y="410" type="curve" smooth="yes"/>
      <point x="457" y="440" type="line"/>
      <point x="506" y="559" type="line"/>
      <point x="566" y="652"/>
      <point x="682" y="714"/>
      <point x="774" y="747" type="curve"/>
      <point x="745" y="810" type="line"/>
      <point x="567" y="744"/>
      <point x="410" y="607"/>
      <point x="410" y="420" type="curve" smooth="yes"/>
      <point x="410" y="281"/>
      <point x="478" y="236"/>
      <point x="553" y="236" type="curve" smooth="yes"/>
      <point x="626" y="236"/>
      <point x="669" y="272"/>
      <point x="695" y="323" type="curve"/>
      <point x="705" y="338" type="line"/>
      <point x="716" y="368"/>
      <point x="723" y="402"/>
      <point x="723" y="449" type="curve" smooth="yes"/>
      <point x="723" y="550"/>
      <point x="677" y="612"/>
      <point x="589" y="612" type="curve" smooth="yes"/>
      <point x="515" y="612"/>
      <point x="447" y="528"/>
      <point x="447" y="430" type="curve" smooth="yes"/>
      <point x="447" y="389" type="line"/>
      <point x="498" y="389" type="line" smooth="yes"/>
      <point x="573" y="389"/>
      <point x="626" y="377"/>
      <point x="658" y="346" type="curve"/>
      <point x="672" y="331" type="line"/>
      <point x="686" y="310"/>
      <point x="691" y="282"/>
      <point x="691" y="249" type="curve" smooth="yes"/>
      <point x="691" y="137"/>
      <point x="607" y="60"/>
      <point x="395" y="60" type="curve" smooth="yes"/>
      <point x="191" y="60"/>
      <point x="109" y="142"/>
      <point x="109" y="249" type="curve" smooth="yes"/>
      <point x="109" y="296"/>
      <point x="123" y="329"/>
      <point x="147" y="350" type="curve" smooth="yes"/>
      <point x="179" y="378"/>
      <point x="224" y="389"/>
      <point x="314" y="389" type="curve" smooth="yes"/>
      <point x="379" y="389" type="line"/>
      <point x="379" y="430" type="line" smooth="yes"/>
      <point x="379" y="549"/>
      <point x="318" y="612"/>
      <point x="210" y="612" type="curve" smooth="yes"/>
      <point x="120" y="612"/>
      <point x="66" y="572"/>
      <point x="66" y="496" type="curve" smooth="yes"/>
      <point x="66" y="479"/>
      <point x="68" y="462"/>
      <point x="73" y="446" type="curve"/>
      <point x="143" y="458" type="line"/>
      <point x="141" y="465"/>
      <point x="139" y="480"/>
      <point x="139" y="487" type="curve" smooth="yes"/>
      <point x="139" y="526"/>
      <point x="165" y="546"/>
      <point x="215" y="546" type="curve" smooth="yes"/>
      <point x="267" y="546"/>
      <point x="306" y="517"/>
      <point x="308" y="452" type="curve"/>
      <point x="315" y="455" type="line"/>
      <point x="292" y="455" type="line" smooth="yes"/>
      <point x="119" y="455"/>
      <point x="36" y="383"/>
      <point x="36" y="251" type="curve" smooth="yes"/>
      <point x="36" y="89"/>
      <point x="153" y="-11"/>
    </contour>
  </outline>
</glyph>
<glyph name="jasinh" format="2">
  <advance width="790"/>
  <unicode hex="0DA2"/>
  <outline>
    <contour>
      <point x="394" y="-11" type="curve" smooth="yes"/>
      <point x="637" y="-11"/>
      <point x="754" y="89"/>
      <point x="754" y="251" type="curve" smooth="yes"/>
      <point x="754" y="381"/>
      <point x="672" y="455"/>
      <point x="504" y="455" type="curve" smooth="yes"/>
      <point x="473" y="455" type="line"/>
      <point x="479" y="452" type="line"/>
      <point x="480" y="515"/>
      <point x="524" y="548"/>
      <point x="585" y="548" type="curve" smooth="yes"/>
      <point x="632" y="548"/>
      <point x="651" y="523"/>
      <point x="651" y="498" type="curve" smooth="yes"/>
      <point x="651" y="463"/>
      <point x="632" y="454"/>
      <point x="612" y="454" type="curve" smooth="yes"/>
      <point x="578" y="454"/>
      <point x="559" y="473"/>
      <point x="559" y="520" type="curve" smooth="yes"/>
      <point x="559" y="548"/>
      <point x="560" y="568"/>
      <point x="566" y="586" type="curve"/>
      <point x="569" y="601" type="line"/>
      <point x="599" y="675"/>
      <point x="678" y="720"/>
      <point x="759" y="747" type="curve"/>
      <point x="729" y="810" type="line"/>
      <point x="601" y="764"/>
      <point x="493" y="666"/>
      <point x="493" y="543" type="curve" smooth="yes"/>
      <point x="493" y="541" type="line" smooth="yes"/>
      <point x="493" y="470"/>
      <point x="518" y="409"/>
      <point x="607" y="409" type="curve" smooth="yes"/>
      <point x="673" y="409"/>
      <point x="724" y="428"/>
      <point x="724" y="505" type="curve" smooth="yes"/>
      <point x="724" y="571"/>
      <point x="672" y="612"/>
      <point x="595" y="612" type="curve" smooth="yes"/>
      <point x="574" y="612"/>
      <point x="559" y="607"/>
      <point x="547" y="605" type="curve"/>
      <point x="525" y="604" type="line"/>
      <point x="454" y="583"/>
      <point x="411" y="524"/>
      <point x="411" y="430" type="curve" smooth="yes"/>
      <point x="411" y="389" type="line"/>
      <point x="475" y="389" type="line" smooth="yes"/>
      <point x="566" y="389"/>
      <point x="611" y="378"/>
      <point x="642" y="351" type="curve" smooth="yes"/>
      <point x="667" y="329"/>
      <point x="681" y="296"/>
      <point x="681" y="249" type="curve" smooth="yes"/>
      <point x="681" y="141"/>
      <point x="597" y="60"/>
      <point x="395" y="60" type="curve" smooth="yes"/>
      <point x="191" y="60"/>
      <point x="109" y="142"/>
      <point x="109" y="249" type="curve" smooth="yes"/>
      <point x="109" y="295"/>
      <point x="123" y="329"/>
      <point x="148" y="351" type="curve" smooth="yes"/>
      <point x="179" y="378"/>
      <point x="224" y="389"/>
      <point x="315" y="389" type="curve" smooth="yes"/>
      <point x="379" y="389" type="line"/>
      <point x="379" y="430" type="line" smooth="yes"/>
      <point x="379" y="549"/>
      <point x="318" y="612"/>
      <point x="210" y="612" type="curve" smooth="yes"/>
      <point x="120" y="612"/>
      <point x="66" y="572"/>
      <point x="66" y="496" type="curve" smooth="yes"/>
      <point x="66" y="479"/>
      <point x="68" y="462"/>
      <point x="73" y="446" type="curve"/>
      <point x="143" y="458" type="line"/>
      <point x="141" y="465"/>
      <point x="139" y="480"/>
      <point x="139" y="487" type="curve" smooth="yes"/>
      <point x="139" y="526"/>
      <point x="165" y="546"/>
      <point x="215" y="546" type="curve" smooth="yes"/>
      <point x="267" y="546"/>
      <point x="306" y="517"/>
      <point x="308" y="452" type="curve"/>
      <point x="315" y="455" type="line"/>
      <point x="292" y="455" type="line" smooth="yes"/>
      <point x="119" y="455"/>
      <point x="36" y="383"/>
      <point x="36" y="251" type="curve" smooth="yes"/>
      <point x="36" y="90"/>
      <point x="153" y="-11"/>
    </contour>
  </outline>
</glyph>
<glyph name="jhasinh" format="2">
  <advance width="1434"/>
  <unicode hex="0DA3"/>
  <outline>
    <contour>
      <point x="542" y="-11" type="curve" smooth="yes"/>
      <point x="653" y="-11"/>
      <point x="699" y="89"/>
      <point x="699" y="192" type="curve" smooth="yes"/>
      <point x="699" y="361"/>
      <point x="598" y="449"/>
      <point x="434" y="449" type="curve" smooth="yes"/>
      <point x="360" y="449"/>
      <point x="308" y="432"/>
      <point x="283" y="415" type="curve"/>
      <point x="186" y="334" type="line"/>
      <point x="280" y="372"/>
      <point x="328" y="380"/>
      <point x="420" y="380" type="curve" smooth="yes"/>
      <point x="568" y="380"/>
      <point x="640" y="309"/>
      <point x="640" y="191" type="curve" smooth="yes"/>
      <point x="640" y="119"/>
      <point x="615" y="60"/>
      <point x="537" y="60" type="curve" smooth="yes"/>
      <point x="468" y="60"/>
      <point x="432" y="120"/>
      <point x="432" y="204" type="curve" smooth="yes"/>
      <point x="432" y="214" type="line"/>
      <point x="365" y="214" type="line"/>
      <point x="365" y="208" type="line" smooth="yes"/>
      <point x="365" y="107"/>
      <point x="331" y="60"/>
      <point x="263" y="60" type="curve" smooth="yes"/>
      <point x="182" y="60"/>
      <point x="163" y="115"/>
      <point x="163" y="187" type="curve" smooth="yes"/>
      <point x="163" y="196"/>
      <point x="163" y="205"/>
      <point x="165" y="214" type="curve"/>
      <point x="103" y="214" type="line"/>
      <point x="100" y="200"/>
      <point x="98" y="184"/>
      <point x="98" y="170" type="curve" smooth="yes"/>
      <point x="98" y="22"/>
      <point x="192" y="-11"/>
      <point x="258" y="-11" type="curve" smooth="yes"/>
      <point x="323" y="-11"/>
      <point x="365" y="15"/>
      <point x="398" y="77" type="curve"/>
      <point x="426" y="27"/>
      <point x="470" y="-11"/>
    </contour>
    <contour>
      <point x="622" y="544" type="curve" smooth="yes"/>
      <point x="721" y="544"/>
      <point x="792" y="516"/>
      <point x="888" y="444" type="curve"/>
      <point x="931" y="491" type="line"/>
      <point x="868" y="547"/>
      <point x="770" y="612"/>
      <point x="626" y="612" type="curve" smooth="yes"/>
      <point x="495" y="612"/>
      <point x="396" y="583"/>
      <point x="277" y="480" type="curve"/>
      <point x="256" y="461" type="line"/>
      <point x="184" y="396"/>
      <point x="121" y="321"/>
      <point x="21" y="180" type="curve"/>
      <point x="85" y="144" type="line"/>
      <point x="110" y="188" type="line"/>
      <point x="129" y="208" type="line"/>
      <point x="185" y="287"/>
      <point x="239" y="356"/>
      <point x="294" y="410" type="curve"/>
      <point x="305" y="420" type="line"/>
      <point x="393" y="501"/>
      <point x="489" y="544"/>
    </contour>
    <contour>
      <point x="167" y="592" type="curve" smooth="yes"/>
      <point x="86" y="592"/>
      <point x="33" y="548"/>
      <point x="33" y="467" type="curve" smooth="yes"/>
      <point x="33" y="444"/>
      <point x="38" y="415"/>
      <point x="46" y="389" type="curve"/>
      <point x="116" y="403" type="line"/>
      <point x="111" y="421"/>
      <point x="105" y="437"/>
      <point x="105" y="459" type="curve" smooth="yes"/>
      <point x="105" y="506"/>
      <point x="131" y="526"/>
      <point x="168" y="526" type="curve" smooth="yes"/>
      <point x="226" y="526"/>
      <point x="244" y="465"/>
      <point x="252" y="398" type="curve"/>
      <point x="310" y="434" type="line"/>
      <point x="303" y="509"/>
      <point x="265" y="592"/>
    </contour>
    <contour>
      <point x="1155" y="-11" type="curve" smooth="yes"/>
      <point x="1294" y="-11"/>
      <point x="1394" y="83"/>
      <point x="1394" y="348" type="curve" smooth="yes"/>
      <point x="1394" y="684"/>
      <point x="1234" y="836"/>
      <point x="979" y="836" type="curve" smooth="yes"/>
      <point x="841" y="836"/>
      <point x="741" y="803"/>
      <point x="647" y="751" type="curve"/>
      <point x="680" y="686" type="line"/>
      <point x="765" y="738"/>
      <point x="850" y="766"/>
      <point x="975" y="766" type="curve" smooth="yes"/>
      <point x="1204" y="766"/>
      <point x="1319" y="620"/>
      <point x="1319" y="345" type="curve" smooth="yes"/>
      <point x="1319" y="130"/>
      <point x="1248" y="60"/>
      <point x="1154" y="60" type="curve" smooth="yes"/>
      <point x="1062" y="60"/>
      <point x="1032" y="122"/>
      <point x="1032" y="208" type="curve" smooth="yes"/>
      <point x="1032" y="214" type="line"/>
      <point x="965" y="214" type="line"/>
      <point x="965" y="208" type="line" smooth="yes"/>
      <point x="965" y="119"/>
      <point x="932" y="60"/>
      <point x="840" y="60" type="curve" smooth="yes"/>
      <point x="757" y="60"/>
      <point x="712" y="119"/>
      <point x="712" y="220" type="curve" smooth="yes"/>
      <point x="712" y="334"/>
      <point x="783" y="411"/>
      <point x="905" y="417" type="curve"/>
      <point x="931" y="491" type="line"/>
      <point x="896" y="479" type="line"/>
      <point x="718" y="474"/>
      <point x="650" y="354"/>
      <point x="650" y="226" type="curve" smooth="yes"/>
      <point x="650" y="64"/>
      <point x="728" y="-11"/>
      <point x="833" y="-11" type="curve" smooth="yes"/>
      <point x="919" y="-11"/>
      <point x="959" y="22"/>
      <point x="998" y="77" type="curve"/>
      <point x="1032" y="29"/>
      <point x="1076" y="-11"/>
    </contour>
  </outline>
</glyph>
<glyph name="ttasinh" format="2">
  <advance width="792"/>
  <unicode hex="0DA7"/>
  <outline>
    <contour>
      <point x="351" y="-11" type="curve" smooth="yes"/>
      <point x="637" y="-11"/>
      <point x="756" y="183"/>
      <point x="756" y="418" type="curve" smooth="yes"/>
      <point x="756" y="716"/>
      <point x="567" y="836"/>
      <point x="367" y="836" type="curve" smooth="yes"/>
      <point x="241" y="836"/>
      <point x="133" y="800"/>
      <point x="45" y="751" type="curve"/>
      <point x="78" y="686" type="line"/>
      <point x="161" y="735"/>
      <point x="252" y="766"/>
      <point x="362" y="766" type="curve" smooth="yes"/>
      <point x="505" y="766"/>
      <point x="681" y="687"/>
      <point x="681" y="418" type="curve" smooth="yes"/>
      <point x="681" y="249"/>
      <point x="605" y="60"/>
      <point x="351" y="60" type="curve" smooth="yes"/>
      <point x="178" y="60"/>
      <point x="109" y="134"/>
      <point x="109" y="238" type="curve" smooth="yes"/>
      <point x="109" y="369"/>
      <point x="206" y="418"/>
      <point x="324" y="418" type="curve" smooth="yes"/>
      <point x="370" y="418"/>
      <point x="392" y="416"/>
      <point x="423" y="411" type="curve"/>
      <point x="430" y="479" type="line"/>
      <point x="404" y="483"/>
      <point x="366" y="486"/>
      <point x="323" y="486" type="curve" smooth="yes"/>
      <point x="170" y="486"/>
      <point x="36" y="419"/>
      <point x="36" y="238" type="curve" smooth="yes"/>
      <point x="36" y="90"/>
      <point x="137" y="-11"/>
    </contour>
  </outline>
</glyph>
<glyph name="ddhasinh" format="2">
  <advance width="864"/>
  <unicode hex="0DAA"/>
  <outline>
    <contour>
      <point x="588" y="-11" type="curve" smooth="yes"/>
      <point x="725" y="-11"/>
      <point x="826" y="78"/>
      <point x="826" y="312" type="curve" smooth="yes"/>
      <point x="826" y="582"/>
      <point x="685" y="750"/>
      <point x="422" y="836" type="curve"/>
      <point x="396" y="775" type="line"/>
      <point x="412" y="769"/>
      <point x="427" y="764"/>
      <point x="442" y="758" type="curve" smooth="yes"/>
      <point x="630" y="682"/>
      <point x="750" y="560"/>
      <point x="750" y="314" type="curve" smooth="yes"/>
      <point x="750" y="119"/>
      <point x="679" y="60"/>
      <point x="585" y="60" type="curve" smooth="yes"/>
      <point x="481" y="60"/>
      <point x="451" y="122"/>
      <point x="451" y="208" type="curve" smooth="yes"/>
      <point x="451" y="214" type="line"/>
      <point x="384" y="214" type="line"/>
      <point x="384" y="208" type="line" smooth="yes"/>
      <point x="384" y="119"/>
      <point x="350" y="60"/>
      <point x="250" y="60" type="curve" smooth="yes"/>
      <point x="168" y="60"/>
      <point x="116" y="111"/>
      <point x="116" y="204" type="curve" smooth="yes"/>
      <point x="116" y="268"/>
      <point x="138" y="311"/>
      <point x="173" y="340" type="curve" smooth="yes"/>
      <point x="232" y="389"/>
      <point x="312" y="389"/>
      <point x="382" y="389" type="curve" smooth="yes"/>
      <point x="417" y="389" type="line"/>
      <point x="417" y="430" type="line" smooth="yes"/>
      <point x="417" y="549"/>
      <point x="356" y="612"/>
      <point x="248" y="612" type="curve" smooth="yes"/>
      <point x="158" y="612"/>
      <point x="104" y="572"/>
      <point x="104" y="496" type="curve" smooth="yes"/>
      <point x="104" y="490"/>
      <point x="104" y="481"/>
      <point x="105" y="474" type="curve"/>
      <point x="178" y="478" type="line"/>
      <point x="177" y="482"/>
      <point x="177" y="486"/>
      <point x="177" y="489" type="curve" smooth="yes"/>
      <point x="177" y="525"/>
      <point x="203" y="546"/>
      <point x="254" y="546" type="curve" smooth="yes"/>
      <point x="305" y="546"/>
      <point x="342" y="517"/>
      <point x="346" y="455" type="curve"/>
      <point x="30" y="455" type="line"/>
      <point x="30" y="389" type="line"/>
      <point x="50" y="389" type="line" smooth="yes"/>
      <point x="89" y="389"/>
      <point x="141" y="389"/>
      <point x="187" y="397" type="curve"/>
      <point x="185" y="406" type="line"/>
      <point x="80" y="365"/>
      <point x="43" y="287"/>
      <point x="43" y="204" type="curve" smooth="yes"/>
      <point x="43" y="65"/>
      <point x="130" y="-11"/>
      <point x="248" y="-11" type="curve" smooth="yes"/>
      <point x="337" y="-11"/>
      <point x="377" y="23"/>
      <point x="418" y="77" type="curve"/>
      <point x="452" y="29"/>
      <point x="498" y="-11"/>
    </contour>
    <contour>
      <point x="544" y="523" type="curve" smooth="yes"/>
      <point x="611" y="523"/>
      <point x="657" y="569"/>
      <point x="675" y="611" type="curve"/>
      <point x="634" y="661" type="line"/>
      <point x="611" y="609"/>
      <point x="586" y="589"/>
      <point x="549" y="589" type="curve" smooth="yes"/>
      <point x="507" y="589"/>
      <point x="497" y="614"/>
      <point x="495" y="662" type="curve" smooth="yes"/>
      <point x="492" y="734"/>
      <point x="478" y="767"/>
      <point x="429" y="800" type="curve"/>
      <point x="397" y="775" type="line"/>
      <point x="420" y="761"/>
      <point x="425" y="747"/>
      <point x="425" y="664" type="curve" smooth="yes"/>
      <point x="425" y="570"/>
      <point x="467" y="523"/>
    </contour>
  </outline>
</glyph>
<glyph name="nnasinh" format="2">
  <advance width="1199"/>
  <unicode hex="0DAB"/>
  <outline>
    <contour>
      <point x="781" y="783" type="curve"/>
      <point x="734" y="836" type="line"/>
      <point x="650" y="762"/>
      <point x="556" y="677"/>
      <point x="458" y="587" type="curve"/>
      <point x="445" y="572" type="line"/>
      <point x="295" y="433"/>
      <point x="135" y="284"/>
      <point x="-3" y="141" type="curve"/>
      <point x="50" y="94" type="line"/>
      <point x="93" y="142"/>
      <point x="140" y="192"/>
      <point x="189" y="241" type="curve"/>
      <point x="204" y="256" type="line"/>
      <point x="389" y="440"/>
      <point x="605" y="632"/>
    </contour>
    <contour>
      <point x="393" y="-11" type="curve" smooth="yes"/>
      <point x="584" y="-11"/>
      <point x="731" y="86"/>
      <point x="731" y="300" type="curve" smooth="yes"/>
      <point x="731" y="430"/>
      <point x="666" y="548"/>
      <point x="537" y="589" type="curve"/>
      <point x="507" y="600" type="line"/>
      <point x="470" y="608"/>
      <point x="431" y="612"/>
      <point x="387" y="612" type="curve" smooth="yes"/>
      <point x="213" y="612"/>
      <point x="106" y="516"/>
      <point x="106" y="395" type="curve" smooth="yes"/>
      <point x="106" y="263"/>
      <point x="204" y="157"/>
      <point x="378" y="157" type="curve" smooth="yes"/>
      <point x="472" y="157"/>
      <point x="541" y="202"/>
      <point x="541" y="282" type="curve" smooth="yes"/>
      <point x="541" y="355"/>
      <point x="492" y="397"/>
      <point x="418" y="397" type="curve" smooth="yes"/>
      <point x="340" y="397"/>
      <point x="298" y="351"/>
      <point x="298" y="291" type="curve" smooth="yes"/>
      <point x="298" y="261"/>
      <point x="305" y="241"/>
      <point x="315" y="223" type="curve"/>
      <point x="385" y="219" type="line"/>
      <point x="370" y="238"/>
      <point x="366" y="262"/>
      <point x="366" y="282" type="curve" smooth="yes"/>
      <point x="366" y="311"/>
      <point x="380" y="333"/>
      <point x="417" y="333" type="curve" smooth="yes"/>
      <point x="457" y="333"/>
      <point x="470" y="308"/>
      <point x="470" y="280" type="curve" smooth="yes"/>
      <point x="470" y="244"/>
      <point x="440" y="222"/>
      <point x="386" y="222" type="curve" smooth="yes"/>
      <point x="378" y="222"/>
      <point x="370" y="222"/>
      <point x="362" y="223" type="curve" smooth="yes"/>
      <point x="333" y="225" type="line"/>
      <point x="275" y="234"/>
      <point x="235" y="256"/>
      <point x="210" y="288" type="curve"/>
      <point x="193" y="313" type="line"/>
      <point x="181" y="336"/>
      <point x="178" y="363"/>
      <point x="178" y="394" type="curve" smooth="yes"/>
      <point x="178" y="487"/>
      <point x="263" y="546"/>
      <point x="388" y="546" type="curve" smooth="yes"/>
      <point x="555" y="546"/>
      <point x="658" y="455"/>
      <point x="658" y="299" type="curve" smooth="yes"/>
      <point x="658" y="148"/>
      <point x="557" y="60"/>
      <point x="388" y="60" type="curve" smooth="yes"/>
      <point x="267" y="60"/>
      <point x="186" y="104"/>
      <point x="103" y="201" type="curve"/>
      <point x="52" y="154" type="line"/>
      <point x="146" y="48"/>
      <point x="237" y="-11"/>
    </contour>
    <contour>
      <point x="972" y="-11" type="curve" smooth="yes"/>
      <point x="1086" y="-11"/>
      <point x="1159" y="66"/>
      <point x="1159" y="267" type="curve" smooth="yes"/>
      <point x="1159" y="480"/>
      <point x="1088" y="556"/>
      <point x="990" y="556" type="curve" smooth="yes"/>
      <point x="934" y="556"/>
      <point x="886" y="535"/>
      <point x="856" y="470" type="curve"/>
      <point x="829" y="512"/>
      <point x="794" y="529"/>
      <point x="753" y="529" type="curve" smooth="yes"/>
      <point x="705" y="529"/>
      <point x="667" y="503"/>
      <point x="642" y="464" type="curve"/>
      <point x="678" y="335" type="line"/>
      <point x="678" y="404"/>
      <point x="701" y="460"/>
      <point x="758" y="460" type="curve" smooth="yes"/>
      <point x="812" y="460"/>
      <point x="826" y="416"/>
      <point x="826" y="346" type="curve" smooth="yes"/>
      <point x="826" y="339" type="line"/>
      <point x="893" y="339" type="line"/>
      <point x="893" y="345" type="line" smooth="yes"/>
      <point x="893" y="429"/>
      <point x="911" y="487"/>
      <point x="982" y="487" type="curve" smooth="yes"/>
      <point x="1064" y="487"/>
      <point x="1083" y="385"/>
      <point x="1083" y="275" type="curve" smooth="yes"/>
      <point x="1083" y="128"/>
      <point x="1058" y="58"/>
      <point x="971" y="58" type="curve" smooth="yes"/>
      <point x="915" y="58"/>
      <point x="888" y="94"/>
      <point x="864" y="151" type="curve"/>
      <point x="795" y="123" type="line"/>
      <point x="825" y="50"/>
      <point x="881" y="-11"/>
    </contour>
  </outline>
</glyph>
<glyph name="nnddasinh" format="2">
  <advance width="1000"/>
  <unicode hex="0DAC"/>
  <outline>
    <contour>
      <point x="714" y="-11" type="curve" smooth="yes"/>
      <point x="856" y="-11"/>
      <point x="959" y="84"/>
      <point x="959" y="348" type="curve" smooth="yes"/>
      <point x="959" y="684"/>
      <point x="794" y="836"/>
      <point x="527" y="836" type="curve" smooth="yes"/>
      <point x="387" y="836"/>
      <point x="281" y="803"/>
      <point x="186" y="751" type="curve"/>
      <point x="219" y="686" type="line"/>
      <point x="307" y="735"/>
      <point x="397" y="766"/>
      <point x="524" y="766" type="curve" smooth="yes"/>
      <point x="768" y="766"/>
      <point x="884" y="620"/>
      <point x="884" y="345" type="curve" smooth="yes"/>
      <point x="884" y="131"/>
      <point x="810" y="60"/>
      <point x="713" y="60" type="curve" smooth="yes"/>
      <point x="617" y="60"/>
      <point x="587" y="122"/>
      <point x="587" y="208" type="curve" smooth="yes"/>
      <point x="587" y="214" type="line"/>
      <point x="520" y="214" type="line"/>
      <point x="520" y="208" type="line" smooth="yes"/>
      <point x="520" y="119"/>
      <point x="486" y="60"/>
      <point x="386" y="60" type="curve" smooth="yes"/>
      <point x="304" y="60"/>
      <point x="252" y="111"/>
      <point x="252" y="204" type="curve" smooth="yes"/>
      <point x="252" y="268"/>
      <point x="274" y="311"/>
      <point x="309" y="340" type="curve" smooth="yes"/>
      <point x="368" y="389"/>
      <point x="448" y="389"/>
      <point x="518" y="389" type="curve" smooth="yes"/>
      <point x="568" y="389" type="line"/>
      <point x="568" y="430" type="line" smooth="yes"/>
      <point x="568" y="549"/>
      <point x="507" y="612"/>
      <point x="399" y="612" type="curve" smooth="yes"/>
      <point x="310" y="612"/>
      <point x="255" y="572"/>
      <point x="255" y="496" type="curve" smooth="yes"/>
      <point x="255" y="490"/>
      <point x="255" y="481"/>
      <point x="256" y="474" type="curve"/>
      <point x="329" y="478" type="line"/>
      <point x="328" y="482"/>
      <point x="328" y="485"/>
      <point x="328" y="490" type="curve" smooth="yes"/>
      <point x="328" y="525"/>
      <point x="353" y="546"/>
      <point x="405" y="546" type="curve" smooth="yes"/>
      <point x="456" y="546"/>
      <point x="493" y="517"/>
      <point x="497" y="455" type="curve"/>
      <point x="176" y="455" type="line"/>
      <point x="176" y="389" type="line"/>
      <point x="186" y="389" type="line" smooth="yes"/>
      <point x="225" y="389"/>
      <point x="285" y="390"/>
      <point x="323" y="397" type="curve"/>
      <point x="321" y="406" type="line"/>
      <point x="216" y="365"/>
      <point x="179" y="287"/>
      <point x="179" y="204" type="curve" smooth="yes"/>
      <point x="179" y="65"/>
      <point x="265" y="-11"/>
      <point x="383" y="-11" type="curve" smooth="yes"/>
      <point x="473" y="-11"/>
      <point x="513" y="23"/>
      <point x="554" y="77" type="curve"/>
      <point x="588" y="29"/>
      <point x="633" y="-11"/>
    </contour>
    <contour>
      <point x="36" y="315" type="curve" smooth="yes"/>
      <point x="36" y="228"/>
      <point x="63" y="140"/>
      <point x="99" y="83" type="curve"/>
      <point x="165" y="118" type="line"/>
      <point x="126" y="172"/>
      <point x="109" y="240"/>
      <point x="109" y="312" type="curve" smooth="yes"/>
      <point x="109" y="460"/>
      <point x="193" y="549"/>
      <point x="348" y="549" type="curve" smooth="yes"/>
      <point x="358" y="549"/>
      <point x="375" y="547"/>
      <point x="383" y="547" type="curve"/>
      <point x="446" y="604" type="line"/>
      <point x="411" y="611"/>
      <point x="372" y="612"/>
      <point x="343" y="612" type="curve" smooth="yes"/>
      <point x="168" y="612"/>
      <point x="36" y="513"/>
    </contour>
  </outline>
</glyph>
<glyph name="thasinh" format="2">
  <advance width="802"/>
  <unicode hex="0DAE"/>
  <outline>
    <contour>
      <point x="351" y="-11" type="curve" smooth="yes"/>
      <point x="643" y="-11"/>
      <point x="766" y="178"/>
      <point x="766" y="410" type="curve" smooth="yes"/>
      <point x="766" y="592"/>
      <point x="657" y="758"/>
      <point x="410" y="836" type="curve"/>
      <point x="385" y="776" type="line"/>
      <point x="401" y="771"/>
      <point x="416" y="765"/>
      <point x="431" y="759" type="curve" smooth="yes"/>
      <point x="599" y="689"/>
      <point x="691" y="577"/>
      <point x="691" y="409" type="curve" smooth="yes"/>
      <point x="691" y="247"/>
      <point x="613" y="60"/>
      <point x="354" y="60" type="curve" smooth="yes"/>
      <point x="178" y="60"/>
      <point x="109" y="134"/>
      <point x="109" y="238" type="curve" smooth="yes"/>
      <point x="109" y="369"/>
      <point x="206" y="418"/>
      <point x="324" y="418" type="curve" smooth="yes"/>
      <point x="370" y="418"/>
      <point x="392" y="416"/>
      <point x="423" y="411" type="curve"/>
      <point x="430" y="479" type="line"/>
      <point x="404" y="483"/>
      <point x="366" y="486"/>
      <point x="323" y="486" type="curve" smooth="yes"/>
      <point x="170" y="486"/>
      <point x="36" y="419"/>
      <point x="36" y="238" type="curve" smooth="yes"/>
      <point x="36" y="90"/>
      <point x="137" y="-11"/>
    </contour>
    <contour>
      <point x="534" y="523" type="curve" smooth="yes"/>
      <point x="601" y="523"/>
      <point x="647" y="569"/>
      <point x="665" y="611" type="curve"/>
      <point x="624" y="661" type="line"/>
      <point x="601" y="609"/>
      <point x="576" y="589"/>
      <point x="539" y="589" type="curve" smooth="yes"/>
      <point x="497" y="589"/>
      <point x="486" y="614"/>
      <point x="484" y="662" type="curve" smooth="yes"/>
      <point x="482" y="734"/>
      <point x="468" y="767"/>
      <point x="418" y="800" type="curve"/>
      <point x="387" y="776" type="line"/>
      <point x="411" y="762"/>
      <point x="416" y="747"/>
      <point x="416" y="664" type="curve" smooth="yes"/>
      <point x="416" y="570"/>
      <point x="457" y="523"/>
    </contour>
  </outline>
</glyph>
<glyph name="dasinh" format="2">
  <advance width="577"/>
  <unicode hex="0DAF"/>
  <outline>
    <contour>
      <point x="344" y="-11" type="curve" smooth="yes"/>
      <point x="413" y="-11"/>
      <point x="493" y="-2"/>
      <point x="569" y="37" type="curve"/>
      <point x="548" y="104" type="line"/>
      <point x="483" y="73"/>
      <point x="421" y="60"/>
      <point x="352" y="60" type="curve" smooth="yes"/>
      <point x="174" y="60"/>
      <point x="112" y="142"/>
      <point x="112" y="229" type="curve" smooth="yes"/>
      <point x="112" y="286"/>
      <point x="132" y="328"/>
      <point x="170" y="352" type="curve" smooth="yes"/>
      <point x="210" y="377"/>
      <point x="252" y="389"/>
      <point x="384" y="389" type="curve" smooth="yes"/>
      <point x="547" y="389" type="line"/>
      <point x="547" y="430" type="line" smooth="yes"/>
      <point x="547" y="549"/>
      <point x="485" y="612"/>
      <point x="375" y="612" type="curve" smooth="yes"/>
      <point x="283" y="612"/>
      <point x="228" y="572"/>
      <point x="228" y="499" type="curve" smooth="yes"/>
      <point x="228" y="488"/>
      <point x="229" y="478"/>
      <point x="230" y="468" type="curve"/>
      <point x="302" y="477" type="line"/>
      <point x="301" y="481"/>
      <point x="301" y="487"/>
      <point x="301" y="492" type="curve" smooth="yes"/>
      <point x="301" y="525"/>
      <point x="328" y="546"/>
      <point x="380" y="546" type="curve" smooth="yes"/>
      <point x="433" y="546"/>
      <point x="472" y="517"/>
      <point x="476" y="455" type="curve"/>
      <point x="376" y="455" type="line" smooth="yes"/>
      <point x="254" y="455"/>
      <point x="195" y="445"/>
      <point x="140" y="415" type="curve" smooth="yes"/>
      <point x="77" y="381"/>
      <point x="36" y="321"/>
      <point x="36" y="233" type="curve" smooth="yes"/>
      <point x="36" y="72"/>
      <point x="159" y="-11"/>
    </contour>
    <contour>
      <point x="490" y="-271" type="curve" smooth="yes"/>
      <point x="527" y="-271"/>
      <point x="560" y="-267"/>
      <point x="592" y="-252" type="curve"/>
      <point x="576" y="-188" type="line"/>
      <point x="555" y="-198"/>
      <point x="529" y="-203"/>
      <point x="505" y="-203" type="curve" smooth="yes"/>
      <point x="442" y="-203"/>
      <point x="409" y="-175"/>
      <point x="409" y="-119" type="curve" smooth="yes"/>
      <point x="409" y="-62"/>
      <point x="447" y="-10"/>
      <point x="513" y="28" type="curve"/>
      <point x="495" y="69" type="line"/>
      <point x="460" y="56" type="line"/>
      <point x="383" y="13"/>
      <point x="335" y="-47"/>
      <point x="335" y="-121" type="curve" smooth="yes"/>
      <point x="335" y="-214"/>
      <point x="390" y="-271"/>
    </contour>
  </outline>
</glyph>
<glyph name="dhasinh" format="2">
  <advance width="852"/>
  <unicode hex="0DB0"/>
  <outline>
    <contour>
      <point x="567" y="-11" type="curve" smooth="yes"/>
      <point x="709" y="-11"/>
      <point x="811" y="83"/>
      <point x="811" y="348" type="curve" smooth="yes"/>
      <point x="811" y="684"/>
      <point x="647" y="836"/>
      <point x="386" y="836" type="curve" smooth="yes"/>
      <point x="244" y="836"/>
      <point x="138" y="804"/>
      <point x="45" y="751" type="curve"/>
      <point x="78" y="686" type="line"/>
      <point x="164" y="736"/>
      <point x="258" y="766"/>
      <point x="381" y="766" type="curve" smooth="yes"/>
      <point x="619" y="766"/>
      <point x="736" y="620"/>
      <point x="736" y="345" type="curve" smooth="yes"/>
      <point x="736" y="130"/>
      <point x="663" y="60"/>
      <point x="566" y="60" type="curve" smooth="yes"/>
      <point x="470" y="60"/>
      <point x="439" y="122"/>
      <point x="439" y="208" type="curve" smooth="yes"/>
      <point x="439" y="214" type="line"/>
      <point x="372" y="214" type="line"/>
      <point x="372" y="208" type="line" smooth="yes"/>
      <point x="372" y="119"/>
      <point x="338" y="60"/>
      <point x="243" y="60" type="curve" smooth="yes"/>
      <point x="156" y="60"/>
      <point x="109" y="118"/>
      <point x="109" y="220" type="curve" smooth="yes"/>
      <point x="109" y="344"/>
      <point x="188" y="418"/>
      <point x="331" y="418" type="curve" smooth="yes"/>
      <point x="372" y="418"/>
      <point x="399" y="416"/>
      <point x="431" y="411" type="curve"/>
      <point x="437" y="479" type="line"/>
      <point x="403" y="484"/>
      <point x="370" y="486"/>
      <point x="327" y="486" type="curve" smooth="yes"/>
      <point x="132" y="486"/>
      <point x="36" y="366"/>
      <point x="36" y="226" type="curve" smooth="yes"/>
      <point x="36" y="64"/>
      <point x="124" y="-11"/>
      <point x="236" y="-11" type="curve" smooth="yes"/>
      <point x="325" y="-11"/>
      <point x="365" y="22"/>
      <point x="405" y="77" type="curve"/>
      <point x="439" y="29"/>
      <point x="486" y="-11"/>
    </contour>
  </outline>
</glyph>
<glyph name="nasinh" format="2">
  <advance width="963"/>
  <unicode hex="0DB1"/>
  <outline>
    <contour>
      <point x="376" y="-11" type="curve" smooth="yes"/>
      <point x="595" y="-11"/>
      <point x="663" y="111"/>
      <point x="663" y="229" type="curve" smooth="yes"/>
      <point x="663" y="371"/>
      <point x="575" y="448"/>
      <point x="428" y="448" type="curve" smooth="yes"/>
      <point x="366" y="448"/>
      <point x="328" y="432"/>
      <point x="303" y="420" type="curve"/>
      <point x="298" y="368" type="line"/>
      <point x="332" y="377"/>
      <point x="365" y="380"/>
      <point x="410" y="380" type="curve" smooth="yes"/>
      <point x="512" y="380"/>
      <point x="590" y="338"/>
      <point x="590" y="231" type="curve" smooth="yes"/>
      <point x="590" y="124"/>
      <point x="515" y="60"/>
      <point x="378" y="60" type="curve" smooth="yes"/>
      <point x="214" y="60"/>
      <point x="129" y="136"/>
      <point x="98" y="312" type="curve"/>
      <point x="28" y="300" type="line"/>
      <point x="64" y="70"/>
      <point x="206" y="-11"/>
    </contour>
    <contour>
      <point x="681" y="-3" type="curve" smooth="yes"/>
      <point x="818" y="-3"/>
      <point x="927" y="96"/>
      <point x="927" y="289" type="curve" smooth="yes"/>
      <point x="927" y="480"/>
      <point x="809" y="612"/>
      <point x="594" y="612" type="curve" smooth="yes"/>
      <point x="457" y="612"/>
      <point x="367" y="541"/>
      <point x="317" y="467" type="curve"/>
      <point x="307" y="443" type="line"/>
      <point x="269" y="297"/>
      <point x="197" y="278"/>
      <point x="124" y="278" type="curve" smooth="yes"/>
      <point x="108" y="278"/>
      <point x="79" y="280"/>
      <point x="61" y="286" type="curve"/>
      <point x="60" y="221" type="line"/>
      <point x="76" y="213"/>
      <point x="99" y="210"/>
      <point x="113" y="210" type="curve" smooth="yes"/>
      <point x="225" y="210"/>
      <point x="319" y="241"/>
      <point x="363" y="392" type="curve"/>
      <point x="355" y="410" type="line"/>
      <point x="403" y="483"/>
      <point x="475" y="541"/>
      <point x="592" y="541" type="curve" smooth="yes"/>
      <point x="745" y="541"/>
      <point x="852" y="452"/>
      <point x="852" y="288" type="curve" smooth="yes"/>
      <point x="852" y="166"/>
      <point x="802" y="66"/>
      <point x="672" y="66" type="curve" smooth="yes"/>
      <point x="665" y="66"/>
      <point x="646" y="67"/>
      <point x="638" y="68" type="curve"/>
      <point x="634" y="-1" type="line"/>
      <point x="651" y="-3"/>
      <point x="664" y="-3"/>
    </contour>
    <contour>
      <point x="210" y="592" type="curve" smooth="yes"/>
      <point x="129" y="592"/>
      <point x="76" y="548"/>
      <point x="76" y="467" type="curve" smooth="yes"/>
      <point x="76" y="444"/>
      <point x="81" y="415"/>
      <point x="89" y="389" type="curve"/>
      <point x="159" y="403" type="line"/>
      <point x="154" y="420"/>
      <point x="148" y="437"/>
      <point x="148" y="459" type="curve" smooth="yes"/>
      <point x="148" y="506"/>
      <point x="174" y="526"/>
      <point x="211" y="526" type="curve" smooth="yes"/>
      <point x="269" y="526"/>
      <point x="287" y="465"/>
      <point x="295" y="398" type="curve"/>
      <point x="350" y="434" type="line"/>
      <point x="343" y="511"/>
      <point x="308" y="592"/>
    </contour>
  </outline>
</glyph>
<glyph name="ndasinh" format="2">
  <advance width="684"/>
  <unicode hex="0DB3"/>
  <outline>
    <contour>
      <point x="460" y="-11" type="curve" smooth="yes"/>
      <point x="526" y="-11"/>
      <point x="603" y="-2"/>
      <point x="676" y="37" type="curve"/>
      <point x="655" y="104" type="line"/>
      <point x="593" y="73"/>
      <point x="535" y="61"/>
      <point x="469" y="61" type="curve" smooth="yes"/>
      <point x="300" y="61"/>
      <point x="241" y="142"/>
      <point x="241" y="229" type="curve" smooth="yes"/>
      <point x="241" y="286"/>
      <point x="261" y="328"/>
      <point x="296" y="352" type="curve" smooth="yes"/>
      <point x="334" y="377"/>
      <point x="374" y="389"/>
      <point x="500" y="389" type="curve" smooth="yes"/>
      <point x="654" y="389" type="line"/>
      <point x="654" y="430" type="line" smooth="yes"/>
      <point x="654" y="549"/>
      <point x="592" y="612"/>
      <point x="482" y="612" type="curve" smooth="yes"/>
      <point x="404" y="612"/>
      <point x="335" y="573"/>
      <point x="335" y="499" type="curve" smooth="yes"/>
      <point x="335" y="489"/>
      <point x="336" y="477"/>
      <point x="337" y="468" type="curve"/>
      <point x="409" y="477" type="line"/>
      <point x="408" y="481"/>
      <point x="408" y="487"/>
      <point x="408" y="492" type="curve" smooth="yes"/>
      <point x="408" y="525"/>
      <point x="435" y="546"/>
      <point x="487" y="546" type="curve" smooth="yes"/>
      <point x="540" y="546"/>
      <point x="579" y="517"/>
      <point x="583" y="455" type="curve"/>
      <point x="487" y="455" type="line" smooth="yes"/>
      <point x="372" y="455"/>
      <point x="316" y="444"/>
      <point x="264" y="415" type="curve" smooth="yes"/>
      <point x="204" y="380"/>
      <point x="166" y="321"/>
      <point x="166" y="233" type="curve" smooth="yes"/>
      <point x="166" y="72"/>
      <point x="283" y="-11"/>
    </contour>
    <contour>
      <point x="597" y="-271" type="curve" smooth="yes"/>
      <point x="634" y="-271"/>
      <point x="667" y="-267"/>
      <point x="699" y="-252" type="curve"/>
      <point x="683" y="-188" type="line"/>
      <point x="661" y="-198"/>
      <point x="636" y="-203"/>
      <point x="612" y="-203" type="curve" smooth="yes"/>
      <point x="549" y="-203"/>
      <point x="516" y="-175"/>
      <point x="516" y="-119" type="curve" smooth="yes"/>
      <point x="516" y="-62"/>
      <point x="554" y="-10"/>
      <point x="620" y="28" type="curve"/>
      <point x="602" y="69" type="line"/>
      <point x="567" y="56" type="line"/>
      <point x="490" y="13"/>
      <point x="442" y="-47"/>
      <point x="442" y="-121" type="curve" smooth="yes"/>
      <point x="442" y="-214"/>
      <point x="497" y="-271"/>
    </contour>
    <contour>
      <point x="36" y="315" type="curve" smooth="yes"/>
      <point x="36" y="228"/>
      <point x="59" y="145"/>
      <point x="94" y="83" type="curve"/>
      <point x="161" y="116" type="line"/>
      <point x="127" y="173"/>
      <point x="109" y="240"/>
      <point x="109" y="312" type="curve" smooth="yes"/>
      <point x="109" y="460"/>
      <point x="193" y="549"/>
      <point x="348" y="549" type="curve" smooth="yes"/>
      <point x="358" y="549"/>
      <point x="374" y="548"/>
      <point x="383" y="547" type="curve"/>
      <point x="446" y="604" type="line"/>
      <point x="411" y="611"/>
      <point x="372" y="612"/>
      <point x="343" y="612" type="curve" smooth="yes"/>
      <point x="168" y="612"/>
      <point x="36" y="513"/>
    </contour>
  </outline>
</glyph>
<glyph name="pasinh" format="2">
  <advance width="790"/>
  <unicode hex="0DB4"/>
  <outline>
    <contour>
      <point x="394" y="-11" type="curve" smooth="yes"/>
      <point x="637" y="-11"/>
      <point x="754" y="89"/>
      <point x="754" y="251" type="curve" smooth="yes"/>
      <point x="754" y="382"/>
      <point x="673" y="455"/>
      <point x="498" y="455" type="curve" smooth="yes"/>
      <point x="478" y="455" type="line"/>
      <point x="482" y="452" type="line"/>
      <point x="484" y="517"/>
      <point x="523" y="546"/>
      <point x="575" y="546" type="curve" smooth="yes"/>
      <point x="625" y="546"/>
      <point x="651" y="526"/>
      <point x="651" y="487" type="curve" smooth="yes"/>
      <point x="651" y="480"/>
      <point x="649" y="465"/>
      <point x="647" y="458" type="curve"/>
      <point x="718" y="446" type="line"/>
      <point x="722" y="462"/>
      <point x="724" y="479"/>
      <point x="724" y="496" type="curve" smooth="yes"/>
      <point x="724" y="572"/>
      <point x="669" y="612"/>
      <point x="581" y="612" type="curve" smooth="yes"/>
      <point x="472" y="612"/>
      <point x="411" y="549"/>
      <point x="411" y="430" type="curve" smooth="yes"/>
      <point x="411" y="389" type="line"/>
      <point x="475" y="389" type="line" smooth="yes"/>
      <point x="566" y="389"/>
      <point x="611" y="378"/>
      <point x="642" y="351" type="curve" smooth="yes"/>
      <point x="667" y="329"/>
      <point x="681" y="296"/>
      <point x="681" y="249" type="curve" smooth="yes"/>
      <point x="681" y="141"/>
      <point x="597" y="60"/>
      <point x="395" y="60" type="curve" smooth="yes"/>
      <point x="191" y="60"/>
      <point x="109" y="142"/>
      <point x="109" y="249" type="curve" smooth="yes"/>
      <point x="109" y="296"/>
      <point x="123" y="329"/>
      <point x="148" y="351" type="curve" smooth="yes"/>
      <point x="179" y="378"/>
      <point x="224" y="389"/>
      <point x="314" y="389" type="curve" smooth="yes"/>
      <point x="379" y="389" type="line"/>
      <point x="379" y="430" type="line" smooth="yes"/>
      <point x="379" y="549"/>
      <point x="318" y="612"/>
      <point x="210" y="612" type="curve" smooth="yes"/>
      <point x="120" y="612"/>
      <point x="66" y="572"/>
      <point x="66" y="496" type="curve" smooth="yes"/>
      <point x="66" y="479"/>
      <point x="68" y="462"/>
      <point x="73" y="446" type="curve"/>
      <point x="143" y="458" type="line"/>
      <point x="141" y="465"/>
      <point x="139" y="480"/>
      <point x="139" y="487" type="curve" smooth="yes"/>
      <point x="139" y="526"/>
      <point x="165" y="546"/>
      <point x="215" y="546" type="curve" smooth="yes"/>
      <point x="267" y="546"/>
      <point x="306" y="517"/>
      <point x="308" y="452" type="curve"/>
      <point x="315" y="455" type="line"/>
      <point x="292" y="455" type="line" smooth="yes"/>
      <point x="119" y="455"/>
      <point x="36" y="383"/>
      <point x="36" y="251" type="curve" smooth="yes"/>
      <point x="36" y="90"/>
      <point x="153" y="-11"/>
    </contour>
  </outline>
</glyph>
<glyph name="phasinh" format="2">
  <advance width="812"/>
  <unicode hex="0DB5"/>
  <outline>
    <contour>
      <point x="359" y="-11" type="curve" smooth="yes"/>
      <point x="653" y="-11"/>
      <point x="776" y="176"/>
      <point x="776" y="399" type="curve" smooth="yes"/>
      <point x="776" y="592"/>
      <point x="667" y="758"/>
      <point x="420" y="836" type="curve"/>
      <point x="396" y="776" type="line"/>
      <point x="415" y="769"/>
      <point x="434" y="763"/>
      <point x="451" y="755" type="curve" smooth="yes"/>
      <point x="612" y="685"/>
      <point x="701" y="574"/>
      <point x="701" y="404" type="curve" smooth="yes"/>
      <point x="701" y="242"/>
      <point x="624" y="60"/>
      <point x="359" y="60" type="curve" smooth="yes"/>
      <point x="202" y="60"/>
      <point x="109" y="129"/>
      <point x="109" y="246" type="curve" smooth="yes"/>
      <point x="109" y="287"/>
      <point x="120" y="322"/>
      <point x="151" y="347" type="curve" smooth="yes"/>
      <point x="184" y="374"/>
      <point x="234" y="389"/>
      <point x="330" y="389" type="curve" smooth="yes"/>
      <point x="440" y="389" type="line"/>
      <point x="440" y="430" type="line" smooth="yes"/>
      <point x="440" y="549"/>
      <point x="379" y="612"/>
      <point x="271" y="612" type="curve" smooth="yes"/>
      <point x="181" y="612"/>
      <point x="127" y="572"/>
      <point x="127" y="496" type="curve" smooth="yes"/>
      <point x="127" y="479"/>
      <point x="129" y="465"/>
      <point x="131" y="455" type="curve"/>
      <point x="202" y="466" type="line"/>
      <point x="201" y="474"/>
      <point x="200" y="480"/>
      <point x="200" y="487" type="curve" smooth="yes"/>
      <point x="200" y="526"/>
      <point x="224" y="546"/>
      <point x="276" y="546" type="curve" smooth="yes"/>
      <point x="328" y="546"/>
      <point x="366" y="517"/>
      <point x="369" y="455" type="curve"/>
      <point x="333" y="455" type="line" smooth="yes"/>
      <point x="213" y="455"/>
      <point x="144" y="434"/>
      <point x="99" y="396" type="curve" smooth="yes"/>
      <point x="56" y="360"/>
      <point x="36" y="306"/>
      <point x="36" y="250" type="curve" smooth="yes"/>
      <point x="36" y="89"/>
      <point x="155" y="-11"/>
    </contour>
    <contour>
      <point x="544" y="523" type="curve" smooth="yes"/>
      <point x="612" y="523"/>
      <point x="658" y="569"/>
      <point x="676" y="611" type="curve"/>
      <point x="634" y="661" type="line"/>
      <point x="612" y="609"/>
      <point x="587" y="589"/>
      <point x="549" y="589" type="curve" smooth="yes"/>
      <point x="508" y="589"/>
      <point x="497" y="614"/>
      <point x="495" y="662" type="curve" smooth="yes"/>
      <point x="493" y="734"/>
      <point x="479" y="767"/>
      <point x="429" y="800" type="curve"/>
      <point x="398" y="775" type="line"/>
      <point x="422" y="761"/>
      <point x="426" y="747"/>
      <point x="426" y="664" type="curve" smooth="yes"/>
      <point x="426" y="570"/>
      <point x="467" y="523"/>
    </contour>
  </outline>
</glyph>
<glyph name="basinh" format="2">
  <advance width="867"/>
  <unicode hex="0DB6"/>
  <outline>
    <contour>
      <point x="566" y="-11" type="curve" smooth="yes"/>
      <point x="733" y="-11"/>
      <point x="829" y="153"/>
      <point x="829" y="381" type="curve" smooth="yes"/>
      <point x="829" y="654"/>
      <point x="681" y="836"/>
      <point x="398" y="836" type="curve" smooth="yes"/>
      <point x="262" y="836"/>
      <point x="148" y="804"/>
      <point x="47" y="751" type="curve"/>
      <point x="81" y="686" type="line"/>
      <point x="180" y="742"/>
      <point x="282" y="766"/>
      <point x="396" y="766" type="curve" smooth="yes"/>
      <point x="634" y="766"/>
      <point x="754" y="610"/>
      <point x="754" y="379" type="curve" smooth="yes"/>
      <point x="754" y="174"/>
      <point x="669" y="58"/>
      <point x="569" y="58" type="curve" smooth="yes"/>
      <point x="528" y="58"/>
      <point x="502" y="79"/>
      <point x="502" y="122" type="curve" smooth="yes"/>
      <point x="502" y="150"/>
      <point x="512" y="175"/>
      <point x="528" y="213" type="curve" smooth="yes"/>
      <point x="549" y="263"/>
      <point x="565" y="304"/>
      <point x="565" y="359" type="curve" smooth="yes"/>
      <point x="565" y="469"/>
      <point x="487" y="555"/>
      <point x="336" y="555" type="curve" smooth="yes"/>
      <point x="154" y="555"/>
      <point x="36" y="431"/>
      <point x="36" y="246" type="curve" smooth="yes"/>
      <point x="36" y="104"/>
      <point x="116" y="-11"/>
      <point x="250" y="-11" type="curve" smooth="yes"/>
      <point x="348" y="-11"/>
      <point x="395" y="39"/>
      <point x="395" y="116" type="curve" smooth="yes"/>
      <point x="395" y="176"/>
      <point x="354" y="234"/>
      <point x="267" y="234" type="curve" smooth="yes"/>
      <point x="201" y="234"/>
      <point x="150" y="196"/>
      <point x="114" y="152" type="curve"/>
      <point x="147" y="99" type="line"/>
      <point x="184" y="146"/>
      <point x="220" y="167"/>
      <point x="261" y="167" type="curve" smooth="yes"/>
      <point x="303" y="167"/>
      <point x="323" y="142"/>
      <point x="323" y="113" type="curve" smooth="yes"/>
      <point x="323" y="79"/>
      <point x="304" y="57"/>
      <point x="249" y="57" type="curve" smooth="yes"/>
      <point x="189" y="57"/>
      <point x="153" y="85"/>
      <point x="132" y="129" type="curve"/>
      <point x="114" y="163"/>
      <point x="109" y="204"/>
      <point x="109" y="247" type="curve" smooth="yes"/>
      <point x="109" y="395"/>
      <point x="198" y="486"/>
      <point x="332" y="486" type="curve" smooth="yes"/>
      <point x="432" y="486"/>
      <point x="491" y="436"/>
      <point x="491" y="349" type="curve" smooth="yes"/>
      <point x="491" y="305"/>
      <point x="478" y="271"/>
      <point x="462" y="234" type="curve" smooth="yes"/>
      <point x="443" y="190"/>
      <point x="431" y="159"/>
      <point x="431" y="117" type="curve" smooth="yes"/>
      <point x="431" y="52"/>
      <point x="469" y="-11"/>
    </contour>
  </outline>
</glyph>
<glyph name="masinh" format="2">
  <advance width="850"/>
  <unicode hex="0DB8"/>
  <outline>
    <contour>
      <point x="400" y="-11" type="curve" smooth="yes"/>
      <point x="695" y="-11"/>
      <point x="814" y="173"/>
      <point x="814" y="407" type="curve" smooth="yes"/>
      <point x="814" y="713"/>
      <point x="617" y="836"/>
      <point x="394" y="836" type="curve" smooth="yes"/>
      <point x="257" y="836"/>
      <point x="145" y="800"/>
      <point x="52" y="749" type="curve"/>
      <point x="83" y="683" type="line"/>
      <point x="175" y="734"/>
      <point x="258" y="766"/>
      <point x="394" y="766" type="curve" smooth="yes"/>
      <point x="555" y="766"/>
      <point x="739" y="687"/>
      <point x="739" y="409" type="curve" smooth="yes"/>
      <point x="739" y="224"/>
      <point x="657" y="60"/>
      <point x="402" y="60" type="curve" smooth="yes"/>
      <point x="217" y="60"/>
      <point x="111" y="157"/>
      <point x="111" y="335" type="curve" smooth="yes"/>
      <point x="111" y="445"/>
      <point x="151" y="510"/>
      <point x="204" y="510" type="curve" smooth="yes"/>
      <point x="228" y="510"/>
      <point x="232" y="493"/>
      <point x="232" y="475" type="curve" smooth="yes"/>
      <point x="232" y="450"/>
      <point x="223" y="421"/>
      <point x="223" y="382" type="curve" smooth="yes"/>
      <point x="223" y="301"/>
      <point x="271" y="229"/>
      <point x="407" y="229" type="curve" smooth="yes"/>
      <point x="528" y="229"/>
      <point x="605" y="301"/>
      <point x="605" y="413" type="curve" smooth="yes"/>
      <point x="605" y="534"/>
      <point x="530" y="576"/>
      <point x="461" y="576" type="curve" smooth="yes"/>
      <point x="369" y="576"/>
      <point x="330" y="521"/>
      <point x="330" y="464" type="curve" smooth="yes"/>
      <point x="330" y="398"/>
      <point x="372" y="354"/>
      <point x="445" y="354" type="curve" smooth="yes"/>
      <point x="509" y="354"/>
      <point x="542" y="381"/>
      <point x="574" y="410" type="curve"/>
      <point x="561" y="455" type="line"/>
      <point x="525" y="427"/>
      <point x="498" y="416"/>
      <point x="456" y="416" type="curve" smooth="yes"/>
      <point x="421" y="416"/>
      <point x="400" y="434"/>
      <point x="400" y="464" type="curve" smooth="yes"/>
      <point x="400" y="496"/>
      <point x="422" y="512"/>
      <point x="459" y="512" type="curve" smooth="yes"/>
      <point x="507" y="512"/>
      <point x="537" y="475"/>
      <point x="537" y="414" type="curve" smooth="yes"/>
      <point x="537" y="330"/>
      <point x="483" y="294"/>
      <point x="406" y="294" type="curve" smooth="yes"/>
      <point x="323" y="294"/>
      <point x="293" y="333"/>
      <point x="293" y="385" type="curve" smooth="yes"/>
      <point x="293" y="432"/>
      <point x="304" y="461"/>
      <point x="304" y="498" type="curve" smooth="yes"/>
      <point x="304" y="530"/>
      <point x="286" y="576"/>
      <point x="218" y="576" type="curve" smooth="yes"/>
      <point x="116" y="576"/>
      <point x="39" y="488"/>
      <point x="39" y="329" type="curve" smooth="yes"/>
      <point x="39" y="129"/>
      <point x="161" y="-11"/>
    </contour>
  </outline>
</glyph>
<glyph name="mbasinh" format="2">
  <advance width="884"/>
  <unicode hex="0DB9"/>
  <outline>
    <contour>
      <point x="300" y="-11" type="curve" smooth="yes"/>
      <point x="330" y="-11"/>
      <point x="355" y="-7"/>
      <point x="380" y="1" type="curve"/>
      <point x="341" y="61" type="line"/>
      <point x="324" y="58"/>
      <point x="310" y="57"/>
      <point x="296" y="57" type="curve" smooth="yes"/>
      <point x="182" y="57"/>
      <point x="114" y="149"/>
      <point x="114" y="303" type="curve" smooth="yes"/>
      <point x="114" y="441"/>
      <point x="170" y="510"/>
      <point x="214" y="510" type="curve" smooth="yes"/>
      <point x="238" y="510"/>
      <point x="243" y="493"/>
      <point x="243" y="475" type="curve" smooth="yes"/>
      <point x="243" y="450"/>
      <point x="234" y="421"/>
      <point x="234" y="382" type="curve" smooth="yes"/>
      <point x="234" y="301"/>
      <point x="281" y="229"/>
      <point x="417" y="229" type="curve" smooth="yes"/>
      <point x="539" y="229"/>
      <point x="615" y="301"/>
      <point x="615" y="413" type="curve" smooth="yes"/>
      <point x="615" y="534"/>
      <point x="540" y="576"/>
      <point x="471" y="576" type="curve" smooth="yes"/>
      <point x="379" y="576"/>
      <point x="340" y="521"/>
      <point x="340" y="464" type="curve" smooth="yes"/>
      <point x="340" y="398"/>
      <point x="382" y="354"/>
      <point x="455" y="354" type="curve" smooth="yes"/>
      <point x="519" y="354"/>
      <point x="552" y="381"/>
      <point x="584" y="410" type="curve"/>
      <point x="571" y="455" type="line"/>
      <point x="535" y="427"/>
      <point x="508" y="416"/>
      <point x="466" y="416" type="curve" smooth="yes"/>
      <point x="431" y="416"/>
      <point x="410" y="434"/>
      <point x="410" y="464" type="curve" smooth="yes"/>
      <point x="410" y="496"/>
      <point x="432" y="512"/>
      <point x="469" y="512" type="curve" smooth="yes"/>
      <point x="517" y="512"/>
      <point x="547" y="475"/>
      <point x="547" y="414" type="curve" smooth="yes"/>
      <point x="547" y="330"/>
      <point x="494" y="294"/>
      <point x="417" y="294" type="curve" smooth="yes"/>
      <point x="333" y="294"/>
      <point x="303" y="332"/>
      <point x="303" y="385" type="curve" smooth="yes"/>
      <point x="303" y="432"/>
      <point x="314" y="461"/>
      <point x="314" y="498" type="curve" smooth="yes"/>
      <point x="314" y="530"/>
      <point x="296" y="576"/>
      <point x="228" y="576" type="curve" smooth="yes"/>
      <point x="130" y="576"/>
      <point x="41" y="486"/>
      <point x="41" y="299" type="curve" smooth="yes"/>
      <point x="41" y="99"/>
      <point x="146" y="-11"/>
    </contour>
    <contour>
      <point x="566" y="-10" type="curve" smooth="yes"/>
      <point x="760" y="-10"/>
      <point x="843" y="159"/>
      <point x="843" y="366" type="curve" smooth="yes"/>
      <point x="843" y="722"/>
      <point x="638" y="836"/>
      <point x="422" y="836" type="curve" smooth="yes"/>
      <point x="272" y="836"/>
      <point x="160" y="799"/>
      <point x="65" y="748" type="curve"/>
      <point x="97" y="682" type="line"/>
      <point x="191" y="734"/>
      <point x="275" y="766"/>
      <point x="424" y="766" type="curve" smooth="yes"/>
      <point x="583" y="766"/>
      <point x="768" y="690"/>
      <point x="768" y="369" type="curve" smooth="yes"/>
      <point x="768" y="192"/>
      <point x="708" y="57"/>
      <point x="564" y="57" type="curve" smooth="yes"/>
      <point x="533" y="57"/>
      <point x="516" y="58"/>
      <point x="501" y="61" type="curve"/>
      <point x="462" y="1" type="line"/>
      <point x="487" y="-7"/>
      <point x="521" y="-10"/>
    </contour>
    <contour>
      <point x="421" y="166" type="curve" smooth="yes"/>
      <point x="477" y="166"/>
      <point x="499" y="145"/>
      <point x="499" y="115" type="curve" smooth="yes"/>
      <point x="499" y="87"/>
      <point x="480" y="74"/>
      <point x="455" y="67" type="curve"/>
      <point x="462" y="1" type="line"/>
      <point x="499" y="36" type="line"/>
      <point x="544" y="53"/>
      <point x="569" y="87"/>
      <point x="569" y="128" type="curve" smooth="yes"/>
      <point x="569" y="191"/>
      <point x="518" y="226"/>
      <point x="428" y="226" type="curve" smooth="yes"/>
      <point x="415" y="226" type="line" smooth="yes"/>
      <point x="325" y="226"/>
      <point x="272" y="192"/>
      <point x="272" y="128" type="curve" smooth="yes"/>
      <point x="272" y="87"/>
      <point x="297" y="53"/>
      <point x="343" y="36" type="curve"/>
      <point x="380" y="1" type="line"/>
      <point x="387" y="67" type="line"/>
      <point x="361" y="74"/>
      <point x="343" y="87"/>
      <point x="343" y="115" type="curve" smooth="yes"/>
      <point x="343" y="145"/>
      <point x="366" y="166"/>
    </contour>
  </outline>
</glyph>
<glyph name="yasinh" format="2">
  <advance width="812"/>
  <unicode hex="0DBA"/>
  <outline>
    <contour>
      <point x="576" y="-11" type="curve" smooth="yes"/>
      <point x="687" y="-11"/>
      <point x="775" y="63"/>
      <point x="775" y="217" type="curve" smooth="yes"/>
      <point x="775" y="408"/>
      <point x="635" y="455"/>
      <point x="488" y="455" type="curve" smooth="yes"/>
      <point x="473" y="455" type="line"/>
      <point x="489" y="452" type="line"/>
      <point x="491" y="517"/>
      <point x="530" y="546"/>
      <point x="582" y="546" type="curve" smooth="yes"/>
      <point x="633" y="546"/>
      <point x="658" y="526"/>
      <point x="658" y="487" type="curve" smooth="yes"/>
      <point x="658" y="480"/>
      <point x="656" y="465"/>
      <point x="654" y="458" type="curve"/>
      <point x="724" y="446" type="line"/>
      <point x="728" y="462"/>
      <point x="731" y="479"/>
      <point x="731" y="496" type="curve" smooth="yes"/>
      <point x="731" y="572"/>
      <point x="676" y="612"/>
      <point x="587" y="612" type="curve" smooth="yes"/>
      <point x="479" y="612"/>
      <point x="418" y="549"/>
      <point x="418" y="430" type="curve" smooth="yes"/>
      <point x="418" y="389" type="line"/>
      <point x="460" y="389" type="line" smooth="yes"/>
      <point x="550" y="389"/>
      <point x="609" y="377"/>
      <point x="648" y="349" type="curve" smooth="yes"/>
      <point x="687" y="322"/>
      <point x="702" y="279"/>
      <point x="702" y="218" type="curve" smooth="yes"/>
      <point x="702" y="111"/>
      <point x="654" y="60"/>
      <point x="572" y="60" type="curve" smooth="yes"/>
      <point x="468" y="60"/>
      <point x="438" y="122"/>
      <point x="438" y="208" type="curve" smooth="yes"/>
      <point x="438" y="214" type="line"/>
      <point x="371" y="214" type="line"/>
      <point x="371" y="208" type="line" smooth="yes"/>
      <point x="371" y="119"/>
      <point x="338" y="60"/>
      <point x="243" y="60" type="curve" smooth="yes"/>
      <point x="156" y="60"/>
      <point x="109" y="119"/>
      <point x="109" y="220" type="curve" smooth="yes"/>
      <point x="109" y="344"/>
      <point x="190" y="418"/>
      <point x="321" y="418" type="curve" smooth="yes"/>
      <point x="340" y="418"/>
      <point x="350" y="417"/>
      <point x="359" y="416" type="curve"/>
      <point x="365" y="483" type="line"/>
      <point x="352" y="485"/>
      <point x="334" y="486"/>
      <point x="317" y="486" type="curve" smooth="yes"/>
      <point x="131" y="486"/>
      <point x="36" y="366"/>
      <point x="36" y="226" type="curve" smooth="yes"/>
      <point x="36" y="64"/>
      <point x="124" y="-11"/>
      <point x="236" y="-11" type="curve" smooth="yes"/>
      <point x="325" y="-11"/>
      <point x="365" y="22"/>
      <point x="405" y="77" type="curve"/>
      <point x="439" y="29"/>
      <point x="486" y="-11"/>
    </contour>
  </outline>
</glyph>
<glyph name="rasinh" format="2">
  <advance width="702"/>
  <unicode hex="0DBB"/>
  <outline>
    <contour>
      <point x="342" y="-11" type="curve" smooth="yes"/>
      <point x="541" y="-11"/>
      <point x="666" y="96"/>
      <point x="666" y="283" type="curve" smooth="yes"/>
      <point x="666" y="469"/>
      <point x="542" y="566"/>
      <point x="373" y="566" type="curve" smooth="yes"/>
      <point x="337" y="566"/>
      <point x="311" y="564"/>
      <point x="289" y="555" type="curve"/>
      <point x="214" y="485" type="line"/>
      <point x="255" y="499"/>
      <point x="308" y="506"/>
      <point x="349" y="506" type="curve" smooth="yes"/>
      <point x="499" y="506"/>
      <point x="593" y="423"/>
      <point x="593" y="281" type="curve" smooth="yes"/>
      <point x="593" y="155"/>
      <point x="516" y="60"/>
      <point x="343" y="60" type="curve" smooth="yes"/>
      <point x="181" y="60"/>
      <point x="109" y="151"/>
      <point x="109" y="279" type="curve" smooth="yes"/>
      <point x="109" y="377"/>
      <point x="149" y="465"/>
      <point x="320" y="521" type="curve"/>
      <point x="362" y="550" type="line"/>
      <point x="451" y="588"/>
      <point x="574" y="661"/>
      <point x="677" y="749" type="curve"/>
      <point x="629" y="805" type="line"/>
      <point x="520" y="715"/>
      <point x="403" y="642"/>
      <point x="302" y="586" type="curve"/>
      <point x="136" y="520"/>
      <point x="36" y="442"/>
      <point x="36" y="277" type="curve" smooth="yes"/>
      <point x="36" y="94"/>
      <point x="149" y="-11"/>
    </contour>
  </outline>
</glyph>
<glyph name="lasinh" format="2">
  <advance width="852"/>
  <unicode hex="0DBD"/>
  <outline>
    <contour>
      <point x="446" y="-204" type="curve" smooth="yes"/>
      <point x="642" y="-204"/>
      <point x="818" y="-103"/>
      <point x="818" y="123" type="curve" smooth="yes"/>
      <point x="818" y="138"/>
      <point x="817" y="151"/>
      <point x="815" y="166" type="curve"/>
      <point x="743" y="162" type="line"/>
      <point x="745" y="150"/>
      <point x="745" y="131"/>
      <point x="745" y="124" type="curve" smooth="yes"/>
      <point x="745" y="-56"/>
      <point x="610" y="-132"/>
      <point x="444" y="-132" type="curve" smooth="yes"/>
      <point x="239" y="-132"/>
      <point x="111" y="-22"/>
      <point x="111" y="187" type="curve" smooth="yes"/>
      <point x="111" y="402"/>
      <point x="234" y="544"/>
      <point x="483" y="544" type="curve" smooth="yes"/>
      <point x="675" y="544"/>
      <point x="734" y="473"/>
      <point x="734" y="378" type="curve" smooth="yes"/>
      <point x="734" y="306"/>
      <point x="686" y="264"/>
      <point x="595" y="264" type="curve" smooth="yes"/>
      <point x="516" y="264"/>
      <point x="496" y="297"/>
      <point x="496" y="334" type="curve" smooth="yes"/>
      <point x="496" y="358"/>
      <point x="507" y="378"/>
      <point x="529" y="398" type="curve"/>
      <point x="468" y="367" type="line"/>
      <point x="649" y="367" type="line"/>
      <point x="649" y="434" type="line"/>
      <point x="276" y="434" type="line"/>
      <point x="276" y="367" type="line"/>
      <point x="441" y="367" type="line"/>
      <point x="483" y="374" type="line"/>
      <point x="440" y="396" type="line"/>
      <point x="430" y="377"/>
      <point x="423" y="354"/>
      <point x="423" y="333" type="curve" smooth="yes"/>
      <point x="423" y="255"/>
      <point x="466" y="195"/>
      <point x="596" y="195" type="curve" smooth="yes"/>
      <point x="738" y="195"/>
      <point x="809" y="272"/>
      <point x="809" y="379" type="curve" smooth="yes"/>
      <point x="809" y="510"/>
      <point x="721" y="612"/>
      <point x="480" y="612" type="curve" smooth="yes"/>
      <point x="205" y="612"/>
      <point x="36" y="449"/>
      <point x="36" y="189" type="curve" smooth="yes"/>
      <point x="36" y="-43"/>
      <point x="162" y="-204"/>
    </contour>
  </outline>
</glyph>
<glyph name="vasinh" format="2">
  <advance width="812"/>
  <unicode hex="0DC0"/>
  <outline>
    <contour>
      <point x="358" y="-11" type="curve" smooth="yes"/>
      <point x="654" y="-11"/>
      <point x="776" y="183"/>
      <point x="776" y="418" type="curve" smooth="yes"/>
      <point x="776" y="716"/>
      <point x="583" y="836"/>
      <point x="372" y="836" type="curve" smooth="yes"/>
      <point x="245" y="836"/>
      <point x="135" y="801"/>
      <point x="45" y="751" type="curve"/>
      <point x="78" y="686" type="line"/>
      <point x="161" y="734"/>
      <point x="251" y="766"/>
      <point x="371" y="766" type="curve" smooth="yes"/>
      <point x="520" y="766"/>
      <point x="701" y="687"/>
      <point x="701" y="418" type="curve" smooth="yes"/>
      <point x="701" y="248"/>
      <point x="623" y="60"/>
      <point x="358" y="60" type="curve" smooth="yes"/>
      <point x="202" y="60"/>
      <point x="109" y="129"/>
      <point x="109" y="246" type="curve" smooth="yes"/>
      <point x="109" y="287"/>
      <point x="120" y="322"/>
      <point x="151" y="347" type="curve" smooth="yes"/>
      <point x="184" y="374"/>
      <point x="234" y="389"/>
      <point x="330" y="389" type="curve" smooth="yes"/>
      <point x="460" y="389" type="line"/>
      <point x="460" y="430" type="line" smooth="yes"/>
      <point x="460" y="549"/>
      <point x="399" y="612"/>
      <point x="291" y="612" type="curve" smooth="yes"/>
      <point x="201" y="612"/>
      <point x="147" y="572"/>
      <point x="147" y="496" type="curve" smooth="yes"/>
      <point x="147" y="479"/>
      <point x="149" y="465"/>
      <point x="151" y="455" type="curve"/>
      <point x="222" y="466" type="line"/>
      <point x="221" y="473"/>
      <point x="220" y="480"/>
      <point x="220" y="487" type="curve" smooth="yes"/>
      <point x="220" y="526"/>
      <point x="246" y="546"/>
      <point x="296" y="546" type="curve" smooth="yes"/>
      <point x="348" y="546"/>
      <point x="386" y="517"/>
      <point x="389" y="455" type="curve"/>
      <point x="333" y="455" type="line" smooth="yes"/>
      <point x="216" y="455"/>
      <point x="144" y="434"/>
      <point x="99" y="396" type="curve" smooth="yes"/>
      <point x="56" y="360"/>
      <point x="36" y="306"/>
      <point x="36" y="248" type="curve" smooth="yes"/>
      <point x="36" y="89"/>
      <point x="155" y="-11"/>
    </contour>
  </outline>
</glyph>
<glyph name="shasinh" format="2">
  <advance width="917"/>
  <unicode hex="0DC1"/>
  <outline>
    <contour>
      <point x="317" y="-11" type="curve" smooth="yes"/>
      <point x="479" y="-11"/>
      <point x="572" y="89"/>
      <point x="572" y="223" type="curve" smooth="yes"/>
      <point x="572" y="310"/>
      <point x="527" y="358"/>
      <point x="456" y="358" type="curve" smooth="yes"/>
      <point x="437" y="358"/>
      <point x="412" y="352"/>
      <point x="397" y="342" type="curve"/>
      <point x="407" y="341" type="line"/>
      <point x="454" y="508"/>
      <point x="535" y="541"/>
      <point x="619" y="541" type="curve" smooth="yes"/>
      <point x="726" y="541"/>
      <point x="804" y="464"/>
      <point x="804" y="321" type="curve" smooth="yes"/>
      <point x="804" y="179"/>
      <point x="739" y="114"/>
      <point x="632" y="67" type="curve"/>
      <point x="590" y="52" type="line"/>
      <point x="615" y="-10" type="line"/>
      <point x="733" y="24"/>
      <point x="879" y="118"/>
      <point x="879" y="319" type="curve" smooth="yes"/>
      <point x="879" y="486"/>
      <point x="795" y="612"/>
      <point x="626" y="612" type="curve" smooth="yes"/>
      <point x="511" y="612"/>
      <point x="373" y="557"/>
      <point x="330" y="296" type="curve"/>
      <point x="401" y="274" type="line"/>
      <point x="417" y="287"/>
      <point x="433" y="292"/>
      <point x="450" y="292" type="curve" smooth="yes"/>
      <point x="479" y="292"/>
      <point x="499" y="274"/>
      <point x="499" y="224" type="curve" smooth="yes"/>
      <point x="499" y="128"/>
      <point x="436" y="60"/>
      <point x="317" y="60" type="curve" smooth="yes"/>
      <point x="177" y="60"/>
      <point x="113" y="156"/>
      <point x="113" y="291" type="curve" smooth="yes"/>
      <point x="113" y="451"/>
      <point x="181" y="543"/>
      <point x="337" y="543" type="curve" smooth="yes"/>
      <point x="352" y="543"/>
      <point x="367" y="542"/>
      <point x="380" y="541" type="curve"/>
      <point x="384" y="609" type="line"/>
      <point x="369" y="611"/>
      <point x="345" y="612"/>
      <point x="334" y="612" type="curve" smooth="yes"/>
      <point x="160" y="612"/>
      <point x="38" y="499"/>
      <point x="38" y="296" type="curve" smooth="yes"/>
      <point x="38" y="106"/>
      <point x="137" y="-11"/>
    </contour>
    <contour>
      <point x="590" y="52" type="curve"/>
      <point x="646" y="29" type="line"/>
      <point x="671" y="53"/>
      <point x="675" y="97"/>
      <point x="675" y="114" type="curve" smooth="yes"/>
      <point x="675" y="155"/>
      <point x="667" y="175"/>
      <point x="667" y="205" type="curve" smooth="yes"/>
      <point x="667" y="246"/>
      <point x="687" y="269"/>
      <point x="725" y="269" type="curve" smooth="yes"/>
      <point x="769" y="269"/>
      <point x="797" y="248"/>
      <point x="833" y="206" type="curve"/>
      <point x="854" y="268" type="line"/>
      <point x="816" y="307"/>
      <point x="782" y="335"/>
      <point x="719" y="335" type="curve" smooth="yes"/>
      <point x="661" y="335"/>
      <point x="596" y="304"/>
      <point x="596" y="212" type="curve" smooth="yes"/>
      <point x="596" y="166"/>
      <point x="612" y="130"/>
      <point x="612" y="87" type="curve" smooth="yes"/>
      <point x="612" y="71"/>
      <point x="608" y="58"/>
    </contour>
  </outline>
</glyph>
<glyph name="ssasinh" format="2">
  <advance width="790"/>
  <unicode hex="0DC2"/>
  <outline>
    <contour>
      <point x="394" y="-11" type="curve" smooth="yes"/>
      <point x="637" y="-11"/>
      <point x="754" y="89"/>
      <point x="754" y="251" type="curve" smooth="yes"/>
      <point x="754" y="382"/>
      <point x="673" y="455"/>
      <point x="498" y="455" type="curve" smooth="yes"/>
      <point x="478" y="455" type="line"/>
      <point x="482" y="452" type="line"/>
      <point x="484" y="517"/>
      <point x="523" y="546"/>
      <point x="575" y="546" type="curve" smooth="yes"/>
      <point x="623" y="546"/>
      <point x="651" y="520"/>
      <point x="651" y="470" type="curve" smooth="yes"/>
      <point x="651" y="447"/>
      <point x="643" y="422"/>
      <point x="625" y="402" type="curve"/>
      <point x="616" y="388" type="line"/>
      <point x="565" y="337"/>
      <point x="499" y="328"/>
      <point x="423" y="328" type="curve" smooth="yes"/>
      <point x="367" y="328" type="line" smooth="yes"/>
      <point x="311" y="328"/>
      <point x="276" y="323"/>
      <point x="246" y="307" type="curve" smooth="yes"/>
      <point x="220" y="293"/>
      <point x="204" y="270"/>
      <point x="204" y="231" type="curve" smooth="yes"/>
      <point x="204" y="164"/>
      <point x="261" y="123"/>
      <point x="387" y="123" type="curve" smooth="yes"/>
      <point x="537" y="123"/>
      <point x="577" y="175"/>
      <point x="577" y="232" type="curve" smooth="yes"/>
      <point x="577" y="257"/>
      <point x="569" y="284"/>
      <point x="549" y="307" type="curve"/>
      <point x="483" y="290" type="line"/>
      <point x="502" y="271"/>
      <point x="509" y="255"/>
      <point x="509" y="234" type="curve" smooth="yes"/>
      <point x="509" y="203"/>
      <point x="488" y="185"/>
      <point x="387" y="185" type="curve" smooth="yes"/>
      <point x="312" y="185"/>
      <point x="272" y="195"/>
      <point x="272" y="227" type="curve" smooth="yes"/>
      <point x="272" y="259"/>
      <point x="300" y="266"/>
      <point x="350" y="266" type="curve" smooth="yes"/>
      <point x="416" y="266" type="line" smooth="yes"/>
      <point x="546" y="266"/>
      <point x="629" y="298"/>
      <point x="686" y="371" type="curve" smooth="yes"/>
      <point x="709" y="400"/>
      <point x="723" y="436"/>
      <point x="723" y="479" type="curve" smooth="yes"/>
      <point x="723" y="567"/>
      <point x="669" y="612"/>
      <point x="576" y="612" type="curve" smooth="yes"/>
      <point x="472" y="612"/>
      <point x="411" y="549"/>
      <point x="411" y="430" type="curve" smooth="yes"/>
      <point x="411" y="389" type="line"/>
      <point x="475" y="389" type="line" smooth="yes"/>
      <point x="560" y="389"/>
      <point x="602" y="380"/>
      <point x="633" y="359" type="curve" smooth="yes"/>
      <point x="665" y="337"/>
      <point x="681" y="301"/>
      <point x="681" y="249" type="curve" smooth="yes"/>
      <point x="681" y="141"/>
      <point x="597" y="60"/>
      <point x="395" y="60" type="curve" smooth="yes"/>
      <point x="191" y="60"/>
      <point x="109" y="142"/>
      <point x="109" y="249" type="curve" smooth="yes"/>
      <point x="109" y="296"/>
      <point x="123" y="329"/>
      <point x="148" y="351" type="curve" smooth="yes"/>
      <point x="179" y="378"/>
      <point x="224" y="389"/>
      <point x="314" y="389" type="curve" smooth="yes"/>
      <point x="379" y="389" type="line"/>
      <point x="379" y="430" type="line" smooth="yes"/>
      <point x="379" y="549"/>
      <point x="318" y="612"/>
      <point x="210" y="612" type="curve" smooth="yes"/>
      <point x="120" y="612"/>
      <point x="66" y="572"/>
      <point x="66" y="496" type="curve" smooth="yes"/>
      <point x="66" y="479"/>
      <point x="68" y="462"/>
      <point x="73" y="446" type="curve"/>
      <point x="143" y="458" type="line"/>
      <point x="141" y="465"/>
      <point x="139" y="480"/>
      <point x="139" y="487" type="curve" smooth="yes"/>
      <point x="139" y="526"/>
      <point x="165" y="546"/>
      <point x="215" y="546" type="curve" smooth="yes"/>
      <point x="267" y="546"/>
      <point x="306" y="517"/>
      <point x="308" y="452" type="curve"/>
      <point x="315" y="455" type="line"/>
      <point x="292" y="455" type="line" smooth="yes"/>
      <point x="119" y="455"/>
      <point x="36" y="383"/>
      <point x="36" y="251" type="curve" smooth="yes"/>
      <point x="36" y="89"/>
      <point x="153" y="-11"/>
    </contour>
  </outline>
</glyph>
<glyph name="sasinh" format="2">
  <advance width="824"/>
  <unicode hex="0DC3"/>
  <outline>
    <contour>
      <point x="588" y="-11" type="curve" smooth="yes"/>
      <point x="700" y="-11"/>
      <point x="788" y="63"/>
      <point x="788" y="217" type="curve" smooth="yes"/>
      <point x="788" y="408"/>
      <point x="648" y="455"/>
      <point x="501" y="455" type="curve" smooth="yes"/>
      <point x="486" y="455" type="line"/>
      <point x="505" y="452" type="line"/>
      <point x="507" y="517"/>
      <point x="546" y="546"/>
      <point x="598" y="546" type="curve" smooth="yes"/>
      <point x="648" y="546"/>
      <point x="674" y="526"/>
      <point x="674" y="487" type="curve" smooth="yes"/>
      <point x="674" y="480"/>
      <point x="672" y="465"/>
      <point x="670" y="458" type="curve"/>
      <point x="740" y="446" type="line"/>
      <point x="744" y="462"/>
      <point x="747" y="479"/>
      <point x="747" y="496" type="curve" smooth="yes"/>
      <point x="747" y="572"/>
      <point x="692" y="612"/>
      <point x="603" y="612" type="curve" smooth="yes"/>
      <point x="495" y="612"/>
      <point x="434" y="549"/>
      <point x="434" y="430" type="curve" smooth="yes"/>
      <point x="434" y="389" type="line"/>
      <point x="475" y="389" type="line" smooth="yes"/>
      <point x="563" y="389"/>
      <point x="621" y="377"/>
      <point x="661" y="349" type="curve" smooth="yes"/>
      <point x="700" y="321"/>
      <point x="715" y="279"/>
      <point x="715" y="218" type="curve" smooth="yes"/>
      <point x="715" y="111"/>
      <point x="667" y="60"/>
      <point x="585" y="60" type="curve" smooth="yes"/>
      <point x="481" y="60"/>
      <point x="451" y="122"/>
      <point x="451" y="208" type="curve" smooth="yes"/>
      <point x="451" y="214" type="line"/>
      <point x="384" y="214" type="line"/>
      <point x="384" y="208" type="line" smooth="yes"/>
      <point x="384" y="119"/>
      <point x="350" y="60"/>
      <point x="250" y="60" type="curve" smooth="yes"/>
      <point x="168" y="60"/>
      <point x="116" y="110"/>
      <point x="116" y="204" type="curve" smooth="yes"/>
      <point x="116" y="268"/>
      <point x="138" y="311"/>
      <point x="173" y="340" type="curve" smooth="yes"/>
      <point x="232" y="389"/>
      <point x="312" y="389"/>
      <point x="382" y="389" type="curve" smooth="yes"/>
      <point x="402" y="389" type="line"/>
      <point x="402" y="430" type="line" smooth="yes"/>
      <point x="402" y="549"/>
      <point x="341" y="612"/>
      <point x="233" y="612" type="curve" smooth="yes"/>
      <point x="143" y="612"/>
      <point x="89" y="572"/>
      <point x="89" y="496" type="curve" smooth="yes"/>
      <point x="89" y="490"/>
      <point x="89" y="481"/>
      <point x="90" y="474" type="curve"/>
      <point x="163" y="478" type="line"/>
      <point x="162" y="482"/>
      <point x="162" y="486"/>
      <point x="162" y="489" type="curve" smooth="yes"/>
      <point x="162" y="525"/>
      <point x="187" y="546"/>
      <point x="238" y="546" type="curve" smooth="yes"/>
      <point x="290" y="546"/>
      <point x="328" y="517"/>
      <point x="331" y="455" type="curve"/>
      <point x="30" y="455" type="line"/>
      <point x="30" y="389" type="line"/>
      <point x="50" y="389" type="line" smooth="yes"/>
      <point x="89" y="389"/>
      <point x="141" y="389"/>
      <point x="187" y="397" type="curve"/>
      <point x="185" y="406" type="line"/>
      <point x="80" y="365"/>
      <point x="43" y="287"/>
      <point x="43" y="204" type="curve" smooth="yes"/>
      <point x="43" y="65"/>
      <point x="130" y="-11"/>
      <point x="248" y="-11" type="curve" smooth="yes"/>
      <point x="337" y="-11"/>
      <point x="377" y="23"/>
      <point x="418" y="77" type="curve"/>
      <point x="452" y="29"/>
      <point x="498" y="-11"/>
    </contour>
  </outline>
</glyph>
<glyph name="hasinh" format="2">
  <advance width="954"/>
  <unicode hex="0DC4"/>
  <outline>
    <contour>
      <point x="326" y="-11" type="curve" smooth="yes"/>
      <point x="542" y="-11"/>
      <point x="618" y="111"/>
      <point x="618" y="222" type="curve" smooth="yes"/>
      <point x="618" y="310"/>
      <point x="573" y="358"/>
      <point x="503" y="358" type="curve" smooth="yes"/>
      <point x="482" y="358"/>
      <point x="459" y="353"/>
      <point x="443" y="342" type="curve"/>
      <point x="453" y="341" type="line"/>
      <point x="495" y="498"/>
      <point x="573" y="541"/>
      <point x="657" y="541" type="curve" smooth="yes"/>
      <point x="778" y="541"/>
      <point x="841" y="442"/>
      <point x="841" y="309" type="curve" smooth="yes"/>
      <point x="841" y="161"/>
      <point x="774" y="66"/>
      <point x="625" y="66" type="curve" smooth="yes"/>
      <point x="608" y="66"/>
      <point x="593" y="67"/>
      <point x="583" y="68" type="curve"/>
      <point x="580" y="0" type="line"/>
      <point x="597" y="-2"/>
      <point x="614" y="-3"/>
      <point x="634" y="-3" type="curve" smooth="yes"/>
      <point x="799" y="-3"/>
      <point x="916" y="104"/>
      <point x="916" y="309" type="curve" smooth="yes"/>
      <point x="916" y="483"/>
      <point x="832" y="612"/>
      <point x="661" y="612" type="curve" smooth="yes"/>
      <point x="558" y="612"/>
      <point x="416" y="556"/>
      <point x="376" y="296" type="curve"/>
      <point x="447" y="274" type="line"/>
      <point x="463" y="286"/>
      <point x="474" y="292"/>
      <point x="498" y="292" type="curve" smooth="yes"/>
      <point x="526" y="292"/>
      <point x="545" y="274"/>
      <point x="545" y="229" type="curve" smooth="yes"/>
      <point x="545" y="122"/>
      <point x="463" y="60"/>
      <point x="326" y="60" type="curve" smooth="yes"/>
      <point x="192" y="60"/>
      <point x="109" y="131"/>
      <point x="109" y="247" type="curve" smooth="yes"/>
      <point x="109" y="296"/>
      <point x="123" y="329"/>
      <point x="148" y="351" type="curve" smooth="yes"/>
      <point x="179" y="378"/>
      <point x="224" y="389"/>
      <point x="305" y="389" type="curve" smooth="yes"/>
      <point x="379" y="389" type="line"/>
      <point x="379" y="430" type="line" smooth="yes"/>
      <point x="379" y="549"/>
      <point x="318" y="612"/>
      <point x="210" y="612" type="curve" smooth="yes"/>
      <point x="120" y="612"/>
      <point x="66" y="572"/>
      <point x="66" y="496" type="curve" smooth="yes"/>
      <point x="66" y="479"/>
      <point x="68" y="462"/>
      <point x="73" y="446" type="curve"/>
      <point x="143" y="458" type="line"/>
      <point x="141" y="465"/>
      <point x="139" y="480"/>
      <point x="139" y="487" type="curve" smooth="yes"/>
      <point x="139" y="526"/>
      <point x="165" y="546"/>
      <point x="215" y="546" type="curve" smooth="yes"/>
      <point x="267" y="546"/>
      <point x="306" y="517"/>
      <point x="308" y="452" type="curve"/>
      <point x="315" y="455" type="line"/>
      <point x="291" y="455" type="line" smooth="yes"/>
      <point x="125" y="455"/>
      <point x="36" y="386"/>
      <point x="36" y="251" type="curve" smooth="yes"/>
      <point x="36" y="83"/>
      <point x="151" y="-11"/>
    </contour>
  </outline>
</glyph>
<glyph name="llasinh" format="2">
  <advance width="758"/>
  <unicode hex="0DC5"/>
  <outline>
    <contour>
      <point x="393" y="-211" type="curve" smooth="yes"/>
      <point x="600" y="-211"/>
      <point x="745" y="-124"/>
      <point x="745" y="46" type="curve" smooth="yes"/>
      <point x="745" y="61"/>
      <point x="744" y="69"/>
      <point x="743" y="81" type="curve"/>
      <point x="670" y="77" type="line"/>
      <point x="671" y="68"/>
      <point x="671" y="57"/>
      <point x="671" y="51" type="curve" smooth="yes"/>
      <point x="671" y="-66"/>
      <point x="578" y="-139"/>
      <point x="393" y="-139" type="curve" smooth="yes"/>
      <point x="206" y="-139"/>
      <point x="104" y="-42"/>
      <point x="104" y="111" type="curve" smooth="yes"/>
      <point x="104" y="198"/>
      <point x="126" y="259"/>
      <point x="176" y="302" type="curve"/>
      <point x="192" y="313" type="line" smooth="yes"/>
      <point x="267" y="369"/>
      <point x="371" y="389"/>
      <point x="577" y="389" type="curve" smooth="yes"/>
      <point x="710" y="389" type="line"/>
      <point x="710" y="430" type="line" smooth="yes"/>
      <point x="710" y="549"/>
      <point x="644" y="612"/>
      <point x="545" y="612" type="curve" smooth="yes"/>
      <point x="496" y="612"/>
      <point x="455" y="592"/>
      <point x="429" y="561" type="curve"/>
      <point x="411" y="584"/>
      <point x="380" y="612"/>
      <point x="324" y="612" type="curve" smooth="yes"/>
      <point x="223" y="612"/>
      <point x="159" y="533"/>
      <point x="159" y="411" type="curve" smooth="yes"/>
      <point x="159" y="384"/>
      <point x="160" y="358"/>
      <point x="164" y="333" type="curve" smooth="yes"/>
      <point x="183" y="198"/>
      <point x="259" y="99"/>
      <point x="443" y="99" type="curve" smooth="yes"/>
      <point x="613" y="99"/>
      <point x="695" y="175"/>
      <point x="708" y="305" type="curve"/>
      <point x="637" y="309" type="line"/>
      <point x="627" y="210"/>
      <point x="561" y="169"/>
      <point x="436" y="169" type="curve" smooth="yes"/>
      <point x="302" y="169"/>
      <point x="227" y="246"/>
      <point x="227" y="405" type="curve" smooth="yes"/>
      <point x="227" y="496"/>
      <point x="262" y="546"/>
      <point x="325" y="546" type="curve" smooth="yes"/>
      <point x="371" y="546"/>
      <point x="394" y="517"/>
      <point x="395" y="480" type="curve"/>
      <point x="462" y="480" type="line"/>
      <point x="470" y="528"/>
      <point x="500" y="546"/>
      <point x="543" y="546" type="curve" smooth="yes"/>
      <point x="597" y="546"/>
      <point x="637" y="517"/>
      <point x="640" y="455" type="curve"/>
      <point x="532" y="455" type="line" smooth="yes"/>
      <point x="371" y="455"/>
      <point x="267" y="435"/>
      <point x="189" y="389" type="curve"/>
      <point x="163" y="375" type="line"/>
      <point x="72" y="314"/>
      <point x="29" y="224"/>
      <point x="29" y="114" type="curve" smooth="yes"/>
      <point x="29" y="-58"/>
      <point x="131" y="-211"/>
    </contour>
  </outline>
</glyph>
<glyph name="fasinh" format="2">
  <advance width="844"/>
  <unicode hex="0DC6"/>
  <outline>
    <contour>
      <point x="549" y="-11" type="curve" smooth="yes"/>
      <point x="719" y="-11"/>
      <point x="806" y="103"/>
      <point x="806" y="307" type="curve" smooth="yes"/>
      <point x="806" y="509"/>
      <point x="713" y="612"/>
      <point x="586" y="612" type="curve" smooth="yes"/>
      <point x="506" y="612"/>
      <point x="457" y="578"/>
      <point x="422" y="517" type="curve"/>
      <point x="391" y="570"/>
      <point x="344" y="612"/>
      <point x="261" y="612" type="curve" smooth="yes"/>
      <point x="131" y="612"/>
      <point x="38" y="510"/>
      <point x="38" y="308" type="curve" smooth="yes"/>
      <point x="38" y="105"/>
      <point x="122" y="-11"/>
      <point x="294" y="-11" type="curve" smooth="yes"/>
      <point x="312" y="-11"/>
      <point x="325" y="-10"/>
      <point x="342" y="-8" type="curve"/>
      <point x="338" y="60" type="line"/>
      <point x="327" y="59"/>
      <point x="313" y="58"/>
      <point x="304" y="58" type="curve" smooth="yes"/>
      <point x="153" y="58"/>
      <point x="112" y="158"/>
      <point x="112" y="308" type="curve" smooth="yes"/>
      <point x="112" y="455"/>
      <point x="166" y="542"/>
      <point x="263" y="542" type="curve" smooth="yes"/>
      <point x="307" y="542"/>
      <point x="339" y="526"/>
      <point x="359" y="499" type="curve" smooth="yes"/>
      <point x="380" y="470"/>
      <point x="389" y="437"/>
      <point x="389" y="381" type="curve" smooth="yes"/>
      <point x="389" y="347" type="line"/>
      <point x="456" y="347" type="line"/>
      <point x="456" y="381" type="line" smooth="yes"/>
      <point x="456" y="439"/>
      <point x="466" y="477"/>
      <point x="487" y="503" type="curve" smooth="yes"/>
      <point x="508" y="528"/>
      <point x="539" y="542"/>
      <point x="581" y="542" type="curve" smooth="yes"/>
      <point x="683" y="542"/>
      <point x="732" y="446"/>
      <point x="732" y="308" type="curve" smooth="yes"/>
      <point x="732" y="157"/>
      <point x="690" y="58"/>
      <point x="540" y="58" type="curve" smooth="yes"/>
      <point x="528" y="58"/>
      <point x="517" y="58"/>
      <point x="505" y="60" type="curve"/>
      <point x="501" y="-8" type="line"/>
      <point x="519" y="-10"/>
      <point x="529" y="-11"/>
    </contour>
  </outline>
</glyph>
<glyph name="viramasinh" format="2">
  <unicode hex="0DCA"/>
  <outline>
    <contour>
      <point x="-208" y="524" type="line"/>
      <point x="-140" y="524" type="line"/>
      <point x="-140" y="853" type="line"/>
      <point x="-163" y="914" type="line"/>
      <point x="-172" y="943"/>
      <point x="-191" y="961"/>
      <point x="-232" y="973" type="curve"/>
      <point x="-258" y="912" type="line"/>
      <point x="-236" y="904"/>
      <point x="-224" y="893"/>
      <point x="-217" y="878" type="curve" smooth="yes"/>
      <point x="-211" y="866"/>
      <point x="-208" y="847"/>
      <point x="-208" y="816" type="curve" smooth="yes"/>
    </contour>
    <contour>
      <point x="-107" y="781" type="curve" smooth="yes"/>
      <point x="-34" y="781"/>
      <point x="0" y="821"/>
      <point x="0" y="880" type="curve" smooth="yes"/>
      <point x="0" y="942"/>
      <point x="-38" y="973"/>
      <point x="-89" y="973" type="curve" smooth="yes"/>
      <point x="-138" y="973"/>
      <point x="-166" y="941"/>
      <point x="-175" y="904" type="curve"/>
      <point x="-140" y="844" type="line"/>
      <point x="-140" y="857" type="line" smooth="yes"/>
      <point x="-140" y="894"/>
      <point x="-131" y="917"/>
      <point x="-94" y="917" type="curve" smooth="yes"/>
      <point x="-73" y="917"/>
      <point x="-58" y="904"/>
      <point x="-58" y="879" type="curve" smooth="yes"/>
      <point x="-58" y="851"/>
      <point x="-75" y="837"/>
      <point x="-112" y="837" type="curve" smooth="yes"/>
      <point x="-139" y="837"/>
      <point x="-166" y="845"/>
      <point x="-183" y="852" type="curve"/>
      <point x="-198" y="801" type="line"/>
      <point x="-181" y="792"/>
      <point x="-153" y="781"/>
    </contour>
  </outline>
</glyph>
<glyph name="aavowelsignsinh" format="2">
  <advance width="343"/>
  <unicode hex="0DCF"/>
  <outline>
    <contour>
      <point x="91" y="-11" type="curve" smooth="yes"/>
      <point x="189" y="-11"/>
      <point x="302" y="42"/>
      <point x="302" y="272" type="curve" smooth="yes"/>
      <point x="302" y="502"/>
      <point x="189" y="555"/>
      <point x="91" y="555" type="curve" smooth="yes"/>
      <point x="67" y="555"/>
      <point x="37" y="551"/>
      <point x="9" y="542" type="curve"/>
      <point x="22" y="477" type="line"/>
      <point x="38" y="482"/>
      <point x="56" y="486"/>
      <point x="81" y="486" type="curve" smooth="yes"/>
      <point x="155" y="486"/>
      <point x="227" y="451"/>
      <point x="227" y="272" type="curve" smooth="yes"/>
      <point x="227" y="93"/>
      <point x="155" y="58"/>
      <point x="81" y="58" type="curve" smooth="yes"/>
      <point x="58" y="58"/>
      <point x="38" y="61"/>
      <point x="22" y="66" type="curve"/>
      <point x="9" y="1" type="line"/>
      <point x="34" y="-6"/>
      <point x="62" y="-11"/>
    </contour>
  </outline>
</glyph>
<glyph name="aevowelsignsinh" format="2">
  <advance width="309"/>
  <unicode hex="0DD0"/>
  <outline>
    <contour>
      <point x="200" y="-165" type="curve" smooth="yes"/>
      <point x="246" y="-165"/>
      <point x="281" y="-156"/>
      <point x="321" y="-140" type="curve"/>
      <point x="298" y="-76" type="line"/>
      <point x="263" y="-91"/>
      <point x="241" y="-96"/>
      <point x="208" y="-96" type="curve" smooth="yes"/>
      <point x="152" y="-96"/>
      <point x="107" y="-75"/>
      <point x="107" y="10" type="curve" smooth="yes"/>
      <point x="107" y="104"/>
      <point x="145" y="176"/>
      <point x="294" y="335" type="curve"/>
      <point x="270" y="402" type="line"/>
      <point x="16" y="402" type="line"/>
      <point x="16" y="334" type="line"/>
      <point x="153" y="334" type="line" smooth="yes"/>
      <point x="185" y="334"/>
      <point x="211" y="335"/>
      <point x="230" y="338" type="curve"/>
      <point x="219" y="344" type="line"/>
      <point x="65" y="195"/>
      <point x="33" y="90"/>
      <point x="33" y="12" type="curve" smooth="yes"/>
      <point x="33" y="-112"/>
      <point x="97" y="-165"/>
    </contour>
  </outline>
</glyph>
<glyph name="aaevowelsignsinh" format="2">
  <advance width="314"/>
  <unicode hex="0DD1"/>
  <outline>
    <contour>
      <point x="200" y="-165" type="curve" smooth="yes"/>
      <point x="246" y="-165"/>
      <point x="281" y="-156"/>
      <point x="321" y="-140" type="curve"/>
      <point x="298" y="-76" type="line"/>
      <point x="258" y="-93"/>
      <point x="239" y="-96"/>
      <point x="208" y="-96" type="curve" smooth="yes"/>
      <point x="152" y="-96"/>
      <point x="107" y="-69"/>
      <point x="107" y="-7" type="curve" smooth="yes"/>
      <point x="107" y="61"/>
      <point x="153" y="107"/>
      <point x="290" y="181" type="curve"/>
      <point x="268" y="242" type="line"/>
      <point x="221" y="240" type="line"/>
      <point x="153" y="237"/>
      <point x="125" y="235"/>
      <point x="99" y="231" type="curve"/>
      <point x="98" y="219" type="line"/>
      <point x="169" y="259"/>
      <point x="250" y="310"/>
      <point x="290" y="339" type="curve"/>
      <point x="268" y="402" type="line"/>
      <point x="16" y="402" type="line"/>
      <point x="16" y="334" type="line"/>
      <point x="125" y="334" type="line" smooth="yes"/>
      <point x="152" y="334"/>
      <point x="181" y="334"/>
      <point x="208" y="337" type="curve"/>
      <point x="236" y="362" type="line"/>
      <point x="169" y="325"/>
      <point x="104" y="285"/>
      <point x="41" y="241" type="curve"/>
      <point x="65" y="180" type="line"/>
      <point x="99" y="182" type="line" smooth="yes"/>
      <point x="166" y="185"/>
      <point x="193" y="187"/>
      <point x="225" y="193" type="curve"/>
      <point x="215" y="201" type="line"/>
      <point x="111" y="151"/>
      <point x="33" y="82"/>
      <point x="33" y="-7" type="curve" smooth="yes"/>
      <point x="33" y="-107"/>
      <point x="97" y="-165"/>
    </contour>
  </outline>
</glyph>
<glyph name="ivowelsignsinh" format="2">
  <unicode hex="0DD2"/>
  <outline>
    <contour>
      <point x="-312" y="876" type="curve" smooth="yes"/>
      <point x="-524" y="876"/>
      <point x="-592" y="788"/>
      <point x="-592" y="694" type="curve" smooth="yes"/>
      <point x="-592" y="663"/>
      <point x="-585" y="640"/>
      <point x="-579" y="623" type="curve"/>
      <point x="-510" y="634" type="line"/>
      <point x="-514" y="647"/>
      <point x="-520" y="666"/>
      <point x="-520" y="692" type="curve" smooth="yes"/>
      <point x="-520" y="754"/>
      <point x="-475" y="806"/>
      <point x="-312" y="806" type="curve" smooth="yes"/>
      <point x="-150" y="806"/>
      <point x="-105" y="754"/>
      <point x="-105" y="693" type="curve" smooth="yes"/>
      <point x="-105" y="663"/>
      <point x="-110" y="647"/>
      <point x="-114" y="634" type="curve"/>
      <point x="-46" y="623" type="line"/>
      <point x="-39" y="640"/>
      <point x="-33" y="663"/>
      <point x="-33" y="696" type="curve" smooth="yes"/>
      <point x="-33" y="788"/>
      <point x="-99" y="876"/>
    </contour>
  </outline>
</glyph>
<glyph name="iivowelsignsinh" format="2">
  <unicode hex="0DD3"/>
  <outline>
    <contour>
      <point x="-312" y="876" type="curve" smooth="yes"/>
      <point x="-524" y="876"/>
      <point x="-592" y="788"/>
      <point x="-592" y="694" type="curve" smooth="yes"/>
      <point x="-592" y="663"/>
      <point x="-585" y="640"/>
      <point x="-579" y="623" type="curve"/>
      <point x="-510" y="634" type="line"/>
      <point x="-514" y="647"/>
      <point x="-520" y="666"/>
      <point x="-520" y="692" type="curve" smooth="yes"/>
      <point x="-520" y="754"/>
      <point x="-475" y="806"/>
      <point x="-312" y="806" type="curve" smooth="yes"/>
      <point x="-267" y="806"/>
      <point x="-228" y="801"/>
      <point x="-197" y="794" type="curve"/>
      <point x="-131" y="780"/>
      <point x="-98" y="747"/>
      <point x="-98" y="701" type="curve" smooth="yes"/>
      <point x="-98" y="667"/>
      <point x="-116" y="650"/>
      <point x="-150" y="650" type="curve" smooth="yes"/>
      <point x="-187" y="650"/>
      <point x="-209" y="670"/>
      <point x="-209" y="705" type="curve" smooth="yes"/>
      <point x="-209" y="745"/>
      <point x="-186" y="774"/>
      <point x="-147" y="797" type="curve"/>
      <point x="-203" y="827" type="line"/>
      <point x="-236" y="801"/>
      <point x="-275" y="758"/>
      <point x="-275" y="704" type="curve" smooth="yes"/>
      <point x="-275" y="637"/>
      <point x="-240" y="591"/>
      <point x="-150" y="591" type="curve" smooth="yes"/>
      <point x="-69" y="591"/>
      <point x="-28" y="632"/>
      <point x="-28" y="705" type="curve" smooth="yes"/>
      <point x="-28" y="796"/>
      <point x="-107" y="876"/>
    </contour>
  </outline>
</glyph>
<glyph name="uvowelsignsinh" format="2">
  <unicode hex="0DD4"/>
  <outline>
    <contour>
      <point x="-647" y="-140" type="curve" smooth="yes"/>
      <point x="-647" y="-175"/>
      <point x="-635" y="-203"/>
      <point x="-611" y="-223" type="curve" smooth="yes"/>
      <point x="-584" y="-246"/>
      <point x="-540" y="-261"/>
      <point x="-452" y="-261" type="curve" smooth="yes"/>
      <point x="-27" y="-261" type="line"/>
      <point x="-27" y="72" type="line"/>
      <point x="-99" y="72" type="line"/>
      <point x="-99" y="-193" type="line"/>
      <point x="-423" y="-193" type="line" smooth="yes"/>
      <point x="-507" y="-193"/>
      <point x="-533" y="-189"/>
      <point x="-552" y="-177" type="curve" smooth="yes"/>
      <point x="-567" y="-168"/>
      <point x="-575" y="-154"/>
      <point x="-575" y="-137" type="curve" smooth="yes"/>
      <point x="-575" y="-117"/>
      <point x="-563" y="-97"/>
      <point x="-536" y="-78" type="curve"/>
      <point x="-586" y="-27" type="line"/>
      <point x="-625" y="-61"/>
      <point x="-647" y="-95"/>
    </contour>
  </outline>
</glyph>
<glyph name="uuvowelsignsinh" format="2">
  <unicode hex="0DD6"/>
  <outline>
    <contour>
      <point x="-643" y="-141" type="curve" smooth="yes"/>
      <point x="-643" y="-232"/>
      <point x="-569" y="-261"/>
      <point x="-508" y="-261" type="curve" smooth="yes"/>
      <point x="-460" y="-261"/>
      <point x="-422" y="-245"/>
      <point x="-360" y="-216" type="curve" smooth="yes"/>
      <point x="-318" y="-197"/>
      <point x="-282" y="-182"/>
      <point x="-246" y="-182" type="curve" smooth="yes"/>
      <point x="-192" y="-182"/>
      <point x="-156" y="-199"/>
      <point x="-73" y="-261" type="curve"/>
      <point x="-21" y="-261" type="line"/>
      <point x="-21" y="72" type="line"/>
      <point x="-93" y="72" type="line"/>
      <point x="-93" y="-130" type="line" smooth="yes"/>
      <point x="-93" y="-159"/>
      <point x="-92" y="-187"/>
      <point x="-90" y="-215" type="curve"/>
      <point x="-54" y="-201" type="line"/>
      <point x="-149" y="-132"/>
      <point x="-198" y="-112"/>
      <point x="-253" y="-112" type="curve" smooth="yes"/>
      <point x="-296" y="-112"/>
      <point x="-330" y="-128"/>
      <point x="-384" y="-153" type="curve" smooth="yes"/>
      <point x="-441" y="-180"/>
      <point x="-470" y="-193"/>
      <point x="-507" y="-193" type="curve" smooth="yes"/>
      <point x="-542" y="-193"/>
      <point x="-570" y="-178"/>
      <point x="-570" y="-139" type="curve" smooth="yes"/>
      <point x="-570" y="-115"/>
      <point x="-559" y="-99"/>
      <point x="-531" y="-78" type="curve"/>
      <point x="-581" y="-27" type="line"/>
      <point x="-619" y="-60"/>
      <point x="-643" y="-89"/>
    </contour>
  </outline>
</glyph>
<glyph name="rvocalicvowelsignsinh" format="2">
  <advance width="445"/>
  <unicode hex="0DD8"/>
  <outline>
    <contour>
      <point x="173" y="-11" type="curve" smooth="yes"/>
      <point x="226" y="-11"/>
      <point x="257" y="1"/>
      <point x="290" y="24" type="curve"/>
      <point x="330" y="0" type="line"/>
      <point x="371" y="45" type="line"/>
      <point x="306" y="85" type="line"/>
      <point x="265" y="85" type="line"/>
      <point x="243" y="67"/>
      <point x="220" y="58"/>
      <point x="184" y="58" type="curve" smooth="yes"/>
      <point x="135" y="58"/>
      <point x="98" y="82"/>
      <point x="98" y="153" type="curve" smooth="yes"/>
      <point x="98" y="190"/>
      <point x="108" y="225"/>
      <point x="142" y="245" type="curve" smooth="yes"/>
      <point x="168" y="260"/>
      <point x="202" y="271"/>
      <point x="287" y="271" type="curve" smooth="yes"/>
      <point x="345" y="271" type="line"/>
      <point x="359" y="337" type="line"/>
      <point x="321" y="337" type="line" smooth="yes"/>
      <point x="189" y="337"/>
      <point x="137" y="323"/>
      <point x="95" y="295" type="curve" smooth="yes"/>
      <point x="49" y="265"/>
      <point x="24" y="219"/>
      <point x="24" y="153" type="curve" smooth="yes"/>
      <point x="24" y="48"/>
      <point x="85" y="-11"/>
    </contour>
    <contour>
      <point x="330" y="0" type="line"/>
      <point x="394" y="0" type="line"/>
      <point x="394" y="290" type="line" smooth="yes"/>
      <point x="394" y="406"/>
      <point x="377" y="465"/>
      <point x="327" y="509" type="curve" smooth="yes"/>
      <point x="292" y="539"/>
      <point x="245" y="555"/>
      <point x="176" y="555" type="curve" smooth="yes"/>
      <point x="123" y="555"/>
      <point x="74" y="544"/>
      <point x="33" y="530" type="curve"/>
      <point x="54" y="465" type="line"/>
      <point x="83" y="476"/>
      <point x="125" y="486"/>
      <point x="177" y="486" type="curve" smooth="yes"/>
      <point x="219" y="486"/>
      <point x="251" y="476"/>
      <point x="273" y="458" type="curve" smooth="yes"/>
      <point x="308" y="430"/>
      <point x="321" y="381"/>
      <point x="321" y="307" type="curve" smooth="yes"/>
      <point x="321" y="50" type="line"/>
    </contour>
  </outline>
</glyph>
<glyph name="evowelsignsinh" format="2">
  <advance width="631"/>
  <unicode hex="0DD9"/>
  <outline>
    <contour>
      <point x="335" y="-11" type="curve" smooth="yes"/>
      <point x="527" y="-11"/>
      <point x="604" y="79"/>
      <point x="604" y="201" type="curve" smooth="yes"/>
      <point x="604" y="303"/>
      <point x="528" y="387"/>
      <point x="376" y="387" type="curve" smooth="yes"/>
      <point x="283" y="387"/>
      <point x="219" y="343"/>
      <point x="219" y="268" type="curve" smooth="yes"/>
      <point x="219" y="190"/>
      <point x="271" y="150"/>
      <point x="343" y="150" type="curve" smooth="yes"/>
      <point x="408" y="150"/>
      <point x="460" y="177"/>
      <point x="460" y="259" type="curve" smooth="yes"/>
      <point x="460" y="278"/>
      <point x="457" y="303"/>
      <point x="445" y="325" type="curve"/>
      <point x="373" y="331" type="line"/>
      <point x="388" y="312"/>
      <point x="392" y="285"/>
      <point x="392" y="267" type="curve" smooth="yes"/>
      <point x="392" y="236"/>
      <point x="376" y="216"/>
      <point x="341" y="216" type="curve" smooth="yes"/>
      <point x="303" y="216"/>
      <point x="290" y="240"/>
      <point x="290" y="266" type="curve" smooth="yes"/>
      <point x="290" y="301"/>
      <point x="319" y="322"/>
      <point x="370" y="322" type="curve" smooth="yes"/>
      <point x="383" y="322"/>
      <point x="401" y="322"/>
      <point x="408" y="322" type="curve"/>
      <point x="510" y="310"/>
      <point x="532" y="250"/>
      <point x="532" y="196" type="curve" smooth="yes"/>
      <point x="532" y="121"/>
      <point x="485" y="60"/>
      <point x="335" y="60" type="curve" smooth="yes"/>
      <point x="160" y="60"/>
      <point x="108" y="169"/>
      <point x="108" y="268" type="curve" smooth="yes"/>
      <point x="108" y="425"/>
      <point x="221" y="487"/>
      <point x="354" y="487" type="curve" smooth="yes"/>
      <point x="437" y="487"/>
      <point x="496" y="479"/>
      <point x="575" y="446" type="curve"/>
      <point x="601" y="512" type="line"/>
      <point x="525" y="543"/>
      <point x="455" y="556"/>
      <point x="356" y="556" type="curve" smooth="yes"/>
      <point x="162" y="556"/>
      <point x="35" y="441"/>
      <point x="35" y="270" type="curve" smooth="yes"/>
      <point x="35" y="130"/>
      <point x="112" y="-11"/>
    </contour>
  </outline>
</glyph>
<glyph name="lvocalicvowelsignsinh" format="2">
  <advance width="528"/>
  <unicode hex="0DDF"/>
  <outline>
    <contour>
      <point x="277" y="-11" type="curve" smooth="yes"/>
      <point x="376" y="-11"/>
      <point x="487" y="40"/>
      <point x="487" y="279" type="curve" smooth="yes"/>
      <point x="487" y="484"/>
      <point x="401" y="555"/>
      <point x="307" y="555" type="curve" smooth="yes"/>
      <point x="237" y="555"/>
      <point x="194" y="518"/>
      <point x="163" y="461" type="curve"/>
      <point x="208" y="418" type="line"/>
      <point x="240" y="463" type="line"/>
      <point x="255" y="481"/>
      <point x="273" y="490"/>
      <point x="299" y="490" type="curve" smooth="yes"/>
      <point x="366" y="490"/>
      <point x="412" y="422"/>
      <point x="412" y="279" type="curve" smooth="yes"/>
      <point x="412" y="91"/>
      <point x="343" y="58"/>
      <point x="267" y="58" type="curve" smooth="yes"/>
      <point x="231" y="58"/>
      <point x="210" y="62"/>
      <point x="183" y="72" type="curve"/>
      <point x="168" y="6" type="line"/>
      <point x="198" y="-6"/>
      <point x="237" y="-11"/>
    </contour>
    <contour>
      <point x="186" y="258" type="curve" smooth="yes"/>
      <point x="288" y="258"/>
      <point x="329" y="316"/>
      <point x="329" y="380" type="curve" smooth="yes"/>
      <point x="329" y="440"/>
      <point x="292" y="470"/>
      <point x="242" y="470" type="curve" smooth="yes"/>
      <point x="227" y="470"/>
      <point x="213" y="468"/>
      <point x="200" y="462" type="curve"/>
      <point x="208" y="418" type="line"/>
      <point x="213" y="420"/>
      <point x="219" y="422"/>
      <point x="228" y="422" type="curve" smooth="yes"/>
      <point x="246" y="422"/>
      <point x="261" y="408"/>
      <point x="261" y="382" type="curve" smooth="yes"/>
      <point x="261" y="339"/>
      <point x="224" y="322"/>
      <point x="185" y="322" type="curve" smooth="yes"/>
      <point x="115" y="322"/>
      <point x="97" y="372"/>
      <point x="97" y="418" type="curve" smooth="yes"/>
      <point x="97" y="461"/>
      <point x="109" y="498"/>
      <point x="129" y="535" type="curve"/>
      <point x="62" y="555" type="line"/>
      <point x="46" y="525"/>
      <point x="26" y="478"/>
      <point x="26" y="419" type="curve" smooth="yes"/>
      <point x="26" y="341"/>
      <point x="64" y="258"/>
    </contour>
  </outline>
</glyph>
<glyph name="uni0DE6" format="2">
  <advance width="325"/>
  <unicode hex="0DE6"/>
  <outline>
    <contour>
      <point x="80" y="0" type="line"/>
      <point x="154" y="0" type="line"/>
      <point x="154" y="481" type="line"/>
      <point x="129" y="548" type="line"/>
      <point x="119" y="580"/>
      <point x="98" y="599"/>
      <point x="54" y="612" type="curve"/>
      <point x="25" y="546" type="line"/>
      <point x="49" y="537"/>
      <point x="62" y="525"/>
      <point x="70" y="509" type="curve" smooth="yes"/>
      <point x="77" y="496"/>
      <point x="80" y="475"/>
      <point x="80" y="441" type="curve" smooth="yes"/>
    </contour>
    <contour>
      <point x="190" y="403" type="curve" smooth="yes"/>
      <point x="270" y="403"/>
      <point x="307" y="447"/>
      <point x="307" y="511" type="curve" smooth="yes"/>
      <point x="307" y="578"/>
      <point x="265" y="612"/>
      <point x="210" y="612" type="curve" smooth="yes"/>
      <point x="156" y="612"/>
      <point x="126" y="577"/>
      <point x="116" y="537" type="curve"/>
      <point x="154" y="472" type="line"/>
      <point x="154" y="486" type="line" smooth="yes"/>
      <point x="154" y="526"/>
      <point x="164" y="551"/>
      <point x="204" y="551" type="curve" smooth="yes"/>
      <point x="227" y="551"/>
      <point x="243" y="537"/>
      <point x="243" y="510" type="curve" smooth="yes"/>
      <point x="243" y="479"/>
      <point x="225" y="464"/>
      <point x="185" y="464" type="curve" smooth="yes"/>
      <point x="155" y="464"/>
      <point x="126" y="473"/>
      <point x="107" y="480" type="curve"/>
      <point x="91" y="425" type="line"/>
      <point x="109" y="415"/>
      <point x="140" y="403"/>
    </contour>
  </outline>
</glyph>
<glyph name="uni0DE7" format="2">
  <advance width="835"/>
  <unicode hex="0DE7"/>
  <outline>
    <contour>
      <point x="333" y="-11" type="curve" smooth="yes"/>
      <point x="511" y="-11"/>
      <point x="585" y="87"/>
      <point x="585" y="212" type="curve" smooth="yes"/>
      <point x="585" y="327"/>
      <point x="509" y="417"/>
      <point x="360" y="417" type="curve" smooth="yes"/>
      <point x="264" y="417"/>
      <point x="200" y="373"/>
      <point x="200" y="295" type="curve" smooth="yes"/>
      <point x="200" y="220"/>
      <point x="252" y="180"/>
      <point x="324" y="180" type="curve" smooth="yes"/>
      <point x="389" y="180"/>
      <point x="441" y="207"/>
      <point x="441" y="289" type="curve" smooth="yes"/>
      <point x="441" y="308"/>
      <point x="438" y="333"/>
      <point x="426" y="355" type="curve"/>
      <point x="354" y="361" type="line"/>
      <point x="369" y="342"/>
      <point x="374" y="315"/>
      <point x="374" y="297" type="curve" smooth="yes"/>
      <point x="374" y="266"/>
      <point x="357" y="246"/>
      <point x="322" y="246" type="curve" smooth="yes"/>
      <point x="284" y="246"/>
      <point x="271" y="270"/>
      <point x="271" y="296" type="curve" smooth="yes"/>
      <point x="271" y="331"/>
      <point x="300" y="352"/>
      <point x="351" y="352" type="curve" smooth="yes"/>
      <point x="364" y="352"/>
      <point x="382" y="352"/>
      <point x="389" y="352" type="curve"/>
      <point x="491" y="339"/>
      <point x="513" y="272"/>
      <point x="513" y="213" type="curve" smooth="yes"/>
      <point x="513" y="125"/>
      <point x="463" y="61"/>
      <point x="331" y="61" type="curve" smooth="yes"/>
      <point x="159" y="61"/>
      <point x="108" y="177"/>
      <point x="108" y="287" type="curve" smooth="yes"/>
      <point x="108" y="466"/>
      <point x="228" y="542"/>
      <point x="367" y="542" type="curve" smooth="yes"/>
      <point x="597" y="542"/>
      <point x="719" y="339"/>
      <point x="727" y="-1" type="curve"/>
      <point x="803" y="2" type="line"/>
      <point x="793" y="390"/>
      <point x="641" y="612"/>
      <point x="367" y="612" type="curve" smooth="yes"/>
      <point x="169" y="612"/>
      <point x="35" y="487"/>
      <point x="35" y="287" type="curve" smooth="yes"/>
      <point x="35" y="138"/>
      <point x="114" y="-11"/>
    </contour>
  </outline>
</glyph>
